<svg width="34" height="12" viewBox="0 0 34 12" fill="none" xmlns="http://www.w3.org/2000/svg"><path d="M7.151 12V6.806h5.5l.59.77.61-.77h19.964v4.836s-.522.353-1.125.358H21.635l-.665-.819V12h-2.18v-1.398s-.298.195-.942.195h-.742V12h-3.301l-.59-.786-.598.786H7.151ZM.729 2.891 1.969 0h2.145l.704 1.62V0h2.666l.42 1.17L8.308 0h11.97v.588S20.908 0 21.942 0l3.884.014.691 1.598V0h2.232l.614.918V0h2.252v5.194h-2.252l-.588-.921v.921h-3.279l-.33-.819h-.881l-.324.819h-2.224c-.89 0-1.458-.576-1.458-.576v.576h-3.352l-.666-.819v.819H3.796l-.33-.819h-.878l-.327.819H.729V2.891Z" fill="#016FD0"/><path d="M2.407.64.734 4.53h1.09l.308-.78h1.795l.307.78h1.113L3.676.64H2.407Zm.62.905.546 1.361H2.478l.548-1.36ZM5.462 4.529V.639L7.01.645l.9 2.508.879-2.514h1.535v3.89H9.35V1.663l-1.03 2.866h-.853L6.434 1.663v2.866h-.972ZM10.99 4.529V.639h3.173v.87h-2.19v.666h2.14v.819h-2.14v.69h2.19v.845H10.99ZM14.725.64v3.89h.972V3.148h.41l1.165 1.382h1.189l-1.28-1.433a1.185 1.185 0 0 0 1.067-1.195c0-.818-.643-1.262-1.36-1.262h-2.163Zm.972.87h1.112c.266 0 .46.209.46.41 0 .258-.251.41-.446.41h-1.126v-.82ZM19.64 4.529h-.994V.639h.993v3.89ZM21.994 4.529h-.214c-1.037 0-1.667-.817-1.667-1.929 0-1.14.623-1.96 1.932-1.96h1.075v.92h-1.114c-.532 0-.907.415-.907 1.05 0 .753.43 1.07 1.049 1.07h.256l-.41.849ZM24.11.64l-1.672 3.89h1.089l.308-.78h1.795l.307.78h1.113L25.379.64H24.11Zm.62.905.546 1.361h-1.095l.548-1.36ZM27.162 4.529V.639h1.236l1.579 2.444V.64h.972v3.89h-1.196L28.134 2.02V4.53h-.972ZM7.817 11.335v-3.89h3.174v.87H8.8v.666h2.14V9.8H8.8v.69h2.19v.845H7.818ZM23.364 11.335v-3.89h3.173v.87h-2.19v.666h2.129V9.8h-2.13v.69h2.191v.845h-3.173ZM11.113 11.335l1.545-1.92-1.582-1.97h1.225l.942 1.218.945-1.217h1.178L13.805 9.39l1.547 1.945h-1.225l-.914-1.198-.893 1.198h-1.207ZM15.468 7.446v3.89h.998v-1.229h1.023c.866 0 1.523-.459 1.523-1.353 0-.74-.515-1.308-1.396-1.308h-2.148Zm.998.88h1.078c.28 0 .48.171.48.448 0 .26-.2.447-.483.447h-1.075v-.895ZM19.435 7.446v3.89h.972V9.952h.41l1.165 1.382h1.189l-1.28-1.433a1.184 1.184 0 0 0 1.067-1.194c0-.819-.642-1.262-1.36-1.262h-2.163Zm.972.87h1.111c.267 0 .461.208.461.41 0 .258-.251.409-.446.409h-1.126v-.82ZM26.989 11.335v-.844h1.946c.288 0 .412-.156.412-.326 0-.164-.124-.33-.412-.33h-.88c-.764 0-1.19-.465-1.19-1.164 0-.624.39-1.225 1.526-1.225h1.894l-.41.875h-1.637c-.314 0-.41.164-.41.321 0 .161.12.34.358.34h.922c.852 0 1.221.482 1.221 1.115 0 .68-.412 1.238-1.268 1.238H26.99ZM30.557 11.335v-.844h1.946c.288 0 .413-.156.413-.326 0-.164-.124-.33-.413-.33h-.88c-.764 0-1.19-.465-1.19-1.164 0-.624.39-1.225 1.526-1.225h1.855l-.37.875h-1.638c-.313 0-.41.164-.41.321 0 .161.12.34.359.34h.92c.853 0 1.223.482 1.223 1.115 0 .68-.412 1.238-1.269 1.238h-2.072Z" fill="#fff"/></svg>