<svg width="46" height="12" viewBox="0 0 46 12" fill="none" xmlns="http://www.w3.org/2000/svg"><path d="M3.05.32 0 9.255h1.792l.861-2.607h2.478l.884 2.607h1.83L4.788.32H3.05Zm1.646 4.841h-1.6l.67-1.967c.046-.137.092-.266.13-.396.046.137.084.274.137.42l.663 1.943ZM10.857 5.184c-.824-.328-.915-.48-.915-.716 0-.305.252-.488.663-.488.48 0 .862.19 1.045.305l.35.22.465-1.417-.213-.138c-.404-.266-1.014-.419-1.632-.419-1.38 0-2.378.87-2.378 2.074 0 1.105.976 1.692 1.799 1.99.816.305.884.518.884.777 0 .488-.51.557-.815.557-.473 0-.984-.198-1.274-.374l-.35-.206-.458 1.441.221.13c.504.297 1.174.465 1.838.465 1.517 0 2.539-.854 2.539-2.12 0-1.273-1.014-1.799-1.77-2.08ZM15.317 1.113l-1.708.519v1.021h-.922v1.472h.922v2.92c0 .815.16 1.395.503 1.783.336.359.831.565 1.41.565.519 0 .893-.107 1.068-.168l.229-.076-.092-1.48-.396.115c-.115.03-.252.061-.534.061-.206 0-.488 0-.488-.831v-2.89h1.548v-1.47h-1.54v-1.54ZM21.027 2.592l-.313-.046a1.968 1.968 0 0 0-1.723.587l-.023-.48h-1.6l.022.343c.03.511.053 1.09.053 1.838v4.421h1.731V5.764c0-.16.015-.328.03-.443.13-.686.557-1.113 1.136-1.113.138 0 .222 0 .298.016l.396.083-.007-1.715ZM24.176 2.531c-1.93 0-3.278 1.426-3.278 3.477 0 1.997 1.303 3.385 3.179 3.385 1.585 0 3.285-1.09 3.285-3.484.008-1.99-1.303-3.378-3.186-3.378Zm1.44 3.416c0 1.15-.625 1.99-1.478 1.99-.854 0-1.472-.832-1.472-1.96 0-.732.313-1.974 1.494-1.974 1.152-.016 1.457 1.265 1.457 1.944ZM33.042 1.03c-.564-.512-1.425-.77-2.538-.77-.748 0-1.457.053-2.112.16l-.267.045v8.79h1.715V5.992c.176.016.359.023.542.023 1.159 0 2.142-.358 2.767-1.006.488-.503.732-1.174.732-1.998-.008-.8-.305-1.501-.839-1.982Zm-.884 2.035c0 1.25-1.098 1.433-1.754 1.433-.22 0-.404-.008-.556-.03V1.784c.168-.023.396-.03.686-.03.732 0 1.624.228 1.624 1.31ZM39.134 7.502V5.276c0-1.777-.923-2.745-2.585-2.745-.77 0-1.578.214-2.135.564l-.22.138.464 1.372.351-.237c.358-.243.877-.388 1.38-.388.35-.008.602.076.77.236.137.137.221.343.252.602-1.35.038-2.333.359-2.943.96-.42.42-.633.946-.633 1.58 0 1.013.732 2.035 2.15 2.035.602 0 1.166-.191 1.608-.526l.046.396h1.64l-.062-.374a9.867 9.867 0 0 1-.083-1.387Zm-2.882.442c-.26 0-.686-.091-.686-.709 0-.236.068-.427.22-.572.199-.198.649-.427 1.655-.442v.71c0 .052-.008.144-.03.235-.122.359-.496.778-1.16.778ZM43.898 2.653 42.64 6.366c-.03.091-.06.19-.091.282a2.71 2.71 0 0 0-.1-.267l-1.372-3.728h-1.883l2.364 5.924.007.015a.471.471 0 0 1 .054.137c-.016.03-.038.092-.054.13-.206.435-.51.846-.815 1.09l-.008.008a2.246 2.246 0 0 1-.839.465l-.305.099.443 1.479.282-.053c.175-.03.785-.176 1.486-.763.839-.747 1.396-1.929 2.127-3.85l1.792-4.68h-1.83Z" fill="#000"/><path d="M6.313 2.775C7.426 1.64 9.316.961 11.367.961c.8 0 1.578.099 2.318.305l.06.015 1.312-.397-.587-.228C13.35.229 12.061 0 10.734 0 8.806 0 7.007.465 5.673 1.311l-.145.092.557 1.624.229-.252Z" fill="red"/></svg>