<svg width="66" height="12" viewBox="0 0 66 12" fill="none" xmlns="http://www.w3.org/2000/svg"><g clip-path="url(#a)" fill="#3C3C3C"><path d="M5.914.06.664 2.31a.747.747 0 0 0-.438.839c.072.347.377.6.733.6v.188c0 .312.251.562.563.562h9.376c.312 0 .562-.25.562-.562v-.188a.749.749 0 0 0 .296-1.44L6.505.06a.758.758 0 0 0-.59 0ZM3.21 5.25h-1.5v4.6a.443.443 0 0 0-.042.026l-1.125.75a.751.751 0 0 0-.302.842.752.752 0 0 0 .72.532h10.5a.749.749 0 0 0 .414-1.374l-1.124-.75c-.014-.009-.029-.016-.042-.026v-4.6H9.21v4.5h-.938v-4.5h-1.5v4.5H5.648v-4.5h-1.5v4.5H3.21v-4.5Zm3-2.251A.749.749 0 1 1 6.209 1.5a.749.749 0 0 1 .002 1.498ZM23.736 6.253c.124.769.199 1.054.41 1.55.719-.484 1.177-.893 1.487-1.314l.869.93c-.133.107-.39.318-.77.632a9.82 9.82 0 0 1-1.016.756c.471.67 1.005 1.154 1.96 1.749-.298.36-.546.707-.856 1.228-1.067-.831-1.612-1.401-2.146-2.257l.025 1.116a35.668 35.668 0 0 1-3.67 1.041c-.15.033-.29.07-.422.112l-.235-1.054a29.52 29.52 0 0 1-2.753.67c-.422.087-1.08.21-1.253.248l-.236-1.389c.533-.012 1.005-.062 2.084-.248V6.538h-.72c-.483 0-.868.025-1.203.062V5.335c.323.037.695.062 1.216.062h.707v-.893h-.273c-.285 0-.508.012-.756.037V3.97a8.37 8.37 0 0 1-.62.545 4.788 4.788 0 0 0-.608-1.24 6.65 6.65 0 0 0 1.302-1.128c.421-.472.695-.905.98-1.576h1.364c.434.918.819 1.365 1.91 2.158v-.533c0-.52-.025-.943-.05-1.314.335.037.645.05 1.191.05h3.1c.571 0 .88-.013 1.154-.062-.025.31-.037.62-.037 1.376V5c.008.694.02 1.124.037 1.29a8.883 8.883 0 0 0-.918-.037h-1.252l-.002.001Zm-7.85 3.46a11.24 11.24 0 0 0-.558-2.43l.992-.31c.298.93.447 1.512.571 2.393l-1.004.347Zm1.054-6.275h1.947c.199 0 .285 0 .421-.012-.607-.608-.942-1.03-1.351-1.724-.397.744-.695 1.166-1.228 1.736h.21Zm1.488 6.35c.583-.136.806-.186 1.513-.397l.025.992c.248-.037.335-.049.545-.099V2.781c-.384.471-.52.669-.732 1.079l-.16-.149v.831a7.135 7.135 0 0 0-.77-.037h-.42v.893h.632c.47 0 .756-.012 1.029-.05v1.253c-.31-.05-.558-.061-1.03-.061h-.632v3.249-.001Zm.186-.819c.272-.67.421-1.19.57-2.021l.918.323c-.211.868-.347 1.29-.645 1.984l-.843-.285Zm3.162-5.94h2.84v-.917h-2.84v.917Zm0 2.059h2.84V4.17h-2.84v.918Zm0 1.165v3.758a21.75 21.75 0 0 0 1.848-.546c-.596-1.017-.856-1.785-1.092-3.212h-.756ZM29.652 8.026c0-.52 0-.595.024-1.438a6.12 6.12 0 0 1-1.128 1.054 5.7 5.7 0 0 0-.62-1.327c1.302-.844 2.58-2.208 3.05-3.274l1.166.769a4.348 4.348 0 0 0-.41.545c-.284.41-.396.57-.719.968v4.886c0 .657.025 1.153.087 1.562h-1.537c.061-.385.087-.93.087-1.575v-2.17Zm2.306-6.932c-.09.1-.215.24-.372.422-.806.967-1.686 1.736-2.852 2.48a5.638 5.638 0 0 0-.782-1.165c.98-.533 1.613-1.03 2.22-1.7.273-.322.434-.557.596-.868l1.19.831Zm1.674 4.266c-.57 0-1.141.025-1.525.075V4.046c.372.05.93.075 1.525.075h4.216c.695 0 1.191-.025 1.513-.075v1.389c-.409-.05-.93-.075-1.476-.075h-.533v4.936c0 1.067-.36 1.327-1.86 1.327-.421 0-.793-.012-1.376-.037-.075-.546-.15-.868-.36-1.389.657.087 1.302.136 1.686.136.496 0 .558-.024.558-.297V5.36H33.63ZM32.602.896c.348.049.806.074 1.452.074h3.348c.62 0 1.042-.024 1.414-.074v1.376c-.434-.05-.893-.075-1.389-.075h-3.373c-.52 0-1.041.025-1.451.075V.896ZM40.91 5.025c.323.05.521.062.993.062h.93c.322 0 .657-.012.942-.05-.037.373-.049.682-.049 1.34V8.97c.248.422.384.583.707.794.571.372 1.228.471 3.088.471 2.12 0 3.696-.087 4.973-.273-.235.67-.272.794-.372 1.464-.322.008-.781.024-1.376.05-.372.011-2.196.036-2.828.036-1.513 0-2.554-.074-3.1-.223-.77-.211-1.154-.484-1.737-1.191-.52.496-.905.819-1.438 1.19a6.307 6.307 0 0 0-.409.323l-.595-1.413c.545-.236 1.177-.67 1.785-1.228V6.303h-.681c-.323 0-.521.012-.832.063v-1.34ZM41.99.511c.917.82 1.116 1.03 2.145 2.233l-1.029 1.004c-.757-1.004-1.19-1.5-2.108-2.32l.992-.917Zm3.77 3.05c-.422 0-.757.025-1.116.062V2.31c.347.037.719.062 1.128.062h.484c-.26-.657-.434-.98-.88-1.6l1.19-.558c.372.52.645 1.005.918 1.625l-1.08.533h1.997c.447-.732.756-1.401 1.005-2.145l1.339.446c-.1.174-.244.447-.434.82-.173.322-.31.57-.496.88h.72c.447 0 .744-.013 1.091-.062v1.314a12.822 12.822 0 0 0-1.19-.062h-1.773c0 .682-.012.956-.062 1.414h2.357c.459 0 .78-.012 1.116-.062v1.34a13.186 13.186 0 0 0-1.228-.062h-2.01c.274.484.596.868 1.042 1.228.62.496 1.154.756 2.282 1.104-.31.447-.496.831-.62 1.314-1.153-.409-1.662-.695-2.344-1.29A5.146 5.146 0 0 1 48.03 7.16c-.31.644-.62 1.053-1.14 1.5-.546.484-.992.769-1.798 1.141a3.35 3.35 0 0 0-.868-1.178c.88-.335 1.388-.608 1.81-.98.434-.372.756-.855.98-1.45h-1.687c-.409 0-.818.024-1.153.06V4.915c.348.037.732.062 1.153.062h1.948c.049-.434.049-.57.061-1.414H45.76ZM57.503 4.914c-.496 0-.856.012-1.215.061V4.38c-.707.421-1.204.682-2.022 1.017-.297-.658-.384-.82-.72-1.278 2.307-.805 4.167-2.145 5.06-3.633h1.538c.496.732 1.029 1.265 1.91 1.91 1.016.768 1.947 1.24 3.285 1.673-.297.46-.483.856-.669 1.365-.98-.41-1.389-.608-2.17-1.092v.632c-.36-.049-.695-.061-1.215-.061H60.02v1.203h3.137c.645 0 1.03-.025 1.352-.075v1.377a9.863 9.863 0 0 0-1.364-.075H60.02v2.778h3.373c.632 0 1.054-.025 1.463-.075v1.426c-.459-.062-.98-.087-1.488-.087H55.53c-.57 0-1.016.025-1.537.087v-1.426c.447.05.905.075 1.537.075h3.113V7.343h-2.938c-.534 0-.968.025-1.34.075V6.04c.335.05.732.075 1.352.075h2.926V4.913h-1.14Zm-.88 2.542c.421.744.657 1.215.992 2.058l-1.24.496a9.033 9.033 0 0 0-.98-2.058l1.228-.496Zm.843-3.709 3.845.013c.074 0 .173-.004.297-.013-.98-.694-1.587-1.264-2.232-2.083-.633.843-1.141 1.34-2.17 2.083h.26Zm5.928 4.217c-.108.19-.314.587-.62 1.19-.038.076-.087.162-.509.881L61.1 9.602c.384-.62.681-1.278.98-2.133l1.314.496v-.001Z"/></g><defs><clipPath id="a"><path fill="#fff" transform="translate(.207)" d="M0 0h65.134v12H0z"/></clipPath></defs></svg>