<svg width="13" height="12" viewBox="0 0 13 12" fill="none" xmlns="http://www.w3.org/2000/svg"><path fill-rule="evenodd" clip-rule="evenodd" d="M12.58 6a6 6 0 1 1-12 0 6 6 0 0 1 12 0ZM8.023 3.77c.835.287 1.446.717 1.326 1.515-.087.585-.413.868-.845.967.593.308.795.891.607 1.597-.356 1.016-1.204 1.102-2.332.89L6.504 9.83l-.66-.164.27-1.077a27.829 27.829 0 0 1-.528-.136l-.27 1.082-.661-.164.273-1.094-1.331-.335.328-.754s.488.129.481.12c.187.045.27-.076.303-.157l.742-2.964c.008-.14-.04-.316-.308-.383.01-.007-.48-.119-.48-.119l.176-.703 1.333.329.271-1.082.661.164-.266 1.06c.178.041.357.082.53.125l.264-1.054.661.165-.27 1.082ZM6.441 5.577c.45.12 1.43.379 1.6-.302.175-.697-.777-.908-1.243-1.01a5.696 5.696 0 0 1-.138-.032l-.329 1.315.11.029Zm-.51 2.117c.539.142 1.718.453 1.906-.297.192-.768-.952-1.023-1.51-1.148-.062-.014-.117-.026-.162-.038l-.363 1.45.128.033Z" fill="#F7931A"/></svg>