<svg width="13" height="12" viewBox="0 0 13 12" fill="none" xmlns="http://www.w3.org/2000/svg"><g clip-path="url(#a)"><path fill-rule="evenodd" clip-rule="evenodd" d="M12.129 2.858c1.362 2.556.092 6.033-2.836 7.767-2.927 1.733-6.405 1.067-7.767-1.489C.164 6.581 1.434 3.103 4.362 1.37 7.29-.364 10.767.303 12.129 2.858Zm-4.932.632c.866-.218 1.591-.206 1.816.48.166.503-.007.896-.353 1.202.659-.074 1.082.274 1.208.924.104.982-.62 1.497-1.716 1.928l.21.997-.66.222-.207-.984c-.171.058-.347.115-.528.173l.208.988-.66.221-.21-.998-1.33.443-.02-.762s.489-.157.479-.16c.187-.064.21-.203.206-.283l-.57-2.705c-.05-.114-.167-.226-.434-.136.006-.011-.48.161-.48.161l-.135-.642 1.33-.448-.208-.988.66-.222.204.968c.175-.062.352-.125.525-.183l-.202-.962.66-.221.207.987ZM6.43 5.716c.446-.148 1.418-.47 1.297-1.075-.124-.619-1.051-.275-1.505-.107l-.134.05.234 1.168.108-.036Zm.557 1.992c.533-.176 1.698-.562 1.563-1.227-.137-.68-1.248-.273-1.79-.073l-.158.057.258 1.285.127-.042Z" fill="#8FC258"/></g><defs><clipPath id="a"><path fill="#fff" transform="translate(.581)" d="M0 0h12.32v12H0z"/></clipPath></defs></svg>