<svg width="79" height="12" viewBox="0 0 79 12" fill="none" xmlns="http://www.w3.org/2000/svg"><g clip-path="url(#a)" fill="#1E75BB"><path d="M74.156 0 72.64 4.625h-8.107L66.05 0h-4.32L57.8 11.989h4.308l1.517-4.625h8.107l-1.517 4.625h4.319L78.465 0h-4.309ZM57.035 5.534a2.006 2.006 0 0 0-.753-.676 2.516 2.516 0 0 0-1.063-.233h-9.47l.532-1.664h12.426L59.693 0H45.916c-.42 0-.83.078-1.218.233a3.783 3.783 0 0 0-1.196.688c-.31.299-.687.61-.92.987-.276.366-.51.776-.675 1.208l-.377 1.132c-.1.399-.144.81-.155 1.22.067.377.155.754.31.987.189.288.454.521.753.687.322.178.687.278 1.064.3h9.469l-.532 1.597H40.002L39.027 12h13.777c.421 0 .831-.078 1.219-.233a3.979 3.979 0 0 0 1.196-.676c.31-.3.687-.61.92-.987.287-.366.508-.777.675-1.21l.376-1.13c.122-.4.177-.81.155-1.22-.077-.4-.155-.766-.31-1.01ZM40.08 1.83c-.067-.377-.156-.677-.366-.92a1.617 1.617 0 0 0-.687-.677A2.36 2.36 0 0 0 37.964 0h-10.82c-.421 0-.83.078-1.218.233a3.836 3.836 0 0 0-1.208.688c-.31.299-.675.61-.919.987a4.63 4.63 0 0 0-.675 1.208l-2.88 8.873h4.32l2.956-9.017h8.174l-.897 2.65h-5.76L28.13 8.43h5.747L32.737 12h4.252l2.946-8.961c.122-.4.166-.799.144-1.209ZM21.23 1.908a2.23 2.23 0 0 0-.3-.987 1.407 1.407 0 0 0-.752-.677 2.222 2.222 0 0 0-1.064-.233H5.337l-.985 2.961h12.481l-1.971 6.056H2.38l-.985 2.96h13.843c.413-.01.82-.089 1.207-.232.388-.222.83-.444 1.207-.754.366-.289.698-.621.986-.987.244-.366.443-.743.61-1.143l1.827-5.756c.166-.377.221-.798.155-1.208Z"/><path d="M9.269 4.625H1.926L.94 7.365h7.42l.909-2.74Z"/></g><defs><clipPath id="a"><path fill="#fff" transform="translate(.897)" d="M0 0h77.61v12H0z"/></clipPath></defs></svg>