<svg width="40" height="12" viewBox="0 0 40 12" fill="none" xmlns="http://www.w3.org/2000/svg">
<g clip-path="url(#clip0_178_8372)">
<path d="M10.5247 4.31787H11.1334L11.9117 7.76348L13.9828 4.31787H14.0832L14.9305 7.76348L16.9514 4.31787H17.5665L14.7611 9.01243H14.6481L13.8008 5.61076L11.7485 9.01243H11.6355L10.5247 4.31787Z" fill="#003366"/>
<path d="M22.5561 4.31791L21.759 8.85556H21.1879L21.326 8.07732C20.6983 8.69866 20.0331 9.00619 19.3427 9.00619C18.7025 9.00619 18.1942 8.7677 17.8239 8.29071C17.4473 7.81372 17.3218 7.24887 17.4347 6.5836C17.5477 5.9246 17.8804 5.36602 18.4264 4.89531C18.9724 4.4246 19.5686 4.19238 20.2088 4.19238C20.9494 4.19238 21.4954 4.50619 21.8469 5.14008L21.9912 4.31163H22.5561V4.31791ZM21.6147 6.6087C21.7025 6.08778 21.6084 5.65473 21.326 5.29699C21.0435 4.93924 20.6481 4.76351 20.146 4.76351C19.6377 4.76351 19.1795 4.94552 18.7653 5.31581C18.3511 5.67983 18.1063 6.11288 18.0184 6.6087C17.9306 7.11707 18.031 7.5564 18.3134 7.92042C18.6021 8.28443 18.9912 8.47272 19.4933 8.47272C19.9829 8.47272 20.4347 8.29699 20.8552 7.94552C21.2632 7.58778 21.5205 7.14217 21.6147 6.6087Z" fill="#003366"/>
<path d="M23.8865 2.56689H24.4702L23.3593 8.8556H22.7756L23.8865 2.56689Z" fill="#003366"/>
<path d="M25.3804 2.56689H25.9641L24.8532 8.8556H24.2695L25.3804 2.56689Z" fill="#003366"/>
<path d="M29.9367 7.38701L30.3886 7.64434C29.7359 8.55438 28.9326 9.01254 27.9723 9.01254C27.2882 9.01254 26.7673 8.78032 26.4033 8.30961C26.0393 7.8389 25.92 7.27404 26.033 6.62132C26.1522 5.95605 26.4723 5.38492 27.0058 4.90794C27.5393 4.43722 28.1292 4.19873 28.7882 4.19873C29.4472 4.19873 29.9681 4.4184 30.3384 4.85773C30.7087 5.29706 30.8342 5.89329 30.7213 6.65271H26.6355C26.5539 7.19873 26.648 7.63806 26.9179 7.97697C27.1878 8.30961 27.5581 8.47907 28.0225 8.47907C28.7882 8.47279 29.4284 8.10877 29.9367 7.38701ZM30.1564 6.14434C30.1501 5.71128 30.0121 5.37237 29.7359 5.1276C29.4598 4.88283 29.1146 4.75731 28.7003 4.75731C27.8468 4.75731 27.2066 5.22174 26.7798 6.14434H30.1564Z" fill="#003366"/>
<path d="M32.8237 2.56689H33.4137L33.1062 4.31794H34.0288L33.9409 4.81376H33.0183L32.3028 8.8556H31.7129L32.4283 4.80748H31.625L31.7129 4.31166H32.5162L32.8237 2.56689Z" fill="#003366"/>
<path d="M35.485 8.08991C35.485 8.51669 35.1398 8.8556 34.7193 8.8556C34.2925 8.8556 33.9536 8.51041 33.9536 8.08991C33.9536 7.66313 34.2988 7.32422 34.7193 7.32422C35.1398 7.32422 35.485 7.66313 35.485 8.08991Z" fill="#003366"/>
<path d="M38.0582 8.08991C38.0582 8.51669 37.713 8.8556 37.2925 8.8556C36.8658 8.8556 36.5269 8.51041 36.5269 8.08991C36.5269 7.66313 36.872 7.32422 37.2925 7.32422C37.713 7.32422 38.0582 7.66313 38.0582 8.08991Z" fill="#003366"/>
<path fill-rule="evenodd" clip-rule="evenodd" d="M5.86162 1.70692C5.78003 2.48516 6.41392 2.86173 6.98505 2.88684C8.23401 2.94332 9.19426 1.55002 8.54154 0.313617C7.53735 -0.175923 5.95576 0.87847 5.86162 1.70692Z" fill="#003366"/>
<path fill-rule="evenodd" clip-rule="evenodd" d="M7.41802 8.40337C6.81551 8.94311 6.0812 9.48914 5.22137 9.68998C4.41802 9.87826 3.53309 9.75901 3.4515 9.10002C3.30715 7.91383 5.39083 7.3678 6.39501 6.31341C7.61259 5.03935 6.94731 2.69835 4.78832 2.93684C3.70882 3.06236 2.72974 3.80922 2.16489 4.44312C2.13978 4.46822 1.83853 4.68161 2.05819 4.7632C2.41593 5.07073 2.64187 4.6063 2.91802 4.44312C3.25694 4.24228 3.57702 4.11048 3.99125 4.27994C4.04773 5.28412 3.35736 6.07491 2.76112 6.85316C2.13978 7.65023 1.3992 8.24646 1.09794 9.1565C0.702543 10.3615 1.38037 11.2088 2.43476 11.3532C3.8469 11.5477 4.94522 10.9578 5.91802 10.2799C6.33853 9.99123 6.84062 9.66487 7.25485 9.31341C7.63769 8.99332 8.30296 8.55399 8.00798 7.97659C7.76321 7.98914 7.61259 8.23391 7.41802 8.40337Z" fill="#003366"/>
<path fill-rule="evenodd" clip-rule="evenodd" d="M8.54157 0.31978C9.19429 1.55618 8.24031 2.94949 6.98508 2.893C6.41395 2.8679 5.77379 2.49133 5.86165 1.71309C5.9558 0.878357 7.53739 -0.176036 8.54157 0.31978Z" fill="#003366"/>
<path d="M10.7004 11.3535L11.0268 9.80957H12.144L12.1063 9.99158H11.1963L11.0958 10.4623H11.9494L11.9117 10.6443H11.0519L10.9389 11.1715H11.8866L11.849 11.3535H10.7004Z" fill="#003366"/>
<path d="M12.1313 10.889L12.169 10.7007H12.7527L12.715 10.889H12.1313Z" fill="#003366"/>
<path d="M13.6376 10.9453L13.8196 10.9704C13.7694 11.0959 13.7004 11.1964 13.6 11.2717C13.4995 11.347 13.3928 11.3784 13.2673 11.3784C13.1167 11.3784 13.0037 11.3282 12.9284 11.2277C12.8594 11.1273 12.8405 10.983 12.8782 10.801C12.9033 10.6817 12.9472 10.575 13.0037 10.4872C13.0602 10.3993 13.1355 10.3303 13.2297 10.2863C13.3238 10.2424 13.4117 10.2173 13.5121 10.2173C13.6313 10.2173 13.7255 10.2487 13.7882 10.3114C13.851 10.3742 13.8824 10.4621 13.8824 10.575L13.6941 10.6064C13.6941 10.5311 13.6753 10.4746 13.6376 10.437C13.6 10.3993 13.5497 10.3805 13.487 10.3805C13.3928 10.3805 13.305 10.4118 13.2359 10.4809C13.1606 10.5499 13.1104 10.6566 13.079 10.8072C13.0477 10.9579 13.0539 11.0646 13.0979 11.1336C13.1418 11.2026 13.2108 11.234 13.2987 11.234C13.374 11.234 13.4368 11.2089 13.4995 11.165C13.556 11.1085 13.6062 11.0395 13.6376 10.9453Z" fill="#003366"/>
<path d="M13.9453 10.7946C13.9893 10.5875 14.0771 10.4369 14.2152 10.3365C14.3282 10.2549 14.4537 10.2109 14.5918 10.2109C14.7424 10.2109 14.8617 10.2611 14.937 10.3616C15.0123 10.462 15.0311 10.6001 14.9935 10.7758C14.9621 10.9201 14.9181 11.0331 14.8554 11.1147C14.7926 11.1963 14.7173 11.2591 14.6294 11.3093C14.5353 11.3532 14.4412 11.3783 14.347 11.3783C14.1901 11.3783 14.0771 11.3281 14.0018 11.2277C13.9265 11.1273 13.9077 10.9829 13.9453 10.7946ZM14.1399 10.7946C14.1085 10.939 14.1148 11.0457 14.165 11.1147C14.2152 11.1837 14.2843 11.2214 14.3784 11.2214C14.4725 11.2214 14.5604 11.1837 14.6357 11.1147C14.711 11.0457 14.7675 10.9327 14.7989 10.7883C14.8303 10.6503 14.8177 10.5436 14.7738 10.4745C14.7236 10.4055 14.6545 10.3678 14.5604 10.3678C14.4663 10.3678 14.3784 10.4055 14.3031 10.4745C14.2278 10.5436 14.1713 10.6503 14.1399 10.7946Z" fill="#003366"/>
<path d="M15.0938 11.3532L15.3322 10.236H15.5017L15.4703 10.3929C15.5143 10.3365 15.5707 10.2925 15.6398 10.2611C15.7025 10.2298 15.7716 10.2109 15.8469 10.2109C15.9285 10.2109 15.9912 10.2298 16.0414 10.2611C16.0854 10.2925 16.1168 10.3427 16.123 10.4055C16.236 10.2737 16.3678 10.2109 16.5122 10.2109C16.6251 10.2109 16.7004 10.2423 16.7507 10.3051C16.7946 10.3678 16.8071 10.462 16.782 10.5875L16.6189 11.3532H16.4306L16.5812 10.6503C16.6 10.575 16.6 10.5185 16.6 10.4871C16.5938 10.4557 16.5812 10.4243 16.5498 10.4055C16.5247 10.3867 16.4871 10.3741 16.4431 10.3741C16.3678 10.3741 16.2925 10.3992 16.2297 10.4494C16.167 10.4996 16.123 10.5875 16.0979 10.7005L15.9599 11.3469H15.7716L15.9285 10.6189C15.9473 10.5373 15.9473 10.4745 15.9222 10.4306C15.9034 10.3867 15.8532 10.3678 15.7841 10.3678C15.7339 10.3678 15.6774 10.3804 15.6272 10.4118C15.577 10.4369 15.5331 10.4808 15.5017 10.5373C15.4703 10.5938 15.4452 10.6691 15.4201 10.7695L15.2946 11.3469H15.0938V11.3532Z" fill="#003366"/>
<path d="M16.8887 11.3532L17.1272 10.236H17.2966L17.2652 10.3929C17.3092 10.3365 17.3657 10.2925 17.4347 10.2611C17.4975 10.2298 17.5665 10.2109 17.6418 10.2109C17.7234 10.2109 17.7862 10.2298 17.8364 10.2611C17.8803 10.2925 17.9117 10.3427 17.918 10.4055C18.0309 10.2737 18.1627 10.2109 18.3071 10.2109C18.4201 10.2109 18.4954 10.2423 18.5456 10.3051C18.5895 10.3678 18.6021 10.462 18.577 10.5875L18.4138 11.3532H18.2255L18.3761 10.6503C18.3949 10.575 18.3949 10.5185 18.3949 10.4871C18.3887 10.4557 18.3761 10.4243 18.3447 10.4055C18.3196 10.3867 18.282 10.3741 18.238 10.3741C18.1627 10.3741 18.0874 10.3992 18.0247 10.4494C17.9619 10.4996 17.918 10.5875 17.8929 10.7005L17.7548 11.3469H17.5665L17.7234 10.6189C17.7422 10.5373 17.7422 10.4745 17.7171 10.4306C17.6983 10.3867 17.6481 10.3678 17.579 10.3678C17.5288 10.3678 17.4724 10.3804 17.4221 10.4118C17.3719 10.4369 17.328 10.4808 17.2966 10.5373C17.2652 10.5938 17.2401 10.6691 17.215 10.7695L17.0895 11.3469H16.8887V11.3532Z" fill="#003366"/>
<path d="M19.5247 10.9955L19.713 11.0206C19.6565 11.1335 19.5812 11.2214 19.4871 11.2842C19.3929 11.3469 19.2799 11.3783 19.1481 11.3783C18.985 11.3783 18.8657 11.3281 18.7904 11.2277C18.7151 11.1273 18.6963 10.9892 18.7339 10.8072C18.7716 10.6189 18.8532 10.4745 18.9724 10.3678C19.0917 10.2611 19.2297 10.2109 19.3804 10.2109C19.531 10.2109 19.6377 10.2611 19.713 10.3616C19.7883 10.462 19.8009 10.6063 19.7632 10.7883C19.7632 10.8009 19.7569 10.8134 19.7507 10.8386H18.9159C18.8971 10.9641 18.9096 11.0582 18.9599 11.121C19.0101 11.1837 19.0791 11.2214 19.1732 11.2214C19.2423 11.2214 19.305 11.2026 19.3615 11.1649C19.4243 11.1335 19.4745 11.0708 19.5247 10.9955ZM18.9661 10.6879H19.5875C19.6 10.5938 19.5875 10.5247 19.5624 10.4745C19.5184 10.3992 19.4494 10.3678 19.349 10.3678C19.2611 10.3678 19.1858 10.3992 19.1105 10.4557C19.0414 10.5122 18.9912 10.5875 18.9661 10.6879Z" fill="#003366"/>
<path d="M19.8762 11.3532L20.1147 10.236H20.2842L20.2465 10.4055C20.3093 10.3239 20.3595 10.2737 20.4034 10.2486C20.4474 10.2235 20.4913 10.2109 20.5352 10.2109C20.598 10.2109 20.6607 10.2298 20.7172 10.2737L20.6168 10.4494C20.5791 10.4243 20.5352 10.4055 20.485 10.4055C20.4411 10.4055 20.4034 10.4181 20.3658 10.4432C20.3281 10.4683 20.2967 10.4996 20.2716 10.5499C20.234 10.6189 20.2089 10.6879 20.19 10.7695L20.0645 11.3532H19.8762Z" fill="#003366"/>
<path d="M21.4137 10.9453L21.5957 10.9704C21.5455 11.0959 21.4765 11.1964 21.3761 11.2717C21.2757 11.347 21.169 11.3784 21.0434 11.3784C20.8928 11.3784 20.7798 11.3282 20.7045 11.2277C20.6355 11.1273 20.6167 10.983 20.6543 10.801C20.6794 10.6817 20.7234 10.575 20.7798 10.4872C20.8363 10.3993 20.9116 10.3303 21.0058 10.2863C21.0999 10.2424 21.1878 10.2173 21.2882 10.2173C21.4075 10.2173 21.5016 10.2487 21.5644 10.3114C21.6271 10.3742 21.6585 10.4621 21.6585 10.575L21.4702 10.6064C21.4702 10.5311 21.4514 10.4746 21.4137 10.437C21.3761 10.3993 21.3259 10.3805 21.2631 10.3805C21.169 10.3805 21.0811 10.4118 21.0121 10.4809C20.9367 10.5499 20.8865 10.6566 20.8552 10.8072C20.8238 10.9579 20.8301 11.0646 20.874 11.1336C20.9179 11.2026 20.987 11.234 21.0748 11.234C21.1501 11.234 21.2192 11.2089 21.2757 11.165C21.3321 11.1085 21.3761 11.0395 21.4137 10.9453Z" fill="#003366"/>
<path d="M22.5123 10.9955L22.7005 11.0206C22.6441 11.1335 22.5687 11.2214 22.4746 11.2842C22.3805 11.3469 22.2675 11.3783 22.1357 11.3783C21.9725 11.3783 21.8533 11.3281 21.778 11.2277C21.7026 11.1273 21.6838 10.9892 21.7215 10.8072C21.7591 10.6189 21.8407 10.4745 21.96 10.3678C22.0792 10.2611 22.2173 10.2109 22.3679 10.2109C22.5185 10.2109 22.6252 10.2611 22.7005 10.3616C22.7759 10.462 22.7884 10.6063 22.7508 10.7883C22.7508 10.8009 22.7445 10.8134 22.7382 10.8386H21.9035C21.8846 10.9641 21.8972 11.0582 21.9474 11.121C21.9976 11.1837 22.0667 11.2214 22.1608 11.2214C22.2298 11.2214 22.2926 11.2026 22.3491 11.1649C22.4181 11.1335 22.4683 11.0708 22.5123 10.9955ZM21.96 10.6879H22.5813C22.5939 10.5938 22.5813 10.5247 22.5562 10.4745C22.5123 10.3992 22.4432 10.3678 22.3428 10.3678C22.2549 10.3678 22.1796 10.3992 22.1043 10.4557C22.0353 10.5122 21.9851 10.5875 21.96 10.6879Z" fill="#003366"/>
<path d="M23.5288 10.8573L23.7234 10.8385C23.7171 10.9138 23.7234 10.9766 23.7485 11.0268C23.7736 11.077 23.8175 11.1147 23.8803 11.146C23.943 11.1774 24.0183 11.19 24.1062 11.19C24.1815 11.19 24.2568 11.1774 24.3196 11.1523C24.3824 11.1272 24.4326 11.0958 24.4702 11.0582C24.5079 11.0205 24.533 10.9766 24.5393 10.9264C24.5518 10.8762 24.5455 10.8385 24.5267 10.8008C24.5079 10.7632 24.464 10.7318 24.4075 10.713C24.3698 10.6941 24.2819 10.669 24.1501 10.6377C24.0183 10.6063 23.9242 10.5686 23.874 10.5435C23.8112 10.5059 23.761 10.4557 23.7422 10.3992C23.7171 10.3427 23.7108 10.2799 23.7296 10.2046C23.7485 10.1293 23.7861 10.054 23.8426 9.98495C23.8991 9.91591 23.9744 9.8657 24.0686 9.82804C24.1627 9.79038 24.2568 9.77783 24.3635 9.77783C24.4765 9.77783 24.5769 9.79666 24.6522 9.83432C24.7338 9.87197 24.7903 9.92218 24.8217 9.9975C24.8531 10.0665 24.8594 10.1481 24.8468 10.2423L24.646 10.2548C24.6585 10.1544 24.6334 10.0854 24.5832 10.0352C24.533 9.98494 24.4514 9.95984 24.3322 9.95984C24.2066 9.95984 24.1125 9.98495 24.0497 10.0289C23.9807 10.0728 23.943 10.1293 23.9305 10.1921C23.9179 10.2485 23.9305 10.2925 23.9619 10.3301C23.9932 10.3678 24.0874 10.4054 24.2443 10.4431C24.4012 10.4808 24.5079 10.5121 24.5644 10.5435C24.646 10.5875 24.7024 10.6377 24.7276 10.7004C24.7589 10.7632 24.7652 10.8385 24.7464 10.9201C24.7276 11.0017 24.6899 11.077 24.6271 11.1523C24.5644 11.2276 24.4828 11.2841 24.3886 11.3218C24.2945 11.3594 24.1878 11.3845 24.0811 11.3845C23.943 11.3845 23.8301 11.3657 23.7422 11.3218C23.6543 11.2841 23.5978 11.2213 23.5602 11.1398C23.5163 11.0519 23.51 10.9577 23.5288 10.8573Z" fill="#003366"/>
<path d="M24.803 11.7803L24.8218 11.6046C24.8595 11.6172 24.8971 11.6234 24.9285 11.6234C24.9724 11.6234 25.0038 11.6172 25.0352 11.6046C25.0666 11.592 25.0854 11.5732 25.1105 11.5481C25.1293 11.5293 25.1544 11.4854 25.1984 11.41C25.2047 11.3975 25.2109 11.3849 25.2235 11.3661L25.0352 10.249H25.236L25.3302 10.8954C25.3427 10.977 25.349 11.0649 25.3553 11.1527C25.3929 11.0649 25.4369 10.9833 25.4871 10.8954L25.8636 10.2427H26.0519L25.3867 11.3787C25.3176 11.5042 25.2611 11.5858 25.2298 11.6297C25.1858 11.6925 25.1356 11.7364 25.0854 11.7678C25.0352 11.7992 24.9787 11.8117 24.9222 11.8117C24.8846 11.8054 24.8469 11.7992 24.803 11.7803Z" fill="#003366"/>
<path d="M25.9766 11.0206L26.1712 10.9892C26.1649 11.0645 26.1837 11.121 26.2214 11.1586C26.2591 11.1963 26.3218 11.2214 26.4097 11.2214C26.4975 11.2214 26.5666 11.2026 26.6168 11.1712C26.667 11.1335 26.6984 11.0959 26.7047 11.0457C26.7109 11.0017 26.7047 10.9704 26.6733 10.9452C26.6482 10.9264 26.5917 10.9076 26.4913 10.8825C26.3595 10.8448 26.2716 10.8197 26.2214 10.7946C26.1712 10.7695 26.1398 10.7319 26.121 10.6879C26.1021 10.644 26.1021 10.5938 26.1084 10.5373C26.121 10.4871 26.1398 10.4432 26.1712 10.3992C26.2026 10.3553 26.2402 10.3239 26.2842 10.2925C26.3155 10.2737 26.3595 10.2549 26.416 10.236C26.4724 10.2235 26.5289 10.2109 26.5854 10.2109C26.6733 10.2109 26.7486 10.2235 26.8051 10.2486C26.8678 10.2737 26.9055 10.3051 26.9306 10.349C26.9557 10.3929 26.962 10.4494 26.962 10.5247L26.7737 10.5499C26.78 10.4934 26.7611 10.4494 26.7298 10.4181C26.6984 10.3867 26.6419 10.3678 26.5666 10.3678C26.4787 10.3678 26.416 10.3804 26.372 10.4118C26.3281 10.4432 26.303 10.4745 26.2967 10.5122C26.2904 10.5373 26.2967 10.5561 26.303 10.5812C26.3155 10.6001 26.3344 10.6189 26.3657 10.6314C26.3846 10.6377 26.4348 10.6565 26.5226 10.6816C26.6482 10.7193 26.736 10.7444 26.7862 10.7695C26.8365 10.7946 26.8678 10.826 26.8867 10.8699C26.9055 10.9139 26.9118 10.9704 26.8992 11.0331C26.8867 11.0959 26.8553 11.1586 26.8051 11.2088C26.7549 11.2653 26.6921 11.3093 26.6168 11.3406C26.5415 11.372 26.4599 11.3846 26.372 11.3846C26.2277 11.3846 26.121 11.3532 26.0582 11.2967C26.0017 11.2277 25.9703 11.1398 25.9766 11.0206Z" fill="#003366"/>
<path d="M27.5079 11.1841L27.5016 11.3535C27.4451 11.3661 27.3949 11.3723 27.3573 11.3723C27.2882 11.3723 27.238 11.3598 27.2066 11.341C27.1752 11.3221 27.1501 11.2908 27.1439 11.2531C27.1376 11.2154 27.1439 11.1464 27.169 11.0272L27.307 10.387H27.169L27.2004 10.2426H27.3384L27.3949 9.96649L27.6083 9.85352L27.5267 10.2426H27.715L27.6836 10.387H27.4953L27.3573 11.0397C27.3447 11.0962 27.3447 11.1276 27.3447 11.1464C27.351 11.159 27.3573 11.1715 27.3698 11.1841C27.3824 11.1903 27.4012 11.1966 27.4326 11.1966C27.4388 11.1903 27.4702 11.1903 27.5079 11.1841Z" fill="#003366"/>
<path d="M28.4932 10.9955L28.6815 11.0206C28.625 11.1335 28.5497 11.2214 28.4556 11.2842C28.3614 11.3469 28.2484 11.3783 28.1166 11.3783C27.9535 11.3783 27.8342 11.3281 27.7589 11.2277C27.6836 11.1273 27.6648 10.9892 27.7024 10.8072C27.7401 10.6189 27.8217 10.4745 27.9409 10.3678C28.0602 10.2611 28.1982 10.2109 28.3489 10.2109C28.4995 10.2109 28.6062 10.2611 28.6815 10.3616C28.7568 10.462 28.7694 10.6063 28.7317 10.7883C28.7317 10.8009 28.7254 10.8134 28.7192 10.8386H27.8844C27.8656 10.9641 27.8782 11.0582 27.9284 11.121C27.9786 11.1837 28.0476 11.2214 28.1418 11.2214C28.2108 11.2214 28.2736 11.2026 28.33 11.1649C28.3991 11.1335 28.4493 11.0708 28.4932 10.9955ZM27.9409 10.6879H28.5623C28.5748 10.5938 28.5623 10.5247 28.5372 10.4745C28.4932 10.3992 28.4242 10.3678 28.3238 10.3678C28.2359 10.3678 28.1606 10.3992 28.0853 10.4557C28.0162 10.5122 27.966 10.5875 27.9409 10.6879Z" fill="#003366"/>
<path d="M28.8511 11.3532L29.0896 10.236H29.259L29.2276 10.3929C29.2716 10.3365 29.3281 10.2925 29.3971 10.2611C29.4599 10.2298 29.5352 10.2109 29.6042 10.2109C29.6858 10.2109 29.7486 10.2298 29.7988 10.2611C29.8427 10.2925 29.8741 10.3427 29.8804 10.4055C29.9933 10.2737 30.1251 10.2109 30.2695 10.2109C30.3825 10.2109 30.4578 10.2423 30.508 10.3051C30.5519 10.3678 30.5645 10.462 30.5394 10.5875L30.3762 11.3532H30.1879L30.3385 10.6503C30.3573 10.575 30.3574 10.5185 30.3574 10.4871C30.3511 10.4557 30.3385 10.4243 30.3071 10.4055C30.282 10.3867 30.2444 10.3741 30.2004 10.3741C30.1251 10.3741 30.0498 10.3992 29.9871 10.4494C29.9243 10.4996 29.8804 10.5875 29.8553 10.7005L29.7172 11.3469H29.5289L29.6858 10.6189C29.7046 10.5373 29.7046 10.4745 29.6795 10.4306C29.6544 10.3867 29.6105 10.3678 29.5415 10.3678C29.4912 10.3678 29.4348 10.3804 29.3845 10.4118C29.3343 10.4369 29.2904 10.4808 29.259 10.5373C29.2276 10.5938 29.2025 10.6691 29.1774 10.7695L29.0519 11.3469H28.8511V11.3532Z" fill="#003366"/>
<path d="M31.123 10.8827L31.3176 10.8639C31.3113 10.9392 31.3176 11.002 31.3427 11.0522C31.3678 11.1024 31.4117 11.14 31.4745 11.1714C31.5373 11.2028 31.6126 11.2154 31.7005 11.2154C31.7758 11.2154 31.8511 11.2028 31.9138 11.1777C31.9766 11.1526 32.0268 11.1212 32.0645 11.0836C32.1021 11.0459 32.1272 11.002 32.1335 10.9518C32.1461 10.9015 32.1398 10.8639 32.121 10.8262C32.1021 10.7886 32.0582 10.7572 32.0017 10.7384C31.964 10.7195 31.8762 10.6944 31.7444 10.6631C31.6126 10.6317 31.5184 10.594 31.4682 10.5689C31.4055 10.5313 31.3553 10.481 31.3364 10.4246C31.3113 10.3681 31.3051 10.3053 31.3239 10.23C31.3427 10.1547 31.3804 10.0794 31.4369 10.0103C31.4933 9.9413 31.5687 9.89109 31.6628 9.85343C31.7569 9.81578 31.8511 9.80322 31.9578 9.80322C32.0707 9.80322 32.1712 9.82205 32.2465 9.85971C32.3281 9.89737 32.3783 9.94757 32.4159 10.0229C32.4473 10.0919 32.4536 10.1735 32.441 10.2677L32.2402 10.2802C32.2528 10.1798 32.2276 10.1108 32.1774 10.0605C32.1272 10.0103 32.0456 9.98523 31.9264 9.98523C31.8009 9.98523 31.7067 10.0103 31.644 10.0543C31.5749 10.0982 31.5373 10.1547 31.5247 10.2174C31.5122 10.2739 31.5247 10.3179 31.5561 10.3555C31.5875 10.3932 31.6816 10.4308 31.8385 10.4685C31.9954 10.5062 32.1021 10.5375 32.1586 10.5689C32.2402 10.6128 32.2967 10.6631 32.3218 10.7258C32.3532 10.7886 32.3594 10.8639 32.3406 10.9455C32.3218 11.0271 32.2841 11.1024 32.2214 11.1777C32.1586 11.253 32.077 11.3095 31.9829 11.3472C31.8887 11.3848 31.782 11.4099 31.6753 11.4099C31.5373 11.4099 31.4243 11.3911 31.3364 11.3472C31.2486 11.3095 31.1921 11.2467 31.1544 11.1651C31.1105 11.0773 31.1042 10.9831 31.123 10.8827Z" fill="#003366"/>
<path d="M33.3384 11.0208L33.5267 11.046C33.4702 11.1589 33.3949 11.2468 33.3008 11.3095C33.2066 11.3723 33.0937 11.4037 32.9619 11.4037C32.7987 11.4037 32.6794 11.3535 32.6041 11.2531C32.5288 11.1526 32.51 11.0146 32.5476 10.8326C32.5853 10.6443 32.6669 10.4999 32.7861 10.3932C32.9054 10.2865 33.0435 10.2363 33.1941 10.2363C33.3447 10.2363 33.4514 10.2865 33.5267 10.387C33.602 10.4874 33.6146 10.6317 33.5769 10.8137C33.5769 10.8263 33.5707 10.8388 33.5644 10.8639H32.7296C32.7108 10.9895 32.7234 11.0836 32.7736 11.1464C32.8238 11.2091 32.8928 11.2468 32.987 11.2468C33.056 11.2468 33.1188 11.228 33.1753 11.1903C33.238 11.1589 33.2945 11.0962 33.3384 11.0208ZM32.7799 10.7133H33.4012C33.4137 10.6192 33.4012 10.5501 33.3761 10.4999C33.3322 10.4246 33.2631 10.3932 33.1627 10.3932C33.0748 10.3932 32.9995 10.4246 32.9242 10.4811C32.8552 10.5376 32.805 10.6129 32.7799 10.7133Z" fill="#003366"/>
<path d="M33.6899 11.3786L33.9284 10.2614H34.0979L34.0602 10.4309C34.123 10.3493 34.1732 10.2991 34.2171 10.274C34.2611 10.2489 34.305 10.2363 34.3489 10.2363C34.4117 10.2363 34.4745 10.2552 34.5309 10.2991L34.4305 10.4748C34.3929 10.4497 34.3489 10.4309 34.2987 10.4309C34.2548 10.4309 34.2171 10.4434 34.1795 10.4685C34.1418 10.4937 34.1104 10.525 34.0853 10.5752C34.0477 10.6443 34.0226 10.7133 34.0037 10.7949L33.8782 11.3786H33.6899Z" fill="#003366"/>
<path d="M34.7193 11.3784L34.531 10.2612H34.7318L34.8323 10.9328C34.8448 11.0018 34.8511 11.0771 34.8574 11.1587C34.8887 11.1022 34.9264 11.0269 34.9703 10.9453L35.3657 10.2612H35.5603L34.9013 11.3784H34.7193Z" fill="#003366"/>
<path d="M35.4849 11.3784L35.7234 10.2613H35.9116L35.6731 11.3784H35.4849ZM35.7673 10.0541L35.8112 9.83447H35.9995L35.9556 10.0541H35.7673Z" fill="#003366"/>
<path d="M36.7778 10.9707L36.9598 10.9958C36.9095 11.1213 36.8405 11.2218 36.7401 11.2971C36.6397 11.3724 36.533 11.4038 36.4075 11.4038C36.2568 11.4038 36.1439 11.3536 36.0685 11.2531C35.9995 11.1527 35.9807 11.0084 36.0183 10.8264C36.0434 10.7071 36.0874 10.6004 36.1439 10.5126C36.2003 10.4247 36.2757 10.3556 36.3698 10.3117C36.4639 10.2678 36.5518 10.2427 36.6522 10.2427C36.7715 10.2427 36.8656 10.2741 36.9284 10.3368C36.9911 10.3996 37.0225 10.4874 37.0225 10.6004L36.8342 10.6318C36.8342 10.5565 36.8154 10.5 36.7778 10.4623C36.7401 10.4247 36.6899 10.4059 36.6271 10.4059C36.533 10.4059 36.4451 10.4372 36.3761 10.5063C36.3008 10.5753 36.2506 10.682 36.2192 10.8326C36.1878 10.9833 36.1941 11.09 36.238 11.159C36.2819 11.228 36.351 11.2594 36.4388 11.2594C36.5142 11.2594 36.5832 11.2343 36.6397 11.1904C36.7024 11.1339 36.7464 11.0649 36.7778 10.9707Z" fill="#003366"/>
<path d="M37.8824 11.0208L38.0707 11.046C38.0142 11.1589 37.9389 11.2468 37.8447 11.3095C37.7506 11.3723 37.6376 11.4037 37.5058 11.4037C37.3426 11.4037 37.2234 11.3535 37.1481 11.2531C37.0728 11.1526 37.0539 11.0146 37.0916 10.8326C37.1292 10.6443 37.2108 10.4999 37.3301 10.3932C37.4493 10.2865 37.5874 10.2363 37.738 10.2363C37.8887 10.2363 37.9953 10.2865 38.0707 10.387C38.146 10.4874 38.1585 10.6317 38.1209 10.8137C38.1209 10.8263 38.1146 10.8388 38.1083 10.8639H37.2736C37.2548 10.9895 37.2673 11.0836 37.3175 11.1464C37.3677 11.2091 37.4368 11.2468 37.5309 11.2468C37.6 11.2468 37.6627 11.228 37.7192 11.1903C37.7882 11.1589 37.8384 11.0962 37.8824 11.0208ZM37.3238 10.7133H37.9451C37.9577 10.6192 37.9451 10.5501 37.92 10.4999C37.8761 10.4246 37.8071 10.3932 37.7066 10.3932C37.6188 10.3932 37.5435 10.4246 37.4682 10.4811C37.4054 10.5376 37.3552 10.6129 37.3238 10.7133Z" fill="#003366"/>
</g>
<defs>
<clipPath id="clip0_178_8372">
<rect width="38.9121" height="12" fill="white" transform="translate(0.131348)"/>
</clipPath>
</defs>
</svg>
