<svg width="26" height="12" viewBox="0 0 26 12" fill="none" xmlns="http://www.w3.org/2000/svg"><g clip-path="url(#a)"><path d="M11.337 6.233A5.271 5.271 0 0 0 6.431.98v.504a4.768 4.768 0 0 1 4.404 4.748 4.768 4.768 0 0 1-4.404 4.748v.503a5.27 5.27 0 0 0 4.906-5.251ZM1.309 6.233a4.768 4.768 0 0 1 4.404-4.748V.982a5.27 5.27 0 0 0-4.906 5.25 5.271 5.271 0 0 0 4.906 5.252v-.503A4.768 4.768 0 0 1 1.31 6.233Z" fill="#FA1F15"/><path d="M6.071 10.798a4.57 4.57 0 0 1-4.565-4.565A4.57 4.57 0 0 1 6.07 1.668a4.57 4.57 0 0 1 4.566 4.565 4.57 4.57 0 0 1-4.566 4.565Zm0-8.915a4.355 4.355 0 0 0-4.35 4.35 4.355 4.355 0 0 0 4.35 4.35 4.355 4.355 0 0 0 4.35-4.35 4.355 4.355 0 0 0-4.35-4.35Z" fill="#FA1F15"/><path d="M4.288 4.45a2.524 2.524 0 0 0 0 3.566 2.524 2.524 0 0 0 3.566 0 2.524 2.524 0 0 0 0-3.566 2.524 2.524 0 0 0-3.566 0ZM7.5 7.66a2.022 2.022 0 0 1-2.856 0 2.022 2.022 0 0 1 0-2.856 2.022 2.022 0 0 1 2.856 0 2.022 2.022 0 0 1 0 2.856Z" fill="#D9D9D9"/><path d="m9.144 3.607-.45-.451-.732.242a3.37 3.37 0 0 0-.427-.242l-.115-.734-.616-.166-.514.578a3.434 3.434 0 0 0-.488.004l-.468-.58-.616.165-.156.756a3.377 3.377 0 0 0-.423.248l-.693-.267-.452.45.242.732a3.37 3.37 0 0 0-.242.427l-.733.116-.166.615.578.515c-.01.162-.01.325.004.487l-.58.468.164.616.756.157c.072.145.155.287.248.423l-.267.693.45.451.732-.242c.138.092.28.172.428.242l.115.733.615.167.515-.579c.163.01.326.01.488-.003l.468.58.616-.165.156-.756c.146-.071.287-.154.423-.248l.693.267.452-.45-.243-.732a3.37 3.37 0 0 0 .243-.427l.733-.116.166-.615-.578-.515c.01-.162.009-.325-.004-.488l.58-.468-.164-.616-.756-.156a3.375 3.375 0 0 0-.249-.423l.267-.693Zm-1.17 4.529A2.69 2.69 0 1 1 4.17 4.33a2.69 2.69 0 0 1 3.805 3.806Z" fill="#D9D9D9"/><path d="M11.071 5.844H7.156V1.337a5.01 5.01 0 0 0-.718-.105v5.329h4.637a5.024 5.024 0 0 0-.004-.717Z" fill="#FA1F15"/><path d="M14.299 4.67v2.015c0 .644-.16.797-.422.797-.312 0-.436-.188-.436-.703l-.678.02c0 .797.38 1.168 1.148 1.168.734 0 1.15-.351 1.15-1.356v-1.94h-.762ZM15.482 6.334h1.232v.386h-1.232v-.386ZM17.136 4.67h1.12c.914 0 1.322.332 1.322 1.15 0 .796-.408 1.133-1.252 1.133h-.415v.975h-.775V4.67Zm1.142 1.877c.387 0 .58-.178.58-.683 0-.525-.172-.708-.587-.708h-.36v1.39h.366ZM19.945 7.27c0-.426.36-.684.962-.684h.644v-.292c0-.312-.132-.44-.436-.44-.27 0-.422.114-.422.386 0 .05 0 .114.006.178h-.65a1.341 1.341 0 0 1-.014-.208c0-.495.388-.757 1.107-.757.748 0 1.128.302 1.128.866v1.609h-.72c.008-.075.028-.297.035-.456h-.007c-.069.307-.304.485-.76.485-.547 0-.873-.257-.873-.688Zm1.606-.288v-.079h-.554c-.249 0-.394.124-.394.327 0 .208.145.331.387.331.34 0 .56-.178.56-.579ZM22.79 8.878v-.426c.055.01.18.03.304.03.242 0 .353-.114.484-.554h-.194l-.94-2.445h.816l.581 1.836h.014l.519-1.836h.678l-.789 2.494c-.228.747-.456.955-1.01.955a1.89 1.89 0 0 1-.464-.054ZM17.026 9.551h.169c.1 0 .16.05.16.142 0 .088-.053.139-.151.139h-.103v.126h-.075v-.407Zm.174.228c.053 0 .085-.027.085-.083 0-.053-.033-.083-.093-.083h-.091v.166h.099ZM17.404 9.806c0-.098.063-.158.16-.158.098 0 .16.06.16.158 0 .097-.062.157-.16.157-.097 0-.16-.06-.16-.157Zm.25 0c0-.063-.034-.101-.09-.101-.056 0-.09.038-.09.101 0 .062.034.1.09.1.056 0 .09-.038.09-.1ZM17.751 9.652h.074l.062.237h.001l.073-.237h.07l.07.237h.002l.064-.237h.066l-.089.306h-.085l-.067-.224h-.001l-.069.224h-.082l-.089-.306ZM18.56 9.819h-.23c.004.059.037.09.09.09.044 0 .074-.02.077-.055h.063c-.003.068-.058.11-.142.11-.097 0-.157-.06-.157-.156 0-.1.06-.16.157-.16.087 0 .142.05.142.146v.025Zm-.063-.046c0-.046-.028-.072-.078-.072-.048 0-.078.025-.087.076h.165v-.004ZM18.62 9.652h.068l-.002.088c.015-.055.046-.092.11-.092.066 0 .102.043.102.119 0 .02-.002.044-.003.057h-.063a.425.425 0 0 0 .003-.042c0-.05-.02-.075-.061-.075-.053 0-.086.045-.086.118v.133h-.069v-.306ZM19.248 9.819h-.229c.004.059.037.09.089.09.044 0 .075-.02.078-.055h.062c-.002.068-.058.11-.142.11-.096 0-.157-.06-.157-.156 0-.1.06-.16.157-.16.087 0 .142.05.142.146v.025Zm-.062-.046c0-.046-.029-.072-.079-.072-.048 0-.078.025-.086.076h.165v-.004ZM19.299 9.804c0-.093.057-.156.148-.156.058 0 .094.022.106.058V9.53h.07v.43h-.07l.004-.075h-.001c-.012.048-.05.08-.113.08-.088 0-.144-.065-.144-.16Zm.255.005v-.015c0-.055-.038-.09-.095-.09-.056 0-.091.041-.091.1 0 .06.035.102.09.102.058 0 .096-.038.096-.097ZM19.906 9.893c0 .022 0 .05.002.065h-.07V9.53h.07v.139l-.001.053c.014-.045.056-.073.116-.073.088 0 .14.058.14.152 0 .1-.053.163-.14.163-.062 0-.104-.027-.117-.07Zm.189-.091c0-.06-.033-.098-.088-.098-.06 0-.099.039-.099.1v.016c0 .053.038.086.098.086.054 0 .088-.04.088-.104ZM20.223 10.08v-.055a.141.141 0 0 0 .039.006c.032 0 .047-.016.07-.073h-.017l-.132-.305h.08l.097.235.087-.235h.068l-.116.312c-.034.091-.064.123-.125.123a.16.16 0 0 1-.05-.008Z" fill="#000"/><path d="M20.696 9.753c0-.13.093-.208.211-.208.12 0 .212.078.212.208 0 .132-.093.211-.212.211a.202.202 0 0 1-.21-.211Zm.348 0c0-.091-.061-.146-.137-.146-.075 0-.135.055-.135.146 0 .093.06.15.135.15.076 0 .137-.057.137-.15ZM21.179 9.652h.069l-.003.088h.001c.014-.055.046-.092.11-.092.065 0 .102.043.102.119a.66.66 0 0 1-.003.057h-.063a.425.425 0 0 0 .002-.042c0-.05-.02-.075-.06-.075-.053 0-.086.045-.086.118v.133h-.07v-.306ZM21.52 9.548h.07v.069h-.07v-.069Zm0 .104h.07v.306h-.07v-.306ZM21.952 9.819h-.229c.004.059.037.09.089.09.044 0 .075-.02.078-.055h.062c-.002.068-.058.11-.142.11-.096 0-.157-.06-.157-.156 0-.1.061-.16.158-.16.086 0 .141.05.141.146v.025Zm-.062-.046c0-.046-.029-.072-.079-.072-.047 0-.078.025-.086.076h.165v-.004ZM22.013 9.652h.069l-.002.082c.017-.055.057-.086.128-.086.077 0 .125.043.125.119v.191h-.07v-.176c0-.048-.027-.075-.082-.075-.06 0-.099.036-.099.103v.148h-.07v-.306ZM22.418 9.85v-.141h-.048v-.057h.04c.01 0 .015-.006.017-.023l.003-.046h.058v.07h.105v.056h-.105v.137c0 .04.015.06.057.06a.2.2 0 0 0 .045-.007v.056a.194.194 0 0 1-.055.007c-.084 0-.117-.045-.117-.113ZM22.63 9.87c0-.046.034-.083.115-.083h.114v-.021c0-.046-.027-.066-.08-.066-.048 0-.075.018-.075.052l.001.011h-.064a.157.157 0 0 1 0-.018c0-.061.052-.097.14-.097.093 0 .147.043.147.124v.186h-.07a.858.858 0 0 0 .004-.067c-.01.045-.047.072-.115.072-.07 0-.116-.033-.116-.093Zm.229-.035V9.83h-.107c-.04 0-.057.013-.057.037 0 .028.024.044.066.044.06 0 .098-.029.098-.076ZM22.996 9.53h.07v.428h-.07V9.53ZM23.258 9.551h.08l.092.315h.002l.09-.313h.075l.09.313h.001l.092-.315h.073l-.128.407h-.082l-.086-.3h-.002l-.09.3h-.08l-.127-.407ZM23.858 9.87c0-.046.033-.083.115-.083h.113v-.021c0-.046-.026-.066-.08-.066-.047 0-.074.018-.074.052a.1.1 0 0 0 0 .011h-.063a.136.136 0 0 1-.001-.018c0-.061.053-.097.14-.097.093 0 .148.043.148.124v.186h-.07a.91.91 0 0 0 .003-.067c-.01.045-.047.072-.114.072-.07 0-.117-.033-.117-.093Zm.228-.035V9.83h-.107c-.04 0-.057.013-.057.037 0 .028.025.044.067.044.06 0 .097-.029.097-.076ZM24.224 9.53h.069v.428h-.07V9.53ZM24.367 9.53h.07v.428h-.07V9.53ZM24.798 9.819h-.23c.005.059.037.09.09.09.044 0 .074-.02.077-.055h.063c-.002.068-.058.11-.142.11-.096 0-.157-.06-.157-.156 0-.1.06-.16.157-.16.087 0 .142.05.142.146v.025Zm-.063-.046c0-.046-.028-.072-.078-.072-.048 0-.078.025-.086.076h.164v-.004ZM24.877 9.85v-.141h-.048v-.057h.04c.01 0 .015-.006.017-.023l.003-.046h.058v.07h.105v.056h-.105v.137c0 .04.015.06.057.06a.2.2 0 0 0 .045-.007v.056a.195.195 0 0 1-.055.007c-.084 0-.117-.045-.117-.113ZM4.995 6.233v4.882c.233.054.473.093.717.113V6.233h-.717Z" fill="#FA1F15"/></g><defs><clipPath id="a"><path fill="#fff" transform="translate(.807)" d="M0 0h24.246v12H0z"/></clipPath></defs></svg>