<svg width="17" height="12" viewBox="0 0 17 12" fill="none" xmlns="http://www.w3.org/2000/svg"><g clip-path="url(#a)"><path d="M15.97 9.55a2.402 2.402 0 0 1-2.398 2.398H.523V2.45A2.402 2.402 0 0 1 2.922.052H15.97V9.55Z" fill="#fff"/><path d="M11.72 7.114h.992c.028 0 .095-.01.123-.01a.442.442 0 0 0 .35-.443.458.458 0 0 0-.35-.444c-.029-.01-.085-.01-.123-.01h-.991v.907Z" fill="url(#b)"/><path d="M12.599.854c-.944 0-1.719.765-1.719 1.719v1.784h2.427c.057 0 .123 0 .17.01.548.028.954.311.954.802 0 .387-.274.718-.784.784v.019c.557.037.982.349.982.83 0 .52-.472.86-1.095.86H10.87v3.493h2.521c.944 0 1.718-.765 1.718-1.718V.854H12.6Z" fill="url(#c)"/><path d="M13.061 5.282a.402.402 0 0 0-.349-.406c-.019 0-.066-.009-.094-.009h-.897v.83h.897c.028 0 .085 0 .094-.009a.402.402 0 0 0 .35-.406Z" fill="url(#d)"/><path d="M3.1.854c-.943 0-1.718.765-1.718 1.719v4.239c.482.236.982.387 1.483.387.595 0 .916-.359.916-.85V4.348h1.473V6.34c0 .774-.482 1.407-2.115 1.407-.992 0-1.766-.217-1.766-.217v3.616h2.52c.945 0 1.72-.765 1.72-1.719V.854H3.1Z" fill="url(#e)"/><path d="M7.85.854c-.944 0-1.718.765-1.718 1.719V4.82c.434-.368 1.19-.604 2.407-.548.652.029 1.35.208 1.35.208v.727c-.349-.18-.764-.34-1.302-.378-.926-.066-1.483.387-1.483 1.18 0 .803.557 1.256 1.483 1.18.538-.037.953-.207 1.303-.377v.727s-.69.18-1.35.208c-1.219.056-1.974-.18-2.408-.548v3.966h2.52c.945 0 1.72-.765 1.72-1.719V.854H7.85Z" fill="url(#f)"/></g><defs><linearGradient id="b" x1="10.879" y1="6.662" x2="15.122" y2="6.662" gradientUnits="userSpaceOnUse"><stop stop-color="#007940"/><stop offset=".229" stop-color="#00873F"/><stop offset=".743" stop-color="#40A737"/><stop offset="1" stop-color="#5CB531"/></linearGradient><linearGradient id="c" x1="10.879" y1="6.001" x2="15.122" y2="6.001" gradientUnits="userSpaceOnUse"><stop stop-color="#007940"/><stop offset=".229" stop-color="#00873F"/><stop offset=".743" stop-color="#40A737"/><stop offset="1" stop-color="#5CB531"/></linearGradient><linearGradient id="d" x1="10.879" y1="5.281" x2="15.122" y2="5.281" gradientUnits="userSpaceOnUse"><stop stop-color="#007940"/><stop offset=".229" stop-color="#00873F"/><stop offset=".743" stop-color="#40A737"/><stop offset="1" stop-color="#5CB531"/></linearGradient><linearGradient id="e" x1="1.38" y1="6.001" x2="5.689" y2="6.001" gradientUnits="userSpaceOnUse"><stop stop-color="#1F286F"/><stop offset=".475" stop-color="#004E94"/><stop offset=".826" stop-color="#0066B1"/><stop offset="1" stop-color="#006FBC"/></linearGradient><linearGradient id="f" x1="6.107" y1="6.001" x2="10.292" y2="6.001" gradientUnits="userSpaceOnUse"><stop stop-color="#6C2C2F"/><stop offset=".173" stop-color="#882730"/><stop offset=".573" stop-color="#BE1833"/><stop offset=".859" stop-color="#DC0436"/><stop offset="1" stop-color="#E60039"/></linearGradient><clipPath id="a"><path fill="#fff" transform="translate(.472)" d="M0 0h15.55v12H0z"/></clipPath></defs></svg>