<svg width="16" height="12" viewBox="0 0 16 12" fill="none" xmlns="http://www.w3.org/2000/svg"><g clip-path="url(#a)"><path d="M2.823 11.974v-.797c0-.304-.185-.504-.504-.504a.522.522 0 0 0-.451.226.466.466 0 0 0-.426-.226.428.428 0 0 0-.37.186v-.16H.792v1.275h.278v-.704c0-.226.12-.332.305-.332.186 0 .278.119.278.332v.704h.279v-.704c0-.226.133-.332.304-.332.186 0 .279.119.279.332v.704h.307Zm4.13-1.274H6.5v-.386h-.279v.386H5.97v.252h.252v.584c0 .292.12.464.438.464.119 0 .252-.04.345-.093l-.08-.24a.445.445 0 0 1-.24.067c-.133 0-.186-.08-.186-.212v-.57h.452V10.7h.001Zm2.362-.028c-.16 0-.266.08-.332.185v-.159h-.279v1.274h.279v-.717c0-.212.092-.333.266-.333.052 0 .119.014.173.026l.08-.266c-.055-.01-.134-.01-.187-.01Zm-3.57.133c-.133-.093-.319-.133-.519-.133-.318 0-.53.159-.53.411 0 .212.16.332.438.371l.133.014c.145.026.225.066.225.133 0 .093-.106.16-.292.16a.734.734 0 0 1-.425-.134l-.133.212c.145.107.345.16.544.16.371 0 .585-.174.585-.412 0-.226-.173-.345-.438-.385l-.133-.014c-.119-.014-.212-.04-.212-.119 0-.093.093-.145.24-.145.16 0 .319.066.399.106l.118-.225Zm7.405-.133c-.16 0-.266.08-.332.185v-.159h-.279v1.274h.279v-.717c0-.212.093-.333.266-.333.052 0 .119.014.173.026l.08-.262c-.054-.014-.133-.014-.187-.014Zm-3.557.665c0 .385.266.663.678.663.185 0 .318-.04.451-.145l-.133-.226a.532.532 0 0 1-.332.119c-.226 0-.385-.16-.385-.411 0-.24.16-.4.385-.412.119 0 .226.04.332.12l.133-.226a.66.66 0 0 0-.451-.146c-.412-.001-.678.279-.678.664Zm2.575 0V10.7h-.278v.159a.48.48 0 0 0-.4-.186c-.358 0-.636.279-.636.664s.278.663.637.663c.186 0 .319-.066.399-.186v.16h.278v-.637Zm-1.022 0c0-.226.145-.412.385-.412.226 0 .385.173.385.412 0 .225-.16.411-.385.411a.393.393 0 0 1-.385-.411Zm-3.33-.665c-.372 0-.638.266-.638.663 0 .399.266.663.651.663a.81.81 0 0 0 .518-.173l-.133-.2a.632.632 0 0 1-.371.134c-.173 0-.345-.08-.385-.305H8.4v-.107c.012-.41-.228-.675-.585-.675Zm0 .24c.172 0 .291.106.318.304H7.47c.027-.172.146-.305.345-.305Zm6.915.425v-1.142h-.279v.664a.48.48 0 0 0-.399-.186c-.359 0-.637.279-.637.664s.278.663.637.663c.186 0 .319-.066.4-.186v.16h.278v-.637Zm-1.023 0c0-.226.146-.412.386-.412.225 0 .385.173.385.412 0 .225-.16.411-.385.411-.24-.014-.386-.187-.386-.411Zm-9.318 0V10.7h-.278v.159a.48.48 0 0 0-.4-.186c-.358 0-.637.279-.637.664s.279.663.638.663c.185 0 .318-.066.399-.186v.16h.278v-.637Zm-1.035 0c0-.226.146-.412.385-.412.226 0 .385.173.385.412 0 .225-.159.411-.385.411-.24-.014-.385-.187-.385-.411Z" fill="#000"/><path d="M9.833 1.022H5.65v7.513h4.182V1.022Z" fill="#FF5A00"/><path d="M5.93 4.778c0-1.526.717-2.88 1.818-3.756A4.775 4.775 0 0 0 .022 4.778a4.775 4.775 0 0 0 7.726 3.757A4.769 4.769 0 0 1 5.93 4.778Z" fill="#EB001B"/><path d="M15.474 4.778a4.775 4.775 0 0 1-7.726 3.757 4.752 4.752 0 0 0 1.819-3.757c0-1.526-.718-2.88-1.819-3.756A4.745 4.745 0 0 1 10.694 0a4.785 4.785 0 0 1 4.78 4.778Z" fill="#F79E1B"/></g><defs><clipPath id="a"><path fill="#fff" transform="translate(.022)" d="M0 0h15.452v12H0z"/></clipPath></defs></svg>