<svg width="54" height="12" fill="none" xmlns="http://www.w3.org/2000/svg"><g clip-path="url(#a)" fill-rule="evenodd" clip-rule="evenodd"><path d="M3.886 9.716a.737.737 0 0 1-.64-.374L.155 3.95A.76.76 0 0 1 .42 2.92a.732.732 0 0 1 1.01.27l3.094 5.393a.76.76 0 0 1-.266 1.03.727.727 0 0 1-.372.102Z" fill="#F69322"/><path d="M11.669 6.783a2.513 2.513 0 0 0-.346-1.157c-.34-.605-.724-1.018-1.244-1.267-.442-.213-.936-.332-1.445-.277A3.12 3.12 0 0 0 8.94 2.95c.052-.573-.134-1.078-.477-1.68-.22-.388-.49-.683-.81-.886A2.401 2.401 0 0 0 6.605.017a3.35 3.35 0 0 0-1.184.094c-.132.034-.271.075-.413.122-.053.017-.107.037-.167.06-.246.09-.893.456-1.114.586l-1.047.666-.024.014a.846.846 0 0 0-.306 1.144c.152.27.43.422.716.422a.81.81 0 0 0 .408-.11l.018-.011 1.733-1.007a1.3 1.3 0 0 1 .503-.175c.174-.022.342-.01.505.039a1.396 1.396 0 0 1 .812.651 1.58 1.58 0 0 1 .188 1.046c-.03.166-.09.32-.18.46-.09.138-.211.253-.364.343l-1.044.634-.445.262-.287.169a.803.803 0 0 0-.287 1.086.779.779 0 0 0 1.068.291l.579-.34 1.482-.823c.153-.09.312-.138.475-.148.164-.009.324.016.48.073a1.557 1.557 0 0 1 .794.69c.093.165.15.338.174.519.023.181.014.356-.027.523a1.322 1.322 0 0 1-.622.818l-2.57 1.489-.127.074-.463.273-.9.493a.835.835 0 0 0-.33 1.12.811.811 0 0 0 .717.436c.13 0 .262-.032.385-.1l2.219-1.215 1.778-.99c.4-.233.746-.503 1.04-.812.294-.309.52-.64.675-.995.156-.354.228-.722.216-1.105ZM52.732 4.209c.304 0 .498.064.674.182.146.1.247.244.247.415a.52.52 0 0 1-.146.362.46.46 0 0 1-.326.137.73.73 0 0 1-.333-.103.797.797 0 0 0-.37-.103c-.325 0-.647.229-.647.73v1.744c0 .24-.011.335-.064.441-.07.145-.224.236-.423.236-.198 0-.351-.091-.422-.236-.052-.106-.064-.201-.064-.441V4.898c0-.255.012-.332.071-.446.071-.137.236-.228.42-.228.13 0 .235.042.31.114a.466.466 0 0 1 .146.3 1.25 1.25 0 0 1 .927-.43ZM39.894 5.438c-.105-.236-.325-.407-.654-.407-.326 0-.55.171-.651.407a1.017 1.017 0 0 0-.086.43h1.477a1.073 1.073 0 0 0-.086-.43Zm-1.391 1.107c0 .514.295.883.86.883.243 0 .483-.068.673-.213.154-.11.247-.148.363-.148.187 0 .393.186.393.414 0 .187-.157.358-.382.51-.265.183-.632.274-1.062.274-.924 0-1.803-.426-1.803-2.028 0-1.294.684-2.028 1.694-2.028 1.052 0 1.661.768 1.695 1.77.004.152-.015.323-.13.44-.124.126-.281.126-.427.126h-1.874ZM41.892 5.13h-.097c-.184 0-.25-.012-.33-.053-.115-.061-.179-.18-.179-.328 0-.148.064-.266.18-.327.078-.042.145-.053.329-.053h.097v-.53c0-.239.011-.334.064-.44.07-.145.224-.237.422-.237.199 0 .352.092.423.236.052.107.063.202.063.442v.529h.293c.183 0 .25.011.329.053.116.06.18.179.18.327 0 .149-.064.267-.18.328-.08.041-.146.053-.33.053h-.291v1.903c0 .186.067.334.314.35a.71.71 0 0 1 .292.06c.12.062.194.176.194.355 0 .175-.078.293-.194.353-.086.046-.214.069-.4.069h-.053c-.808 0-1.126-.556-1.126-1.134V5.13ZM44.51 5.13h-.097c-.183 0-.25-.012-.33-.053-.115-.061-.179-.18-.179-.328 0-.148.064-.266.18-.327.078-.042.146-.053.33-.053h.096v-.53c0-.239.012-.334.064-.44.071-.145.224-.237.423-.237.198 0 .351.092.422.236.053.107.064.202.064.442v.529h.292c.183 0 .25.011.329.053.116.06.18.179.18.327 0 .149-.064.267-.18.328-.078.041-.146.053-.33.053h-.29v1.903c0 .186.066.334.313.35.124.007.21.019.292.06.12.062.194.176.194.355 0 .175-.078.293-.194.353-.086.046-.213.069-.4.069h-.053c-.808 0-1.126-.556-1.126-1.134V5.13ZM49.055 5.438c-.105-.236-.325-.407-.654-.407-.326 0-.55.171-.651.407a1.012 1.012 0 0 0-.086.43h1.477a1.083 1.083 0 0 0-.086-.43Zm-1.391 1.107c0 .514.295.883.86.883.243 0 .483-.068.673-.213.153-.11.247-.148.363-.148.187 0 .393.186.393.414 0 .187-.157.358-.382.51-.265.183-.632.274-1.062.274-.924 0-1.803-.426-1.803-2.028 0-1.294.684-2.028 1.694-2.028 1.052 0 1.661.768 1.695 1.77.004.152-.015.323-.13.44-.124.126-.281.126-.427.126h-1.874ZM35.13 7.276c.47 0 .695-.305.695-.67 0-.365-.224-.662-.696-.662h-1.088v1.332h1.088Zm-1.09-3.532v1.249h1.022c.441 0 .688-.252.688-.624 0-.373-.247-.625-.688-.625H34.04Zm-.41 4.476c-.154 0-.345 0-.49-.149-.147-.148-.147-.342-.147-.498V3.448c0-.156 0-.35.146-.499.146-.148.337-.148.49-.148h1.515c1.044 0 1.654.593 1.654 1.522 0 .601-.393.99-.666 1.119.325.152.74.494.74 1.217 0 1.013-.684 1.56-1.638 1.56h-1.605Z" fill="#606060"/><path d="M31.965 7.977c-.07.143-.222.234-.42.234-.196 0-.348-.09-.419-.234-.052-.106-.063-.2-.063-.439V5.8c0-.532-.334-.71-.639-.71-.304 0-.646.178-.646.71v1.738c0 .238-.011.333-.063.439-.07.143-.223.234-.42.234-.197 0-.349-.09-.42-.234-.051-.106-.063-.2-.063-.439V3.443c0-.238.012-.332.064-.438.07-.144.223-.234.42-.234.196 0 .348.09.419.234.052.106.063.2.063.438v1.164c.245-.257.527-.408.943-.408.387 0 .699.128.914.347.312.318.394.688.394 1.118v1.874c0 .238-.011.333-.064.439ZM27.66 4.391c.22.114.469.303.469.556a.45.45 0 0 1-.138.32.426.426 0 0 1-.297.13c-.111 0-.197-.035-.334-.137-.156-.113-.282-.17-.464-.17a.685.685 0 0 0-.546.257c-.149.189-.216.45-.216.862 0 .411.067.68.216.868a.658.658 0 0 0 .546.257c.182 0 .308-.049.464-.166.13-.098.223-.143.334-.143.115 0 .23.06.297.132.09.09.138.196.138.32 0 .25-.245.435-.468.56a1.486 1.486 0 0 1-.765.189c-.773 0-1.727-.423-1.727-2.017 0-1.595.958-2.01 1.734-2.01.312 0 .535.06.758.192ZM22.492 8.226c-.386 0-.698-.129-.914-.348-.312-.317-.393-.687-.393-1.118V4.886c0-.238.01-.332.063-.438.07-.144.223-.234.42-.234.196 0 .349.09.419.234.052.106.063.2.063.438v1.738c0 .533.334.71.639.71.304 0 .646-.177.646-.71V4.886c0-.238.011-.332.063-.438.07-.144.223-.234.42-.234.197 0 .349.09.42.234.052.106.063.2.063.438v2.656c0 .253-.011.329-.07.442-.072.136-.235.227-.417.227a.43.43 0 0 1-.308-.114c-.078-.071-.115-.155-.145-.287a1.303 1.303 0 0 1-.97.416ZM17.292 6.79l-.862-1.726V7.5c0 .245-.007.332-.07.46a.497.497 0 0 1-.45.25.498.498 0 0 1-.449-.25c-.063-.128-.07-.215-.07-.46V3.424c0-.23.03-.381.156-.51a.469.469 0 0 1 .349-.143c.122 0 .215.022.308.086a.883.883 0 0 1 .264.325l1.322 2.562 1.322-2.562a.883.883 0 0 1 .264-.325.502.502 0 0 1 .308-.086c.14 0 .256.049.349.143.126.129.156.28.156.51v4.077c0 .245-.008.332-.07.46a.498.498 0 0 1-.45.25.497.497 0 0 1-.45-.25c-.063-.128-.07-.215-.07-.46V5.064l-.862 1.726c-.13.261-.252.37-.497.37s-.368-.109-.498-.37Z" fill="#F69322"/></g><defs><clipPath id="a"><path fill="#fff" transform="translate(.053)" d="M0 0h53.6v12H0z"/></clipPath></defs></svg>