<svg width="40" height="12" viewBox="0 0 40 12" fill="none" xmlns="http://www.w3.org/2000/svg"><g clip-path="url(#a)" fill-rule="evenodd" clip-rule="evenodd"><path d="M3.658 1.68c.234-.267.447-.494.65-.685C.865.883 1.868 3.392.746 5.942-.548 8.88.897 9.998 3.049 10.347a4.716 4.716 0 0 1-.727-1.2C.926 7.378 1.488 4.152 3.658 1.68Z" fill="#B3D234"/><path d="M11.945 4.808c-.32.91-.909 1.93-1.74 2.935a8.342 8.342 0 0 1-2.113 1.846c-.86.56-1.926.892-3.118.892-.668 0-1.324-.037-1.925-.135.355.422.787.773 1.289 1.017 3.114 1.518 3.31-1.301 6.605-2.732 1.85-.803 1.857-2.373 1.002-3.823Z" fill="#0095D9"/><path d="M8.092 1.875c.459.084.895.236 1.285.458 1.046.597 1.998 1.509 2.568 2.475.561-1.592.3-2.844-.927-3.07-1.35-.25-2.404-.329-3.418-1.042-1.248-.879-2.342-.589-3.291.3.067.001.135.004.205.008 1.318.079 2.575.337 3.578.87Z" fill="#EEE809"/><path d="M3.657 1.68C1.487 4.151.926 7.377 2.322 9.148c-.627-1.483-.584-3.331.3-4.807 1.175-1.966 3.534-2.822 5.47-2.466-1.003-.534-2.26-.792-3.577-.87a9.217 9.217 0 0 0-.207-.01c-.203.19-.417.418-.65.685Z" fill="#51B849"/><path d="M9.377 2.333a4.077 4.077 0 0 0-1.285-.458c1.32.702 2.2 1.883 2.19 3.763-.01 1.631-.846 3.073-2.19 3.95a8.336 8.336 0 0 0 2.113-1.845c.832-1.004 1.42-2.025 1.74-2.935-.57-.966-1.522-1.879-2.568-2.474Z" fill="#00845D"/><path d="M7.875 8.695a3.205 3.205 0 0 1-4.441-.962c-.962-1.497-.487-3.425.958-4.46 1.615-1.156 3.686-.7 4.44.963.737 1.62.534 3.493-.957 4.459Zm.217-6.82c-1.936-.356-4.294.5-5.47 2.465-.883 1.476-.927 3.325-.3 4.807.186.438.429.845.727 1.2.602.097 1.258.134 1.925.134 1.193 0 2.26-.331 3.119-.892 1.344-.878 2.18-2.32 2.188-3.951.01-1.88-.869-3.06-2.189-3.763Z" fill="#005121"/><path d="M32.748 4.405c-.337 0-.66.09-.963.267a1.92 1.92 0 0 0-.71.719c-.17.3-.256.64-.256 1.01 0 .554.184 1.008.565 1.39.38.38.827.566 1.364.566.354 0 .687-.088.988-.261.3-.173.538-.412.707-.711.169-.3.254-.64.254-1.008 0-.365-.086-.7-.254-.994a1.913 1.913 0 0 0-.715-.71 1.932 1.932 0 0 0-.98-.268Zm.018 4.66c-.748 0-1.389-.261-1.904-.778a2.582 2.582 0 0 1-.777-1.885c0-.488.119-.947.354-1.364.235-.417.56-.749.965-.986a2.59 2.59 0 0 1 1.322-.356c.764 0 1.412.26 1.927.775.516.515.777 1.156.777 1.908 0 .745-.26 1.386-.775 1.905a2.57 2.57 0 0 1-1.89.782Zm5.175 0c-.316 0-.607-.086-.865-.256-.255-.168-.49-.45-.701-.838a.117.117 0 0 1 .042-.156l.413-.25a.115.115 0 0 1 .16.045c.268.495.572.747.905.747a.85.85 0 0 0 .404-.101.69.69 0 0 0 .378-.614.712.712 0 0 0-.144-.414c-.145-.207-.416-.462-.807-.76-.417-.317-.673-.544-.78-.692a1.347 1.347 0 0 1-.279-.817c0-.232.057-.448.168-.64.111-.193.27-.347.472-.458a1.387 1.387 0 0 1 1.353.02c.216.125.434.342.668.664a.117.117 0 0 1-.023.162l-.396.302a.116.116 0 0 1-.163-.022c-.172-.231-.319-.383-.434-.452a.679.679 0 0 0-.36-.1.547.547 0 0 0-.4.147.473.473 0 0 0-.151.357c0 .09.019.178.056.262.038.086.11.184.217.29.04.04.18.155.613.478.436.324.728.607.893.865.168.262.253.53.253.798 0 .386-.147.725-.436 1.008a1.458 1.458 0 0 1-1.056.426Zm-9-.122h-.595a.08.08 0 0 1-.073-.05l-.754-1.824a.055.055 0 0 0-.103 0l-.756 1.824a.08.08 0 0 1-.074.05h-.595a.08.08 0 0 1-.072-.114l1.085-2.427a.241.241 0 0 0 0-.201l-.977-2.207a.123.123 0 0 1 .111-.175h.5c.049 0 .092.03.11.074l.668 1.63c.02.05.09.05.11 0l.672-1.63a.116.116 0 0 1 .108-.074h.506c.085 0 .14.088.105.166l-.983 2.212a.243.243 0 0 0 0 .203l1.08 2.43a.08.08 0 0 1-.073.113ZM16.148 3.958c0-.077.062-.14.138-.14h1.751c.861 0 1.56.705 1.56 1.573v.042c0 .879-.707 1.59-1.579 1.59h-1.065a.092.092 0 0 0-.092.093v1.688a.138.138 0 0 1-.138.139h-.437a.138.138 0 0 1-.138-.14V3.959Zm.713 2.255c0 .051.041.093.092.093h1.16a.775.775 0 0 0 .771-.778v-.2a.79.79 0 0 0-.786-.791h-1.145a.092.092 0 0 0-.092.092v1.584Zm7.393 2.73a.126.126 0 0 1-.114-.074l-.384-.82a.128.128 0 0 0-.116-.074h-2.394a.127.127 0 0 0-.115.073l-.386.822a.127.127 0 0 1-.115.073h-.516a.128.128 0 0 1-.115-.183l2.282-4.868a.127.127 0 0 1 .115-.073h.104c.05 0 .095.028.116.074l2.252 4.868a.128.128 0 0 1-.115.182h-.499Zm-2.713-1.767a.072.072 0 0 0 .065.103h1.668c.057 0 .094-.059.07-.11l-.825-1.764a.08.08 0 0 0-.146 0l-.832 1.77Z" fill="#778F9B"/></g><defs><clipPath id="a"><path fill="#fff" transform="translate(.253)" d="M0 0h39.219v12H0z"/></clipPath></defs></svg>