<svg width="49" height="12" viewBox="0 0 49 12" fill="none" xmlns="http://www.w3.org/2000/svg">
<g clip-path="url(#clip0_178_8333)">
<path d="M10.5663 0C11.5413 0 12.3396 0.798333 12.3396 1.775V10.2267C12.3396 11.2017 11.5413 12.0017 10.5663 12.0017H2.11631C1.13964 12.0017 0.341309 11.2033 0.341309 10.2267V3.755L0.346309 1.68C0.396309 0.746667 1.17131 0 2.11631 0H10.568" fill="white"/>
<path d="M2.67793 12H2.1146C1.13793 12 0.3396 11.2017 0.3396 10.225V3.755C1.93127 3.59333 3.41793 3.59667 4.7196 3.725L2.67627 12H2.67793ZM9.89627 6.40667C10.1779 5.26 8.3296 4.2 5.3696 3.8L4.29627 8.27C6.77627 8.38667 9.5946 7.64167 9.89627 6.40833M10.5663 0H2.11627C1.17127 0 0.396266 0.746667 0.346266 1.68C7.42127 1.48 10.8629 3.94167 10.3229 6.39667C9.83627 8.60667 7.59127 9.45333 3.94293 9.73167L3.39793 12.0017H10.5663C11.5429 12.0017 12.3396 11.2033 12.3396 10.2267V1.775C12.3396 0.8 11.5413 0 10.5663 0Z" fill="#FF0033"/>
<path d="M34.4281 2.2417H32.3014C32.1081 2.2417 31.9497 2.39837 31.9497 2.59337V9.2917H33.4464V6.89503C33.4464 6.89503 33.8831 6.89503 34.4264 6.89503C35.8764 6.89503 37.1897 5.9917 37.1897 4.46003C37.1897 2.92837 35.8764 2.24337 34.4264 2.24337M33.4481 6.17503V2.96337C33.4481 2.96337 33.9097 2.96503 34.4281 2.96503C35.1631 2.96503 35.9731 3.5217 35.9731 4.47837C35.9731 5.43503 35.1631 6.1767 34.4281 6.1767C33.7164 6.1767 33.4481 6.1767 33.4481 6.1767M39.7397 4.01337C38.6064 4.01337 38.0247 4.2917 38.0247 4.2917L38.1631 4.7117C38.1631 4.7117 38.5897 4.51337 39.4264 4.51337C40.3547 4.51337 40.5447 4.96503 40.5447 5.58003L40.5331 5.85503C40.3331 5.7967 39.8681 5.71837 39.3914 5.71837C38.6831 5.71837 37.5131 6.15503 37.5131 7.5817C37.5131 9.00837 38.5431 9.38337 39.2747 9.38337C39.8781 9.38337 40.2464 9.1967 40.5447 9.0117V9.29003H42.0414V5.58003C42.0414 4.4067 40.8731 4.0117 39.7397 4.0117M39.8031 8.7217C39.1531 8.7217 38.6864 8.2417 38.6864 7.53337C38.6864 6.82503 39.3097 6.40837 39.8797 6.40837C40.1664 6.40837 40.4397 6.4867 40.5447 6.57837V8.39503C40.3614 8.55337 40.1481 8.72337 39.8031 8.72337M45.5381 9.9317C45.0831 10.9367 44.3347 11.0684 43.9997 11.1067C43.6481 11.1484 43.2714 11.13 43.2714 11.13V10.3084C43.9381 10.3084 44.3014 10.36 44.6947 9.58003L44.9614 8.90337L42.5031 4.0117H44.0731L45.6847 7.26337L47.1097 4.01337H48.1297C48.1297 4.01337 45.9914 8.9267 45.5364 9.9317M17.3047 2.2417H15.1781C14.9831 2.2417 14.8264 2.39837 14.8264 2.59337V9.2917H16.3247V6.89503C16.3247 6.89503 16.7614 6.89503 17.3047 6.89503C18.7547 6.89503 20.0681 5.9917 20.0681 4.46003C20.0681 2.92837 18.7547 2.24337 17.3047 2.24337M16.3247 6.17503V2.96337C16.3247 2.96337 16.7864 2.96503 17.3047 2.96503C18.0397 2.96503 18.8497 3.5217 18.8497 4.47837C18.8497 5.43503 18.0397 6.1767 17.3047 6.1767C16.5914 6.1767 16.3247 6.1767 16.3247 6.1767M22.6181 4.01337C21.4847 4.01337 20.9031 4.2917 20.9031 4.2917L21.0414 4.7117C21.0414 4.7117 21.4681 4.51337 22.3047 4.51337C23.2331 4.51337 23.4231 4.96503 23.4231 5.58003L23.4114 5.85503C23.2131 5.7967 22.7464 5.71837 22.2697 5.71837C21.5614 5.71837 20.3914 6.15503 20.3914 7.5817C20.3914 9.00837 21.4214 9.38337 22.1531 9.38337C22.7564 9.38337 23.1247 9.1967 23.4231 9.0117V9.29003H24.9197V5.58003C24.9197 4.4067 23.7531 4.0117 22.6197 4.0117M22.6814 8.7217C22.0314 8.7217 21.5647 8.2417 21.5647 7.53337C21.5647 6.82503 22.1881 6.40837 22.7581 6.40837C23.0447 6.40837 23.3181 6.4867 23.4231 6.57837V8.39503C23.2397 8.55337 23.0264 8.72337 22.6814 8.72337M28.4164 9.9317C27.9614 10.9367 27.2131 11.0684 26.8781 11.1067C26.5264 11.1484 26.1497 11.13 26.1497 11.13V10.3084C26.8164 10.3084 27.1797 10.36 27.5731 9.58003L27.8397 8.90337L25.3814 4.0117H26.9514L28.5631 7.26337L29.9881 4.01337H31.0081C31.0081 4.01337 28.8697 8.9267 28.4147 9.9317" fill="#3F3A39"/>
</g>
<defs>
<clipPath id="clip0_178_8333">
<rect width="47.79" height="12" fill="white" transform="translate(0.341309)"/>
</clipPath>
</defs>
</svg>
