<svg width="57" height="12" viewBox="0 0 57 12" fill="none" xmlns="http://www.w3.org/2000/svg"><g clip-path="url(#a)"><path d="M17.898 1.79c-.656 0-1.29.083-1.547.153-.375.105-.47.27-.54.61l-1.489 6.87c-.024.141-.047.258-.047.376 0 .34.223.562.587.562.399 0 .563-.258.645-.657l.422-1.958c.292.035.68.071 1.23.071 2.428 0 3.94-1.313 3.94-3.295 0-1.735-1.208-2.732-3.2-2.732Zm-.797 4.901c-.375 0-.669-.012-.938-.046l.786-3.647c.246-.035.61-.083.985-.083 1.29 0 1.947.61 1.947 1.619 0 1.29-.94 2.157-2.78 2.157ZM56.099 8.098c-.2 0-.329.117-.575.387-.434.446-.703.692-1.043.692-.305 0-.469-.246-.469-.645 0-.223.047-.493.106-.786l.434-2.04h1.302c.41 0 .656-.235.656-.657 0-.235-.152-.41-.503-.41h-1.221l.21-.95c.024-.14.047-.27.047-.387 0-.328-.222-.563-.586-.563-.387 0-.562.258-.645.657l-.27 1.243h-.55c-.423 0-.669.235-.669.657 0 .235.164.41.516.41h.48l-.433 2.017a4.888 4.888 0 0 0-.106.961c0 .95.493 1.642 1.548 1.642.61 0 1.149-.305 1.56-.67.399-.35.691-.785.691-1.066a.485.485 0 0 0-.48-.492ZM29.13 2.482c0-.34-.235-.563-.598-.563-.387 0-.562.258-.645.657l-1.465 6.812c-.035.14-.059.258-.059.375 0 .34.235.563.587.563.399 0 .574-.258.656-.657l1.466-6.812c.024-.141.058-.258.058-.375ZM50.06 4.522c-1.876 0-3.154 1.864-3.154 3.635 0 .033 0 .066.002.098-.295.447-.67.91-.929.91-.187 0-.258-.176-.258-.446 0-.328.094-.88.2-1.36l.973-4.503c.024-.14.047-.258.047-.376 0-.34-.223-.563-.587-.563-.398 0-.562.258-.645.657l-.527 2.439c-.282-.293-.693-.493-1.314-.493-1.245 0-2.499.959-2.987 2.43-.538 1.39-1.019 2.213-1.398 2.213-.14 0-.223-.117-.223-.316 0-.587.328-2.017.469-2.709.047-.258.07-.363.07-.515 0-.516-.856-1.126-1.97-1.126-1.288 0-2.454.816-3.039 2.028-.869 1.535-1.666 2.638-2.06 2.638-.177 0-.235-.223-.282-.434l-.292-1.616 1.794-1.465c.164-.14.375-.34.375-.598 0-.317-.211-.528-.528-.528-.235 0-.434.14-.633.305l-2.696 2.228.902-4.198c.024-.14.06-.258.06-.375 0-.34-.236-.563-.599-.563-.387 0-.562.258-.645.657l-1.465 6.812c-.035.14-.059.258-.059.375 0 .34.235.563.586.563.4 0 .575-.258.657-.657l.188-.88 1.102-.89.27 1.36c.105.539.387 1.066 1.114 1.066.723 0 1.292-.66 1.862-1.552.173.935.838 1.553 1.762 1.553.926 0 1.56-.552 1.97-1.29v.023c0 .763.387 1.267 1.066 1.267.616 0 1.126-.372 1.582-1.16.259.687.837 1.16 1.642 1.16.95 0 1.63-.575 2.064-1.372v.07c0 .845.422 1.302 1.114 1.302.61 0 1.13-.354 1.573-.931.337.577.941.931 1.757.931 1.876 0 3.154-1.864 3.154-3.647 0-1.255-.763-2.157-2.065-2.157Zm-11.69 2.38c-.34 1.466-1.066 2.299-1.887 2.299-.552 0-.856-.422-.856-1.055 0-1.244.902-2.58 2.11-2.58.363 0 .645.105.89.257l-.256 1.08Zm6.531-.62C44.526 8.004 43.67 9.2 42.732 9.2c-.515 0-.82-.4-.82-1.055 0-1.255.867-2.557 2.028-2.557.446 0 .785.153 1.032.352l-.07.34Zm4.21 2.919c-.68 0-.962-.493-.962-1.114 0-1.138.785-2.439 1.77-2.439.68 0 .962.493.962 1.114 0 1.149-.785 2.439-1.77 2.439ZM24.018 4.522c-1.876 0-3.154 1.864-3.154 3.635 0 1.266.763 2.168 2.064 2.168 1.876 0 3.154-1.864 3.154-3.646 0-1.255-.762-2.157-2.064-2.157Zm-.95 4.679c-.679 0-.96-.493-.96-1.114 0-1.138.785-2.439 1.77-2.439.68 0 .962.493.962 1.114-.001 1.149-.787 2.439-1.771 2.439Z" fill="#000"/><path d="M6.115 2.517c1.195 0 2.164-.564 2.164-1.259S7.31 0 6.115 0C4.92 0 3.951.563 3.951 1.258c0 .695.969 1.259 2.164 1.259ZM6.115 12c1.195 0 2.164-.564 2.164-1.26 0-.694-.969-1.258-2.164-1.258-1.195 0-2.164.564-2.164 1.259s.969 1.258 2.164 1.258ZM3.1 4.259c.597-1.035.594-2.156-.009-2.504C2.49 1.408 1.516 1.965.92 3 .32 4.035.325 5.155.927 5.503c.603.348 1.575-.21 2.173-1.244ZM11.31 9c.598-1.035.594-2.156-.008-2.504-.601-.347-1.574.21-2.171 1.245-.598 1.035-.594 2.156.008 2.503.602.348 1.574-.21 2.171-1.245ZM3.091 10.244c.603-.348.606-1.469.009-2.504C2.502 6.705 1.53 6.148.927 6.496.325 6.844.321 7.965.92 9c.597 1.034 1.57 1.591 2.172 1.244ZM11.303 5.503c.602-.347.606-1.468.008-2.503-.597-1.035-1.57-1.592-2.171-1.244-.602.347-.606 1.468-.008 2.503.597 1.035 1.57 1.592 2.171 1.244Z" fill="#E6007A"/></g><defs><clipPath id="a"><path fill="#fff" transform="translate(.474)" d="M0 0h56.105v12H0z"/></clipPath></defs></svg>