<svg width="53" height="12" viewBox="0 0 53 12" fill="none" xmlns="http://www.w3.org/2000/svg"><g clip-path="url(#a)"><path d="M14.005 6.24v3.102a1.136 1.136 0 0 1-.553.958l-2.688 1.548a1.077 1.077 0 0 1-1.101 0L6.975 10.3a1.121 1.121 0 0 1-.553-.958v-.87l1.375-.8v1.516l2.41 1.398 2.407-1.398v-2.79L10.206 5 4.564 8.268a1.115 1.115 0 0 1-1.101 0L.775 6.714a1.114 1.114 0 0 1-.537-.955V2.656a1.118 1.118 0 0 1 .55-.958L3.476.15a1.083 1.083 0 0 1 1.1 0l2.688 1.548a1.123 1.123 0 0 1 .552.958v.87L6.43 4.32V2.815L4.02 1.417 1.615 2.815V5.6l2.408 1.398L9.669 3.73a1.115 1.115 0 0 1 1.101 0l2.687 1.555a1.118 1.118 0 0 1 .545.954h.003Z" fill="#7A53DD"/><path d="M18.795 10.471V8.047c.262.33.74.515 1.29.515 1.408 0 2.36-1 2.36-2.524s-.874-2.524-2.243-2.524c-.631 0-1.116.232-1.409.606v-.538h-1.347v6.874l1.349.015Zm1.124-3.07c-.73 0-1.204-.543-1.204-1.363s.474-1.364 1.204-1.364 1.194.538 1.194 1.364c0 .826-.483 1.364-1.194 1.364Zm5.591 1.167c1.505 0 2.576-1.07 2.576-2.524S27.01 3.52 25.51 3.52s-2.575 1.06-2.575 2.524 1.07 2.524 2.575 2.524Zm0-1.166c-.728 0-1.224-.553-1.224-1.364 0-.81.497-1.364 1.224-1.364.728 0 1.223.553 1.223 1.364 0 .81-.494 1.364-1.223 1.364Zm4.748 1.089V1.47h-1.347V8.49h1.347Zm4.056-4.894-1.02 3.155-1.029-3.155h-1.384l1.775 4.849-.715 2.025h1.291l.694-1.998 1.777-4.874-1.39-.002Zm5.18.485c-.273-.34-.758-.562-1.35-.562-1.428 0-2.291.998-2.291 2.524s.86 2.524 2.31 2.524c.573 0 1.088-.215 1.34-.574v.646c0 .454-.303.777-.708.777h-2.253v1.06h2.467c1.106 0 1.844-.67 1.844-1.689v-5.19h-1.364l.005.484Zm-1.117 3.32c-.718 0-1.194-.537-1.194-1.364 0-.827.476-1.364 1.194-1.364s1.203.538 1.203 1.364c0 .826-.474 1.364-1.203 1.364Zm5.879 1.166c1.505 0 2.576-1.07 2.576-2.524S45.756 3.52 44.256 3.52 41.68 4.58 41.68 6.044s1.07 2.524 2.576 2.524Zm0-1.166c-.729 0-1.224-.553-1.224-1.364 0-.81.495-1.364 1.224-1.364s1.223.553 1.223 1.364c0 .81-.496 1.364-1.223 1.364Zm4.679 1.09V5.81c0-.632.418-1.088 1.01-1.088.562 0 .941.43.941 1.02V8.49h1.364v-3.05c0-1.126-.718-1.921-1.828-1.921-.67 0-1.212.28-1.484.757v-.674h-1.364v4.894l1.36-.006Z" fill="#212121"/></g><defs><clipPath id="a"><path fill="#fff" transform="translate(.238)" d="M0 0h52v12H0z"/></clipPath></defs></svg>