<svg width="42" height="12" viewBox="0 0 42 12" fill="none" xmlns="http://www.w3.org/2000/svg"><path d="M15.444 4.53c-.11-.036-.343-.06-.576-.06-.698 0-1.445.565-1.445 1.263v3.33h-1.592v-5.94h1.53v.6C13.718 3.282 14.367 3 15.09 3c.18.001.36.018.538.049l-.183 1.482ZM17.245 0c.576 0 1.041.44 1.041 1.016 0 .576-.465 1.017-1.04 1.017-.576 0-1.042-.441-1.042-1.017C16.204.441 16.67 0 17.245 0Zm.796 9.061H16.45V3.123h1.592V9.06ZM22.745 3a2.718 2.718 0 0 0-1.74.6v-.478h-1.53V12h1.592V8.645a2.505 2.505 0 0 0 1.592.54c.882 0 1.727-.393 2.253-1.005a3.177 3.177 0 0 0 .747-2.082C25.659 4.347 24.361 3 22.745 3Zm-.194 4.739c-.989 0-1.639-.683-1.639-1.636 0-.953.65-1.635 1.64-1.635.843 0 1.528.732 1.528 1.635S23.395 7.74 22.55 7.74ZM35.322 9.061h-1.593V.367h1.593v8.694ZM41.811 8.12c-.575.685-1.518 1.065-2.437 1.065-1.775 0-3.11-1.225-3.11-3.087C36.264 4.445 37.39 3 39.154 3c1.641 0 2.804 1.384 2.804 3.037.001.152-.011.304-.036.453h-4.115c.085.833.76 1.409 1.604 1.409.674 0 1.212-.38 1.494-.686l.906.906ZM40.33 5.326a1.184 1.184 0 0 0-1.176-1.041c-.661 0-1.2.502-1.274 1.041h2.45ZM29.873 3a2.718 2.718 0 0 0-1.74.6v-.478h-1.53V12h1.592V8.645a2.505 2.505 0 0 0 1.592.54c.882 0 1.727-.393 2.253-1.005a3.176 3.176 0 0 0 .747-2.082C32.787 4.347 31.489 3 29.873 3Zm-.194 4.739c-.989 0-1.639-.683-1.639-1.636 0-.953.65-1.635 1.64-1.635.843 0 1.528.732 1.528 1.635s-.685 1.636-1.529 1.636Z" fill="#434C54"/><path d="M8.55 6.898c-.36-.208-.764-.268-1.165-.282-.337-.011-.838-.227-.838-.839a.85.85 0 0 1 .838-.84c.4-.013.806-.073 1.165-.28a2.123 2.123 0 1 0-3.185-1.84c0 .412.146.79.333 1.142.157.295.236.843-.302 1.154-.4.231-.9.085-1.15-.315-.211-.337-.466-.654-.823-.86a2.124 2.124 0 1 0 0 3.678c.357-.206.611-.522.822-.86.173-.276.606-.63 1.15-.315.4.231.525.738.303 1.155-.187.35-.333.73-.333 1.14A2.123 2.123 0 1 0 8.55 6.899Z" fill="url(#a)"/><defs><linearGradient id="a" x1="2.882" y1="2.254" x2="9.927" y2="9.301" gradientUnits="userSpaceOnUse"><stop stop-color="#00AAE4"/><stop offset="1" stop-color="#006097"/></linearGradient></defs></svg>