<svg width="13" height="12" viewBox="0 0 13 12" fill="none" xmlns="http://www.w3.org/2000/svg"><g clip-path="url(#a)"><path d="M6.555 12a5.652 5.652 0 1 0 0-11.304 5.652 5.652 0 0 0 0 11.304Z" fill="#FF0101"/><path d="M10.685 4.553a5.21 5.21 0 0 0 .249-.51c.354-.834.47-1.71.401-2.61-.03-.404-.078-1.392-.646-1.432-.367-.025-.731.301-.975.532-.612.578-1.25 1.389-1.547 1.781a4.243 4.243 0 0 0-3.199-.01l-.025.01c-.298-.392-.935-1.203-1.547-1.781C3.152.303 2.787-.024 2.42 0c-.568.04-.615 1.028-.646 1.433-.07.9.047 1.775.401 2.61.074.174.156.344.249.509-.942 1.799-1.216 3.677.754 5.1 2.122 1.534 3.376 1.425 3.376 1.425s1.254.109 3.376-1.424c1.97-1.424 1.696-3.302.754-5.101Z" fill="#FFA600"/><path d="M3.798 5.186s-.302.534.155.836c.457.302 1.719.534 1.65.31-.07-.225-1.116-1.17-1.805-1.146Z" fill="#000"/><path d="M4.388 4.111h-.001c-.253.014-.54.224-.503.502.054.418.635.465 1.014.372.205-.05.237-.269.16-.439-.112-.248-.387-.45-.67-.435ZM8.537 8.26c.088-.098-.369-.783-.422-.859-.256-.365-.612-.704-1.021-.89-.421-.192-.827-.107-1.225.101-.567.296-.98.834-1.216 1.42-.03.074-.06.15-.08.228-.744-.83-1.903-1.002-2.86-.972.071.856.497 1.666 1.466 2.366 2.121 1.533 3.376 1.424 3.376 1.424s1.254.109 3.376-1.424c.968-.7 1.395-1.51 1.466-2.366-.957-.03-2.117.141-2.86.972Z" fill="#fff"/><path d="M9.312 5.186s.302.534-.155.836c-.457.302-1.72.534-1.65.31.07-.225 1.116-1.17 1.805-1.146Z" fill="#000"/><path d="M8.723 4.111c.254.014.54.224.503.502-.054.418-.634.465-1.014.372-.205-.05-.237-.269-.16-.439.112-.248.387-.45.67-.435Z" fill="#fff"/><path d="M10.427 4.002s.666-1.317.325-3.028C10.57.062 8.684 2.53 8.684 2.53s1.061.504 1.743 1.472Z" fill="#FF8300"/><path d="M10.752.974c.027.135.047.267.062.396-.304.008-1.02.161-1.634 1.451a4.411 4.411 0 0 0-.496-.29S10.57.06 10.752.973Z" fill="#FF9501"/><path d="M2.684 4.002S2.018 2.685 2.359.974C2.54.062 4.427 2.53 4.427 2.53s-1.062.504-1.743 1.472Z" fill="#FF8300"/><path d="M6.049 9.527s0 .086.038.117c.038.03.144.062.168.014.024-.049.042-.053.042-.053s.123-.034.154.042c.031.076.056.145.104.145.048 0 .072-.07.103-.145.032-.076.155-.042.155-.042s.017.004.041.053c.024.048.13.017.169-.014.038-.031.038-.117.038-.117H6.049Z" fill="#000"/><path d="M7.852 9.141h-.368c-.073 0-.08.062-.08.062h-.467c-.159 0-.183-.17-.183-.17h-.072v-.429c.33-.06.581-.35.581-.697v-.19a.262.262 0 0 0-.262-.263h-.893a.262.262 0 0 0-.262.263v.19c0 .348.25.637.58.697v.43h-.071s-.024.17-.182.17h-.468s-.007-.063-.08-.063h-.368s-.055.01.014.08c.069.068.107.096.117.172.01.075 0 .14.062.14s.062.004.086.097c.024.093.113.368.172.382.059.014 0-.582 0-.582s-.008-.093.124-.065c.13.028.609.048.722.048.114 0 .592-.02.723-.048.131-.027.124.065.124.065s-.059.596 0 .582c.059-.014.148-.289.172-.382.024-.093.024-.096.086-.096.062 0 .052-.066.062-.141.01-.076.048-.104.117-.173.069-.068.014-.079.014-.079Z" fill="#000"/><path d="M2.358.974a5.05 5.05 0 0 0-.062.396c.304.008 1.02.161 1.634 1.451.29-.192.497-.29.497-.29S2.54.06 2.358.973Z" fill="#FF9501"/></g><defs><clipPath id="a"><path fill="#fff" transform="translate(.902)" d="M0 0h11.304v12H0z"/></clipPath></defs></svg>