<svg width="100" height="12" fill="none" xmlns="http://www.w3.org/2000/svg"><path d="M29.857 4.8h-7.2V2.4h9.074V0h-9.09c-.625 0-1.233.247-1.677.69a2.377 2.377 0 0 0-.69 1.677V4.8c0 .625.246 1.233.69 1.677.444.444 1.052.69 1.677.69h7.2v2.4h-9.42v2.4h9.436c.625 0 1.233-.247 1.677-.69.444-.444.69-1.052.69-1.677V7.167c0-.625-.246-1.233-.69-1.677a2.32 2.32 0 0 0-1.677-.69ZM43.83 0h-7.233c-.313 0-.625.066-.904.18a2.261 2.261 0 0 0-.773.51 2.262 2.262 0 0 0-.51.773c-.115.296-.18.592-.18.904v7.25c0 .312.065.624.18.903.116.296.296.56.51.773.214.214.477.395.773.51.296.115.591.18.904.18h7.233c.624 0 1.233-.246 1.676-.69.444-.444.69-1.052.69-1.677V2.384c0-.625-.246-1.233-.69-1.677A2.393 2.393 0 0 0 43.83 0Zm-.017 9.6H36.63V2.416h7.183V9.6ZM69.145 0h-7.052c-.625 0-1.233.247-1.677.69a2.377 2.377 0 0 0-.69 1.677v9.6h2.383V8.022h7.02v3.945h2.4V2.384c0-.313-.066-.625-.182-.905a2.262 2.262 0 0 0-.51-.772 2.261 2.261 0 0 0-.772-.51 2.262 2.262 0 0 0-.92-.197Zm-.017 5.655H62.11V2.4h7.02v3.255ZM97.205 0h-7.052a2.55 2.55 0 0 0-.92.18 2.261 2.261 0 0 0-.773.51 2.262 2.262 0 0 0-.51.773c-.115.296-.18.592-.18.904v9.6h2.4V8.022h7.019v3.945h2.4V2.384c0-.625-.247-1.233-.69-1.677C98.437.263 97.845 0 97.204 0Zm-.016 5.655h-7.02V2.4h7.02v3.255ZM83.249 9.6h-.954L78.86 1.003a1.663 1.663 0 0 0-.576-.724A1.576 1.576 0 0 0 77.397 0H75.26c-.428 0-.822.164-1.118.46-.296.296-.46.707-.46 1.118v10.406h2.4V2.4h.953l3.436 8.597c.115.296.312.543.575.723.263.181.575.28.888.28h2.137c.427 0 .822-.164 1.118-.46.295-.296.46-.707.46-1.118V.016h-2.4V9.6ZM50.717 0h-2.4v9.616c0 .625.247 1.233.69 1.677.445.444 1.053.69 1.677.69h7.2v-2.4h-7.183V0h.016Z" fill="#000"/><path d="M3.243 9.14a.903.903 0 0 1 .148-.115c.05-.033.115-.033.18-.033h10.456c.049 0 .082.016.131.033.033.016.066.065.082.098.017.033.017.083.017.132 0 .05-.033.082-.05.115l-2.219 2.466a.9.9 0 0 1-.148.115c-.05.033-.115.033-.18.033H1.187c-.05 0-.082-.017-.131-.033-.033-.017-.066-.066-.083-.099-.016-.033-.016-.082-.016-.131 0-.05.033-.083.05-.116L3.242 9.14ZM14.207 7.1a.15.15 0 0 1 .05.115c0 .05 0 .083-.017.132-.016.033-.05.082-.082.099a.31.31 0 0 1-.131.032l-10.439.017a.59.59 0 0 1-.18-.033.331.331 0 0 1-.149-.115l-2.235-2.45a.15.15 0 0 1-.05-.114c0-.05 0-.083.017-.132.016-.033.05-.082.082-.099a.31.31 0 0 1 .132-.032l10.47-.017a.59.59 0 0 1 .182.033c.049.033.115.066.148.115l2.202 2.45ZM3.243.164c.05-.049.099-.082.148-.115.05-.033.115-.033.18-.033l10.472.017c.05 0 .082.016.131.033.033.016.066.066.083.098a.32.32 0 0 1 .016.132c0 .05-.033.082-.05.115l-2.218 2.45a.899.899 0 0 1-.148.114c-.05.033-.115.033-.181.033H1.188c-.05 0-.082-.016-.131-.033C1.024 2.96.99 2.91.974 2.877c-.016-.033-.016-.082-.016-.132s.033-.082.05-.115L3.242.164Z" fill="url(#a)"/><defs><linearGradient id="a" x1="1.36" y1="12.257" x2="13.869" y2="-.253" gradientUnits="userSpaceOnUse"><stop stop-color="#9945FF"/><stop offset=".14" stop-color="#8A53F4"/><stop offset=".42" stop-color="#6377D6"/><stop offset=".79" stop-color="#24B0A7"/><stop offset=".99" stop-color="#00D18C"/><stop offset="1" stop-color="#00D18C"/></linearGradient></defs></svg>