<svg width="49" height="12" viewBox="0 0 49 12" fill="none" xmlns="http://www.w3.org/2000/svg"><path d="m12.77 1.57-1.709.87-8.246 4.201A4.946 4.946 0 0 1 2.773 6c.003-2.692 2.22-4.906 4.912-4.906.84 0 1.664.215 2.396.624l.978-.498.146-.075A6 6 0 0 0 7.68 0C4.388 0 1.679 2.709 1.679 6v.001c0 .153.006.305.017.457.033.438-.201.855-.593 1.055l-.515.263v1.226l1.518-.774.49-.25.485-.247 8.694-4.43.977-.498 2.02-1.029V.55L12.768 1.57ZM14.771 3 3.575 8.702l-.977.499-2.01 1.024v1.225l1.996-1.017 1.708-.87 8.256-4.206c.027.214.041.43.041.645-.001 2.694-2.218 4.91-4.912 4.91a4.916 4.916 0 0 1-2.403-.627l-.06.031-1.06.54A6.003 6.003 0 0 0 7.68 12c3.29 0 6-2.708 6-5.999 0-.154-.006-.308-.017-.46a1.094 1.094 0 0 1 .592-1.056l.516-.262V3Zm16.863.852c-1.712 0-3.04 1.26-3.04 3.25 0 1.853 1.094 3.275 3.075 3.275 1.527 0 2.528-.898 2.808-1.97h-1.095c-.268.617-.78 1.037-1.713 1.037-.92 0-1.9-.652-1.934-2.004h4.823c.129-1.992-1.002-3.588-2.924-3.588Zm-1.887 2.68c.093-1.26.955-1.772 1.887-1.772 1.13 0 1.77.886 1.806 1.771h-3.693Zm-7.602-1.154-.975-.222c-.796-.175-1.38-.547-1.38-1.293 0-.944 1.14-1.235 1.793-1.235.84 0 1.818.338 2.098 1.305h1.154c-.339-1.62-1.68-2.307-3.204-2.307-1.364 0-3.053.688-3.053 2.307 0 1.398 1.153 2.05 2.319 2.307l1.053.222c1.06.244 1.817.593 1.817 1.49 0 .841-.71 1.422-1.969 1.422-1.316 0-2.108-.606-2.33-1.77h-1.167c.22 1.68 1.48 2.773 3.471 2.773 1.68 0 3.216-.887 3.216-2.53 0-1.7-1.549-2.19-2.843-2.47Zm5.12-2.995h-1.06v1.573h-.991v.85h.99v3.846c0 1.305.28 1.572 1.48 1.572h.77V9.34h-.537c-.605 0-.652-.163-.652-.815V4.807h1.188v-.85h-1.188V2.382Zm21.01 1.538c-.828.035-1.457.42-1.771 1.13V3.956h-1.038v6.268h1.06V6.94c0-1.398.49-1.92 1.468-1.92.2 0 .399.015.595.047V3.933a3.123 3.123 0 0 0-.315-.012Zm-3.83 3.94.012-1.445c.012-1.782-.734-2.586-2.493-2.586-1.212 0-2.424.758-2.517 2.109h1.095c.047-.78.548-1.246 1.434-1.246.792 0 1.42.372 1.42 1.526v.15c-2.562.28-4.24.72-4.24 2.203 0 1.153.979 1.806 2.156 1.806 1.118 0 1.759-.36 2.143-1.013.01.288.036.576.082.861h1.072c-.128-.595-.175-1.306-.163-2.365Zm-.966-.256c0 1.48-.944 1.934-1.934 1.934-.758 0-1.212-.396-1.212-.99 0-.863 1.223-1.154 3.145-1.34v.396Zm-8.207-5.832h1.06v8.451h-1.06v-8.45Zm2.12 0h1.06v8.451h-1.06v-8.45Z" fill="#000"/></svg>