<svg width="60" height="12" viewBox="0 0 60 12" fill="none" xmlns="http://www.w3.org/2000/svg"><g clip-path="url(#a)" fill="#F25822"><path d="M7.673 8.263c0 1.179-.373 2.096-1.117 2.76-.744.655-1.78.977-3.107.977-.557 0-1.082-.06-1.578-.193-.498-.136-.924-.32-1.281-.57v-2.79c.421.284.91.514 1.459.707.549.189 1.047.288 1.49.288.375 0 .658-.082.851-.244.191-.162.288-.404.288-.702a.951.951 0 0 0-.09-.404 1.68 1.68 0 0 0-.26-.377c-.111-.13-.41-.404-.894-.825-.593-.503-1.023-1.014-1.29-1.532a3.702 3.702 0 0 1-.402-1.716c0-.697.164-1.325.496-1.88A3.38 3.38 0 0 1 3.642.47C4.245.162 4.922.01 5.672.01c1.206 0 2.293.285 3.258.858l-1.027 2.37c-.864-.472-1.6-.703-2.205-.703-.323 0-.573.075-.748.224-.171.147-.26.365-.26.65 0 .26.086.504.255.73.17.229.492.53.966.907.594.463 1.038.954 1.325 1.461.292.509.437 1.09.437 1.755ZM12.903 11.846H9.94l1.795-9.092H9.33L9.853.176h7.794l-.535 2.578H14.7l-1.797 9.092ZM16.331 11.846 18.672.178h3.01L19.34 11.846h-3.008ZM27.666 2.596c-.549 0-1.042.206-1.481.618-.439.415-.783.988-1.036 1.716a7.266 7.266 0 0 0-.375 2.372c0 .716.14 1.247.424 1.602.283.342.689.518 1.22.518.414 0 .847-.046 1.272-.154.432-.116.937-.305 1.514-.561v2.584c-1.027.48-2.141.707-3.337.707-1.312 0-2.33-.395-3.035-1.174-.709-.788-1.06-1.905-1.06-3.353 0-1.42.255-2.716.77-3.897.512-1.18 1.212-2.067 2.092-2.672C25.516.3 26.525 0 27.664 0c1.338 0 2.554.349 3.647 1.051L30.189 3.48a7.695 7.695 0 0 0-1.296-.658 3.34 3.34 0 0 0-1.227-.226ZM39.626 3.673c0 1.34-.43 2.398-1.298 3.155-.87.766-2.056 1.143-3.562 1.143h-.651l-.762 3.875h-2.966L32.726.178h2.828c1.312 0 2.32.303 3.013.906.713.603 1.06 1.468 1.06 2.59ZM34.648 5.42h.48c.459 0 .832-.152 1.115-.468.283-.311.423-.702.423-1.185 0-.313-.094-.566-.274-.759-.18-.19-.428-.287-.75-.287h-.45l-.544 2.699ZM45.705 9.661h-3.399l-.95 2.185h-3.072L43.92.178h3.813l.93 11.668H45.78l-.074-2.185Zm-2.315-2.49h2.22l-.131-3.384-.013-.687c0-.399.008-.748.033-1.046a9.036 9.036 0 0 1-.466 1.325L43.39 7.171ZM54.053 4.5 56.42.176h3.304l-4.636 7.137-.92 4.533h-2.97l.912-4.528L50.315.18h3.056l.682 4.32Z"/></g><defs><clipPath id="a"><path fill="#fff" transform="translate(.59)" d="M0 0h59.133v12H0z"/></clipPath></defs></svg>