<svg width="41" height="12" viewBox="0 0 41 12" fill="none" xmlns="http://www.w3.org/2000/svg"><g clip-path="url(#a)"><path d="M21.172 1.735H15.39v1.418h5.78V1.735Z" fill="#2D4EBB"/><path d="M18.99 8.933v-5.78h-1.418v5.78h1.417ZM27.283 3.792v5.141h1.418V4.731s.814-.346 1.685.07l.257-1.197s-1.844-.583-3.36.188ZM31.536 3.792v5.141h1.418V4.731s.814-.346 1.684.07l.258-1.197s-1.844-.583-3.36.188ZM37.735 3.35c-1.145 0-1.761.27-1.761.27l.118 1.207s.488-.23 1.464-.277c1.231-.058 1.031 1.052 1.031 1.052s-3.121-.61-3.121 1.704 2.913 1.885 4.538 1.43V5.603c0-1.876-1.123-2.252-2.269-2.252Zm-.838 3.93c0-1.082 1.69-.64 1.69-.64v1.22s-1.69.5-1.69-.58ZM25.972 5.67s.007-2.277-2.307-2.277-2.565 2.31-2.565 2.31-.336 3.376 2.815 3.376c1.062 0 1.767-.33 1.767-.33l-.21-1.225s-.317.296-1.438.296c-1.12 0-1.47-.863-1.47-1.14h3.408V5.67Zm-3.408 0s.165-1.1 1.068-1.1.976 1.1.976 1.1h-2.044Z" fill="#2D4EBB"/><path d="M7.08 7.235s-1.332.699-1.27 1.795c.063 1.097 1.536 2.766 2.424 2.435.889-.331 3.362-1.761 3.615-3.169.253-1.407-2.207-2.106-2.207-2.106L7.08 7.235ZM10.517 1.256A5.595 5.595 0 0 0 4.631.519L3.192 2.574c.141.47.508.837.976.976.824.273 4.395-1.104 4.395-1.104l1.954-1.19Z" fill="#2844AD"/><path d="M1.136 3.272S2.342 1.059 3.95.544c1.611-.515 1.383 1.097 0 1.75-1.383.654-2.251 1.03-2.815.978ZM.907 3.957S-.946 9.15 4.13 11.519c0 0 .394-2.075-.325-3.388A16.747 16.747 0 0 0 1.89 5.174c-.354-.385-.683-.79-.983-1.217ZM12.02 8.981s-1.324 2.538-3.24 2.538a.367.367 0 0 1-.242-.461c.005-.011.007-.022.014-.034.118-.369 1.318-1.676 3.469-2.043ZM10.561 1.294a5.334 5.334 0 0 1 1.681 2.175 6.668 6.668 0 0 1 .242 4.44c-.325.857-.824.633-1.902.405-1.08-.228-5.184-1.383-6.242-2.79-1.059-1.408-.242-2.538 1.13-3.268 1.372-.73 4.183-1.522 5.091-.962Z" fill="#5493F7"/><path d="m4.859 10.053-.096-2.272 3.07-.183v2.238c0 .094 0 0 0 0l-2.98.179s.024.05.006.038Z" fill="#3C3B6E"/><path d="M12.641 11.226v.31c0 .101 0 0 0 0L4.965 12v-.304h.051l7.612-.457c.002 0-.005-.027.013-.013Z" fill="#B12234"/><path d="M12.64 11.226h-.031l-7.663.463v-.329h.052l7.611-.457a.068.068 0 0 1 .052 0l-.02.323ZM12.603 10.25v.329h-.038l-7.611.463a.068.068 0 0 1-.052 0v-.329h.059l7.61-.463h.032Z" fill="#FEFEFE"/><path d="m12.603 10.25-7.676.463v-.324l7.613-.464h.058l.005.325Z" fill="#B12234"/><path d="M12.598 9.912h-.031l-7.67.463v-.329l3.04-.177h.076l4.534-.273h.051v.316Z" fill="#FEFEFE"/><path d="m4.897 11.036 7.67-.464v.325l-7.67.463v-.324ZM7.885 7.902v-.329l4.612-.28v.312h-.058l-4.505.297s-.038.014-.05 0Z" fill="#B12234"/><path d="m7.885 7.902.557-.038 4.042-.241v.324l-4.55.284c-.013.014-.036.014-.051 0v-.329h.002ZM7.935 9.538V9.21h.051l4.53-.28h.051v.33l-4.543.273s-.09.02-.09.006Z" fill="#FEFEFE"/><path d="m12.56 8.93-4.625.28v-.33h.051l4.53-.273h.051l-.007.323Z" fill="#B12234"/><path d="m12.547 8.6-.927.059-3.685.221v-.324l4.547-.273h.045l.02.318Z" fill="#FEFEFE"/><path d="m7.935 9.538 4.599-.277v.322l-4.586.273-.013-.318ZM12.54 8.27h-.031l-4.574.286v-.331l1.42-.081 3.172-.197.013.322Z" fill="#B12234"/><path d="M7.087 9.337v-.108a.147.147 0 0 1-.052-.038h.07v-.076.058c0 .02 0 .032.044 0h.052l-.052.045a.359.359 0 0 0 0 .07l-.062-.038v.087ZM5.5 9.285h.089a.148.148 0 0 1 0-.062v.07c0 .024 0 0 0 0h.076s0 .03-.051.037c-.051.007 0 0 0 .052a.253.253 0 0 1 0 .058l-.058-.038a.192.192 0 0 1-.058.045.359.359 0 0 0 0-.07v-.031l-.059-.038.06-.023ZM6.432 8.683l-.058-.038-.058.052a.432.432 0 0 1 0-.076l-.058-.045h.07a.432.432 0 0 1 0-.076v.058h.095l-.051.045a.038.038 0 0 0 0 .031c.025.011.042.03.06.05ZM5.493 8.048v-.07.07Zm0-.1-.052-.039H5.5s.03 0 .03-.031a.359.359 0 0 1 0 .011h.064a.423.423 0 0 1-.045.045m.002.031a.359.359 0 0 0 0 .07l-.063-.039.063-.031ZM7.218 7.806l-.045.031c-.013.012-.018.032-.007.045l.007.007v.058l-.062-.038-.059.051v-.076l-.058-.044h.094a.294.294 0 0 1 0-.063v.038c0 .038 0 .045.058.038h.045l.027-.047ZM5.213 8.612h.07v-.07a.359.359 0 0 1 0 .07h.069a.147.147 0 0 1-.051.038m.002.045v.062l-.058-.038h-.032l-.058.045a.148.148 0 0 1 0-.063v-.045H5.11l.193.039ZM6.983 8.511l-.058.045a.18.18 0 0 1 0 .07l-.058-.039h-.032a.214.214 0 0 1-.058.052v-.076c0-.018 0 0 0 0a.165.165 0 0 1-.051-.045h.062a.359.359 0 0 1 0-.07V8.5c0 .038 0 .038.045.031h.051l.099-.02Z" fill="#FDFDFD"/><path d="M7.662 9.064a.359.359 0 0 1 0 .07h.069l-.051.037v.038a.1.1 0 0 1 0 .063l-.059-.038a.128.128 0 0 1-.058.045v-.101a.147.147 0 0 1-.051-.038h.07l.08-.076ZM6.032 9.254h.063a.359.359 0 0 1 0-.07v.063m.038 0h.058l-.051.045v.031a.36.36 0 0 1 0 .07l-.059-.038-.058.051V9.33a.038.038 0 0 0 0-.031h-.051l.16-.052Z" fill="#FDFDFE"/><path d="M5.043 7.844v.063h.062l-.045.038v.107l-.062-.045-.058.039v-.063l-.063-.038h.1a.407.407 0 0 1 .066-.1ZM6.146 8.01l-.058-.038-.058.051a.432.432 0 0 1 0-.076l-.058-.045h.058V7.84a.36.36 0 0 1 0 .069h.07l-.059.045v.031a.184.184 0 0 1 .105.025ZM6.585 7.75a.359.359 0 0 1 0 .07h.07l-.059.051v.07l-.051-.039H6.5l-.045.038a.148.148 0 0 1 0-.062m.003-.038-.059-.038h.077l-.018.038ZM7.688 7.916l-.058-.038-.063.051a.432.432 0 0 0 0-.076.166.166 0 0 1-.051-.045h.062a.122.122 0 0 1 .07 0l-.052.045a.293.293 0 0 1 0 .063h.092ZM6.571 9.355v-.063l-.063-.045h.07v-.069.07c0 .017 0 0 0 0h.076l-.058.05a.359.359 0 0 0 0 .07l-.063-.038-.052.045.09-.02ZM5.209 9.303l-.058.045a.218.218 0 0 1 0 .076l-.052-.038h-.044l-.052.038a.359.359 0 0 0 0-.07v-.03l-.063-.039h.077a.432.432 0 0 0 0-.076v.076h.069l.123.018ZM7.3 8.632a.181.181 0 0 1 0-.07v-.076h.07V8.41v.07a.122.122 0 0 1 .07 0l-.052.044a.36.36 0 0 0 0 .07l-.058-.038h-.038l.009.076ZM5.835 8.486c0 .059 0 .059.083.059l-.052.044a.18.18 0 0 1 0 .07l-.058-.038h-.031l-.052.044a.18.18 0 0 1 0-.069l-.058-.045h.063l.105-.065Z" fill="#FDFDFD"/><path d="M6.133 9.614a.359.359 0 0 1 0 .07h.07l-.045.045v.044a.253.253 0 0 1 0 .058l-.059-.038a.214.214 0 0 1-.058.052v-.076c0-.025 0 0 0 0l-.062-.045h.058c.022 0 .04-.016.044-.038a.279.279 0 0 1 .052-.072Z" fill="#FEFEFE"/><path d="M4.992 9.773h.076v-.076.063h.069l-.058.051a.359.359 0 0 0 0 .07l-.063-.038-.058.044v-.069l.034-.045ZM6.589 9.818v-.063c0-.02 0 0 0 0l-.063-.044h.076l.063-.097a.359.359 0 0 1 0 .07.1.1 0 0 1 .063 0l-.058.045a.36.36 0 0 1 0 .069l-.007-.025h-.031l-.052.038.009.007ZM7.682 9.52v.076c0 .025 0 0 0 0h.076l-.058.05v.101l-.063-.045-.058.051V9.68l-.014-.062h.07a.55.55 0 0 1 .047-.097Z" fill="#FDFDFE"/><path d="M5.696 8.345a.253.253 0 0 0-.058.052.359.359 0 0 1 0 .07l-.062-.039-.063.052a.432.432 0 0 0 0-.076l-.063-.045a.359.359 0 0 1 .07 0l.03-.031a.254.254 0 0 1 0-.059.148.148 0 0 1 0 .063l.146.013ZM7.2 8.41l-.063-.044-.058.051v-.076l-.062-.045h.051c.038 0 .038 0 .052-.045V8.2v.076h.069l-.058.052.07.082ZM5.399 9.203v-.038H5.36l-.052.044v-.076c0-.024 0 0 0 0l-.058-.045h.07a.146.146 0 0 1 0-.076v.07h.075l-.062.051a.953.953 0 0 1 .065.07ZM7.751 8.225l-.058.051a.359.359 0 0 1 0 .07h-.038l-.058.05v-.075l-.063-.038h.07a.36.36 0 0 0 0 .006l.147-.064ZM6.768 8.981h.077v-.076a.359.359 0 0 1 0 .07h.069l-.058.05a.432.432 0 0 0 0 .077l-.058-.045h-.032l-.058.045v-.103l.06-.018ZM5.97 8.345h.062s.032 0 .038-.03V8.25v.076c0 .025 0 0 0 0h.077l-.059.052a.359.359 0 0 1 0 .07L6.03 8.41a.214.214 0 0 1-.058.052v-.076c0-.025 0 0 0 0l-.002-.04Z" fill="#FEFEFE"/><path d="M5.506 9.742h.063s.031 0 .038-.031a.293.293 0 0 1 0-.063.359.359 0 0 1 0 .07h.07l-.06.05a.359.359 0 0 0 0 .07L5.556 9.8l-.058.052V9.744l.009-.002ZM7.243 9.787l-.058-.045-.063.051v-.1l-.062-.045h.076a.122.122 0 0 1 0-.07v.045c0 .038 0 .038.058.038H7.3l-.058.052v.031a.135.135 0 0 1 0 .043Z" fill="#FDFDFE"/><path d="M5.741 9.037h.063v-.094.076c0 .025 0 0 0 0h.076l-.058.052a.359.359 0 0 0 0 .069l-.063-.038c-.018.016-.035.031-.058.045v-.072l.04-.038ZM6.253 8.981h.077v-.076.07h.069l-.058.05v.063l-.058-.03m-.036 0-.052.044v-.076c0-.025 0 0 0 0l.052.031ZM7.478 9.082l-.058-.045h-.032l-.058.045a.359.359 0 0 1 0-.07L7.3 8.981h.076v-.076.058s0 .038.038.031h.058l-.051.045v.038l.058.005ZM6.724 8.29l-.058.058v.076l-.059-.045m-.035 0-.052.045a.18.18 0 0 1 0-.07v-.03l-.058-.039h.063v-.07.07l.047.094ZM4.998 8.536a.359.359 0 0 1 0-.07l-.062-.044h.058c.031 0 .031 0 .044-.045a.198.198 0 0 1 0-.052v.07h.077l-.063.051a.18.18 0 0 1 0 .07l-.058-.039h-.032a.313.313 0 0 1 .036.059ZM6.502 9.455s-.058.032-.063.059a.511.511 0 0 0 0 .082l-.058-.044H6.35l-.058.044V9.52c0-.024 0 0 0 0l-.059-.038h.07v-.069a.293.293 0 0 1 0 .063h.031l.168-.02ZM5.475 8.829h.07v-.076a.432.432 0 0 1 0 .076h.075l-.058.051a.434.434 0 0 0 0 .076l-.058-.044h-.031l.051.069v-.076l-.05-.076ZM7.212 8.867l-.058-.038h-.032l-.058.045v-.101l-.058-.038h.076a.359.359 0 0 1 0-.07v.063h.101l-.052.038v.045l.08.056ZM5.936 8.11l-.052.045v.101l-.062-.045-.052.045V8.18l-.058-.038h.07v-.076.076c0 .024 0 0 0 0h.069l.085-.032ZM7.478 8.023l-.045.038V8.1a.148.148 0 0 1 0 .063l-.058-.038h-.031l-.058.051a.432.432 0 0 1 0-.076m.002-.031-.052-.038H7.3v-.07a.359.359 0 0 1 0 .07h.063l-.074.038ZM5.011 8.981v-.076c0-.025 0 0 0 0l-.058-.038h.07V8.79v.07c0 .017 0 0 0 0h.062l-.031.037c-.032.038 0 0 0 .063v.051l-.063-.044.02.013ZM6.551 8.905v-.1a.164.164 0 0 1-.058-.039h.063a.36.36 0 0 0 0-.07v.077h.076l-.063.051V8.9l.096-.044-.114.049ZM7.3 9.406h.059v-.062.069c0 .025 0 0 0 0h.062a.076.076 0 0 1-.044.038v.107l-.052-.03h-.051l-.045.037a.148.148 0 0 1 0-.063m.002-.04.07-.051-.07.051ZM7.014 9.424l-.051.045V9.5a.359.359 0 0 0 0 .07l-.058-.038h-.038l-.052.044V9.5a.237.237 0 0 1-.058-.038h.07a.359.359 0 0 1 0-.07.293.293 0 0 1 0 .063l.187-.03ZM5.994 9.482l-.058.052v.031a.181.181 0 0 1 0 .07l-.038-.02H5.86l-.058.044v-.1l-.063-.039h.101l.154-.038ZM5.354 9.43a.432.432 0 0 1 0 .077h.07l-.06.051a.432.432 0 0 1 0 .076l.032-.02a.214.214 0 0 1-.058.052V9.59c0-.025 0 0 0 0l-.063-.038h.076c.003 0-.004-.09.003-.121ZM6.23 8.093h.069a.359.359 0 0 1 0-.07.359.359 0 0 1 0 .07h.069l-.058.051m.002.031a.359.359 0 0 0 0 .07L6.249 8.2l-.058.051v-.1l-.051-.032.172.056ZM6.851 7.958a.434.434 0 0 1 0 .076h.07l-.052.045v.07l-.058-.039-.058.045a.148.148 0 0 1 0-.062v-.045l-.045-.032h.063c.004 0 .074-.024.08-.058ZM5.398 8.29l-.051-.039.051.038Zm-.09-.039-.057.045v-.07c0-.017 0 0 0 0l-.059-.037h.07a.432.432 0 0 1 0-.076v.07h.07l-.052.044v.045c.038 0 .078.006.114.02l-.085-.04ZM5.994 8.797h.07v-.076.052c.002.02.02.036.042.033.002 0 .007 0 .009-.002h.045l-.052.045a.359.359 0 0 1 0 .07l-.063-.045-.058.051v-.076l.007-.052ZM7.764 8.695l-.051.038v.1l-.058-.038-.052.045a.18.18 0 0 1 0-.07.038.038 0 0 0 0-.03.164.164 0 0 1-.058-.039h.07a.18.18 0 0 1 0-.07v.064h.149Z" fill="#FEFEFE"/></g><defs><clipPath id="a"><path fill="#fff" transform="translate(.577)" d="M0 0h39.427v12H0z"/></clipPath></defs></svg>