<svg width="55" height="12" viewBox="0 0 55 12" fill="none" xmlns="http://www.w3.org/2000/svg"><g clip-path="url(#a)" fill="#009393"><path fill-rule="evenodd" clip-rule="evenodd" d="M3.811 0h8.166c.195 0 .375.104.473.273l2.379 4.14a.546.546 0 0 1-.09.66l-6.548 6.48a.544.544 0 0 1-.766 0l-6.54-6.47a.546.546 0 0 1-.08-.674L3.346.26A.544.544 0 0 1 3.811 0Zm7.112 1.848V3.01H8.597v.806c1.634.086 2.86.44 2.869.863v.883c-.01.424-1.235.777-2.87.864v1.976H7.053V6.426c-1.634-.087-2.86-.44-2.868-.864V4.68c.009-.424 1.234-.777 2.868-.863V3.01H4.726V1.848h6.197Zm-3.098 3.97c1.743 0 3.2-.298 3.557-.697-.302-.339-1.396-.605-2.785-.679v.844a14.7 14.7 0 0 1-1.545 0v-.844c-1.389.074-2.482.34-2.785.679.357.399 1.814.698 3.558.698Z"/><path d="m18.017 2.247 1.888-.213v1.834h1.638v1.594h-1.651v2.471c0 .585.244.877.734.877.314 0 .576-.053.786-.16l.433 1.595a4.36 4.36 0 0 1-1.364.293c-.76.035-1.363-.146-1.809-.545-.437-.408-.655-1.094-.655-2.06V5.462h-1.154V3.868h1.154V2.247ZM28.608 7.734h-4.759c.053.337.232.616.538.837.306.213.712.32 1.22.32.724 0 1.284-.174 1.677-.52l1.062 1.197c-.647.646-1.573.97-2.78.97-1.153 0-2.049-.315-2.687-.944-.629-.629-.944-1.479-.944-2.55 0-1.01.31-1.826.931-2.446.62-.629 1.455-.943 2.504-.943 1.145 0 2.019.354 2.622 1.063.612.709.817 1.714.616 3.016ZM23.849 6.34h3.068a.906.906 0 0 0-.472-.77c-.297-.187-.655-.28-1.075-.28-.376 0-.699.093-.97.28a1.373 1.373 0 0 0-.55.77ZM30.182 2.247l1.888-.213v1.834h1.638v1.594h-1.651v2.471c0 .585.244.877.734.877.314 0 .577-.053.786-.16l.433 1.595a4.36 4.36 0 0 1-1.364.293c-.76.035-1.363-.146-1.809-.545-.437-.408-.655-1.094-.655-2.06V5.462h-1.154V3.868h1.154V2.247ZM34.718 1.09h1.9v3.548c.464-.611 1.12-.917 1.967-.917 1.721 0 2.582 1.05 2.582 3.15v3.52H39.28V6.885c0-.452-.114-.802-.341-1.05-.218-.248-.516-.372-.892-.372-.41 0-.756.142-1.035.425-.271.284-.407.678-.407 1.183v3.322h-1.887V1.09ZM48.57 7.734h-4.758c.053.337.232.616.538.837.306.213.712.32 1.219.32.725 0 1.285-.174 1.678-.52l1.062 1.197c-.647.646-1.573.97-2.78.97-1.153 0-2.049-.315-2.687-.944-.63-.629-.944-1.479-.944-2.55 0-1.01.31-1.826.931-2.446.62-.629 1.455-.943 2.504-.943 1.145 0 2.019.354 2.622 1.063.611.709.817 1.714.616 3.016ZM43.813 6.34h3.068a.906.906 0 0 0-.472-.77c-.297-.187-.656-.28-1.075-.28-.376 0-.7.093-.97.28a1.372 1.372 0 0 0-.55.77ZM49.353 3.841h1.757l.145.718c.41-.585.987-.877 1.73-.877.611 0 1.14.199 1.586.597l-.787 1.515a1.723 1.723 0 0 0-1.035-.332c-.429 0-.787.137-1.075.412-.288.266-.433.633-.433 1.103v3.415h-1.888V3.84Z"/></g><defs><clipPath id="a"><path fill="#fff" transform="translate(.724)" d="M0 0h53.854v12H0z"/></clipPath></defs></svg>