<svg width="26" height="12" viewBox="0 0 26 12" fill="none" xmlns="http://www.w3.org/2000/svg"><g clip-path="url(#a)"><path d="M23.407 11.89V8.656c0-.097-.01-.193-.034-.286a.502.502 0 0 0-.413-.392c-.046-.01-.092-.014-.138-.02-.05-.016-.103-.01-.155-.009-.114.001-.228-.006-.341.004-.088.01-.177.015-.26.048-.209.083-.3.25-.33.46-.003.017-.003.036-.007.053-.008.024-.006.048-.004.073.002 1.107 0 2.214 0 3.321 0 .032.005.065-.019.092h.545c.001-.022.004-.044.004-.066l-.001-1.362c0-.047.012-.06.06-.059.169.003.338.003.507 0 .047 0 .06.011.06.059-.002.466-.002.932-.002 1.398l.002.03h.545c-.027-.033-.019-.073-.019-.11Zm-.576-1.868a20.55 20.55 0 0 0-.527 0c-.04 0-.05-.011-.05-.05l.001-1.292c0-.172.075-.244.248-.246.063 0 .125 0 .188.004.1.008.161.065.18.164a.51.51 0 0 1 .008.09v.622l.001.658c0 .038-.009.05-.05.05Z" fill="#351505"/><path d="M23.424 8.705c0-.098-.003-.196-.023-.293-.038-.185-.126-.33-.308-.41a.944.944 0 0 0-.273-.061h-.508l-.048.004c-.155.017-.302.054-.406.18a.676.676 0 0 0-.143.386c0 .022.004.044-.008.065l.003.041v3.335c0 .016-.003.032-.004.048.024-.027.02-.06.02-.092V8.587c-.003-.025-.005-.049.003-.073.004-.017.004-.036.006-.053.031-.21.122-.377.33-.46.084-.033.173-.037.26-.048.114-.01.228-.003.342-.004.052 0 .104-.007.155.009.046.006.092.01.138.02a.502.502 0 0 1 .413.392c.024.093.034.19.034.286v3.234c0 .037-.008.077.019.11l-.002-.072V8.705ZM18.144 10.395c-.018-.083-.016-.086.055-.133.137-.091.198-.228.23-.383.01-.049.014-.099.02-.149.006-.017.006-.035.006-.054V8.6c0-.016 0-.032-.004-.047-.009-.054-.014-.108-.026-.16-.056-.257-.215-.398-.483-.431-.021-.003-.044-.003-.066-.008a.144.144 0 0 0-.042-.004h-.984c-.016 0-.032-.001-.047.008a.09.09 0 0 0-.014.016c-.012.027-.007.056-.007.084v3.838c0 .029.005.058-.006.085V12h.546c0-.53 0-1.062-.002-1.593 0-.041.013-.05.051-.048.075.002.15.004.224-.001.045-.003.057.016.065.054l.22 1.012.116.534c.003.014.003.028.004.042h.52c-.02-.02-.025-.045-.03-.07-.117-.512-.231-1.024-.346-1.535Zm-.225-.824c0 .032 0 .065-.003.097-.012.15-.094.228-.247.23-.101.001-.202-.002-.303.001-.038.001-.046-.011-.046-.047.002-.23 0-.458 0-.688 0-.227.002-.454 0-.68 0-.04.01-.052.05-.05.104.002.21-.002.314.002.142.006.218.077.23.22.007.069.005.14.005.21v.705Z" fill="#351505"/><path d="M18.151 10.356c-.009-.04.003-.053.033-.069a.429.429 0 0 0 .146-.13c.092-.124.117-.268.133-.415V8.535c-.005-.035-.009-.07-.016-.106-.035-.186-.11-.343-.296-.427a.843.843 0 0 0-.26-.061l-1 .001-.114.002-.002.602v3.382l.001.052c.011-.027.005-.056.005-.085V8.057c0-.028-.005-.057.008-.084a.098.098 0 0 1 .014-.016c.014-.01.03-.008.047-.008h.984c.015 0 .029 0 .042.004.022.005.044.005.066.008.268.033.427.174.483.43.012.053.017.107.026.16.005.016.004.032.004.048v1.077c0 .019 0 .037-.005.054-.008.05-.012.1-.022.15-.032.154-.092.29-.23.382-.07.046-.073.05-.054.133l.345 1.535c.006.025.011.051.031.07l-.026-.128c-.114-.505-.227-1.01-.343-1.516ZM14.578 11.896v-1.743c0-.113 0-.114-.113-.114h-.598c-.08 0-.085.006-.086.087v.235c0 .148-.01.133.133.135.043 0 .089-.01.13.017a.064.064 0 0 1 .006.01.015.015 0 0 1 .002.006c.006.017.005.035.005.053v.856c0 .018 0 .035-.005.052a.016.016 0 0 1-.002.007.048.048 0 0 1-.004.006c-.022.023-.051.02-.079.02-.097.001-.194.002-.29 0-.122 0-.195-.056-.233-.172a.403.403 0 0 1-.016-.125v-2.51c0-.046.005-.092.02-.137a.214.214 0 0 1 .204-.158c.05-.003.1-.002.151-.001.152.002.238.08.255.233-.003.12 0 .239-.001.358 0 .018 0 .037.014.05.008.006.018.01.028.01.145.003.29.002.435.001.03 0 .045-.015.045-.044-.003-.192.015-.386-.019-.577-.051-.296-.235-.459-.55-.49-.02-.001-.04-.001-.06-.006a3.46 3.46 0 0 0-.455-.001c-.058.007-.117.01-.174.024a.481.481 0 0 0-.357.32c-.037.098-.046.2-.053.302-.007.024-.004.048-.004.072v2.604c0 .022-.002.044.003.066.012.057.007.115.017.172.041.235.164.396.403.456.017.004.043 0 .044.03h1.223c-.026-.031-.019-.069-.02-.104Z" fill="#351505"/><path d="M14.05 10.553v.914c0 .007.003.016.002.023.005-.017.004-.034.004-.052v-.856c0-.018.002-.036-.004-.053.001.008-.002.017-.002.024Z" fill="#351505"/><path d="M14.596 10.072c0-.03.003-.052-.042-.052-.25.002-.5.002-.75 0-.033 0-.04.013-.04.043.002.136.003.273 0 .41 0 .036.014.042.046.042.077-.001.153.001.23.002a.019.019 0 0 1 .01.007.058.058 0 0 0-.007-.011c-.04-.027-.086-.016-.13-.017-.143-.002-.132.013-.133-.135v-.235c.001-.08.006-.086.086-.086h.599c.112 0 .112 0 .112.113v1.743c0 .035-.006.073.02.104l-.002-.03.001-1.898Z" fill="#351505"/><path d="M13.33 11.97c-.24-.06-.362-.221-.403-.456-.01-.057-.005-.115-.017-.172-.005-.022-.004-.044-.004-.066V8.672c0-.024-.002-.048.005-.072.007-.103.016-.204.052-.302a.481.481 0 0 1 .358-.32c.057-.014.115-.017.173-.024.152-.007.304-.011.456.002.02.004.04.004.06.006.315.03.498.193.55.49.034.19.015.384.018.576 0 .03-.015.044-.045.044-.144.001-.29.002-.434 0a.052.052 0 0 1-.028-.01c-.015-.014-.014-.033-.014-.05 0-.12-.002-.24 0-.359-.017-.153-.102-.231-.254-.233-.05 0-.1-.002-.151 0a.214.214 0 0 0-.205.16.443.443 0 0 0-.02.136v2.51c0 .042.004.084.017.125.037.116.11.171.232.172.097.002.194.001.29 0 .029 0 .058.003.08-.02a.056.056 0 0 0 .003-.006.019.019 0 0 1-.01.006c-.116.002-.233 0-.35.005-.176.007-.242-.12-.242-.247-.002-.522-.002-1.044-.002-1.566 0-.341-.002-.682.003-1.024.002-.141.077-.238.232-.237h.14c.127.005.212.088.221.218.02.096.005.193.01.29l.002.148h.495c.023 0 .05.007.048-.033-.006-.212.018-.425-.024-.635a.563.563 0 0 0-.193-.34c-.124-.102-.271-.128-.424-.141h-.472l-.054.005c-.22.02-.39.116-.474.33a.902.902 0 0 0-.057.308l.002.555v2.155l-.002.066c.007.06.006.122.019.182.043.196.14.347.338.418.04.014.083.016.118.04 0-.03-.026-.026-.043-.03ZM20.185 11.92v-1.303c0-.026-.002-.053.013-.076.025-.025.056-.018.085-.018.146-.004.293.005.438-.005.078-.011.156-.02.23-.05.192-.077.287-.229.325-.424.01-.049.014-.099.02-.148.006-.018.005-.036.005-.054V8.629c0-.018.001-.036-.004-.053-.014-.075-.017-.152-.04-.226a.508.508 0 0 0-.427-.377c-.048-.008-.096-.013-.144-.02-.02-.005-.04-.004-.06-.004h-.868c-.026 0-.053-.006-.071.02-.012.034-.008.069-.008.103v3.812c0 .04.009.081-.02.116h.545c-.02-.023-.02-.052-.02-.08Zm.067-3.487c.103.004.206 0 .308.004.124.005.2.08.201.203.003.4.003.8 0 1.2 0 .122-.07.19-.192.196-.109.004-.218 0-.328.004-.04 0-.037-.02-.037-.048V8.484c0-.038.006-.052.048-.05Z" fill="#351505"/><path d="M20.208 10.54a.05.05 0 0 1 .01-.005c.028-.011.06-.003.09-.004l.429-.001.03-.004c.201-.024.37-.103.465-.295.05-.1.066-.21.077-.32V8.56c-.005-.04-.008-.08-.016-.118-.03-.165-.095-.31-.246-.404a.803.803 0 0 0-.347-.097c-.322 0-.645 0-.968.002l-.073.001V12c.029-.035.02-.077.02-.116V8.07c0-.034-.004-.068.008-.102.017-.026.045-.02.07-.02h.87c.02 0 .04-.002.06.004.047.007.095.012.143.02.22.04.363.164.427.377.023.074.026.15.04.225.005.018.004.036.004.054v1.212c0 .018.001.037-.004.054-.007.05-.012.1-.021.15-.038.194-.133.346-.326.423-.073.03-.151.038-.229.05-.145.01-.292.001-.438.004-.029.001-.06-.006-.085.018-.014.024-.013.05-.013.077v1.303c0 .028-.002.057.02.08v-1.395l.003-.066ZM16.37 11.632c0-.107 0-.107-.11-.108h-.58c-.031 0-.064.004-.093-.016a.055.055 0 0 1-.01-.018c-.004-.015-.004-.03-.004-.046v-1.219c0-.016 0-.032.005-.047l.001-.002.003-.006a.043.043 0 0 1 .01-.011c.026-.015.055-.01.083-.01l.524-.001c.022 0 .044.003.065-.005a.082.082 0 0 0 .015-.013c.016-.026.01-.055.009-.083-.004-.118.01-.236-.008-.354a.081.081 0 0 0-.015-.012c-.036-.012-.072-.006-.108-.006h-.483c-.026 0-.053.003-.078-.008a.037.037 0 0 1-.016-.017c-.008-.019-.007-.04-.007-.06V8.51c0-.019-.001-.038.005-.055l.002-.006a.055.055 0 0 1 .005-.009c.027-.024.06-.019.092-.02h.603c.084 0 .09-.006.09-.088v-.295c0-.023.003-.048-.01-.07-.017-.02-.04-.017-.062-.017H15.12c-.022 0-.044-.001-.06.02-.011.034-.007.068-.007.102v3.813c0 .04.008.081-.02.116h1.357c-.021-.023-.02-.052-.02-.08v-.288ZM15.589 9.659Z" fill="#351505"/><path d="M15.053 11.884V8.07c0-.034-.004-.068.008-.102.015-.021.037-.02.06-.02h1.177c.022 0 .045-.003.062.017.013.022.01.046.01.07v.295c0 .082-.006.088-.09.088h-.603c-.032 0-.065-.004-.092.02a.068.068 0 0 0-.005.01.023.023 0 0 1 .01-.01l.066-.005.677.001c.042 0 .056-.012.055-.054-.002-.145 0-.29 0-.434-.017-.002-.035-.004-.053-.004h-1.247c-.018 0-.036.002-.054.004l.001.036v3.975l-.002.042c.029-.035.02-.077.02-.116Z" fill="#351505"/><path d="M15.58 11.461c-.002-.418-.002-.836-.001-1.254 0-.01-.004-.021 0-.031l-.001.002a.155.155 0 0 0-.005.047v1.22c0 .015 0 .03.004.044-.002-.009.002-.02.002-.028ZM15.59 10.164h-.001ZM15.589 9.66v-.001c-.018-.011-.01-.029-.01-.043V8.482c0-.009-.004-.02-.002-.029-.006.018-.004.037-.005.056V9.59c0 .02 0 .04.007.059a.037.037 0 0 0 .016.017c.025.01.052.008.078.008h.483c.036 0 .072-.006.108.006a.08.08 0 0 1 .015.012c.018.118.004.236.008.354 0 .028.007.057-.009.083a.087.087 0 0 1-.015.013c-.02.008-.043.005-.065.005h-.524c-.028 0-.057-.004-.083.01a.043.043 0 0 0-.01.012.024.024 0 0 1 .007-.006c.02-.015.043-.007.064-.007l.64-.003v-.485l-.64-.003c-.02 0-.044.008-.063-.007ZM16.276 11.507c-.229 0-.457-.002-.686-.004-.007-.003-.01-.006-.012-.01l.009.015c.028.02.061.016.093.016h.58c.11 0 .11 0 .11.108v.288c0 .028-.002.057.019.08l-.002-.384c0-.109 0-.108-.11-.109ZM25.027 9.96c.167-.64.33-1.28.494-1.921.005-.02.003-.045.024-.06v-.035h-.02c-.017.006-.036.004-.054.004h-.373c-.024 0-.049-.004-.07.013-.024.025-.026.058-.032.09-.108.517-.215 1.035-.325 1.552-.007.033-.003.083-.039.09a.016.016 0 0 1-.005.002h-.004c-.038 0-.032-.055-.04-.086-.12-.509-.237-1.018-.355-1.528-.009-.04-.012-.084-.038-.12-.013-.011-.029-.012-.045-.012h-.402c-.017 0-.033 0-.041.018-.005.023.003.044.008.065.204.781.407 1.563.612 2.344.011.043.026.085.029.13v1.414c0 .02.002.04-.005.06V12h.545l-.002-.977c0-.544.003-.543.138-1.062Z" fill="#351505"/><path d="m25 7.949-.02.103-.11.539c-.04.192-.082.383-.123.575l-.108.507c-.001.008 0 .017-.007.02.035-.007.031-.057.038-.09.11-.517.217-1.035.325-1.553.006-.03.008-.064.033-.089.02-.017.046-.012.07-.012h.372c.018 0 .037 0 .054-.005-.174 0-.349-.008-.523.005ZM24.612 9.675l-.097-.423c-.1-.436-.202-.872-.303-1.307l-.505-.002c-.012 0-.025-.003-.03.013.02.077.039.155.06.232.085.314.165.63.247.945l.204.786.146.57c.005.01.006.02.007.03.012.073.002.147.002.22.003.414.002.827.003 1.24.006-.018.004-.039.004-.06v-1.413c-.003-.045-.017-.087-.028-.13-.206-.78-.408-1.563-.612-2.344-.006-.021-.014-.042-.009-.065.009-.018.025-.018.041-.018h.402c.017 0 .033 0 .045.013.026.035.03.078.039.12.117.509.235 1.018.355 1.527.008.031.002.086.04.086-.01-.002-.01-.012-.011-.02ZM25.001 7.948ZM11.031 11.925V8.51c0-.018 0-.036.004-.054.013-.038.046-.033.076-.033h.368c.064-.001.069-.007.07-.07V8.01c0-.02.002-.04-.017-.055-.021-.01-.044-.006-.066-.006h-1.39c-.027 0-.057-.008-.078.02-.017.136-.007.273-.005.409 0 .04.033.04.062.04.107.002.213 0 .32.001.13 0 .136.006.136.137v3.334c0 .037.007.077-.02.11h.545v-.017c-.006-.018-.005-.038-.005-.058Z" fill="#351505"/><path d="M10.51 11.89V8.556c0-.131-.005-.137-.134-.137h-.32c-.03-.001-.062-.001-.063-.041-.002-.136-.012-.273.005-.41.02-.027.051-.02.078-.02h1.39c.022 0 .045-.003.066.007.02.014.018.035.017.055v.343c0 .063-.006.069-.07.07h-.368c-.03 0-.063-.005-.076.033-.004.018-.004.036-.004.054v3.415c0 .02-.001.04.006.057l.003-.054V8.504c0-.021-.01-.044.008-.063.12-.016.24-.005.36-.006.159-.002.156 0 .155-.162-.001-.108-.009-.216.005-.324-.018-.002-.036-.006-.054-.006h-1.489c-.018 0-.035.004-.053.006 0 .147.003.293.002.44 0 .038.01.047.047.046.135-.002.27.002.406-.002.052-.001.07.01.07.067-.002 1.147-.001 2.294-.002 3.44 0 .02-.002.04-.004.06.027-.033.02-.073.02-.11ZM12.412 11.895V8.058c0-.028.004-.056-.006-.083a.096.096 0 0 0-.012-.016c-.016-.012-.035-.01-.053-.01h-.386c-.023 0-.046-.003-.058.022-.008.032-.005.064-.005.097v3.816c0 .04.008.081-.02.116h.545v-.02c-.01-.027-.005-.057-.005-.085Z" fill="#351505"/><path d="M11.892 11.884V8.068c0-.032-.003-.065.005-.097.012-.025.035-.022.058-.022h.386c.018 0 .037-.002.053.01.005.005.009.01.012.016.01.027.006.055.006.083v3.838c0 .027-.005.057.005.083l.001-.545V8.016l-.001-.072-.544.001V12c.027-.035.019-.077.019-.116Z" fill="#351505"/><path d="M14.379.037c-.132.03-.263.058-.395.085a.535.535 0 0 0-.229.1c-.045.035-.09.073-.148.09l.002.003a.01.01 0 0 1 .006.008l.702.49c.1.07.196.144.3.209-.108-.167-.221-.33-.337-.493-.053-.074-.062-.132-.008-.21.072-.1.115-.22.191-.319h-.024c-.006.035-.037.031-.06.037Z" fill="#DA6F00"/><path d="M13.688.248c-.025.022-.055.039-.084.058a.027.027 0 0 1 .004.007c.057-.018.103-.056.148-.091a.535.535 0 0 1 .23-.1c.13-.027.262-.055.393-.085.023-.006.055-.002.06-.037-.114.04-.234.06-.353.083-.144.028-.283.065-.398.165ZM14.28.53c.116.16.23.325.338.492l.026.016c-.11-.162-.212-.33-.332-.482-.076-.099-.073-.172-.005-.27.061-.089.116-.185.157-.286-.077.1-.12.218-.191.32-.054.076-.045.135.008.21Z" fill="#DA6F00"/><path d="M7.165 5.515c-.102-.527-.206-1.053-.31-1.58l-.02-.036-.886.17-1.175.226a.115.115 0 0 1-.023.001l-.02.013a.08.08 0 0 1-.017.004l-.487.527a.603.603 0 0 0-.062.078.056.056 0 0 1 .003.01c-.022.153-.06.303-.091.454-.033.159-.065.318-.1.476a.123.123 0 0 1-.002.008c.124-.033.24-.088.359-.134l1.084-.419c.028-.01.055-.024.083-.036-.03-.06-.08-.104-.119-.156-.055-.073-.114-.142-.17-.213l-.172-.212-.167-.208c-.026-.032-.049-.065-.077-.094-.016-.016-.022-.032-.027-.062.092.047.178.09.264.136.142.076.282.154.425.23l1.36.72c.088.048.175.1.266.143.045.022.074.048.077.1a.054.054 0 0 1 .008.006c.023.053.025.11.036.165.094.453.18.907.271 1.36.022.107-.01.156-.117.177-.285.057-.57.113-.854.171a.199.199 0 0 1-.13-.013.07.07 0 0 0-.08.012c-.02.02-.026.044-.019.072.014.053.08.075.12.032.046-.049.103-.058.162-.07.267-.055.533-.11.8-.163a.197.197 0 0 1 .13.01c.06.029.11 0 .119-.064a.15.15 0 0 1 .046-.089c.264-.269.537-.528.807-.791.018-.018.036-.045.066-.03.025.012.018.042.019.066 0 .01-.002.02-.004.03a.172.172 0 0 0-.007.066c0 .033.002.067-.004.1a.175.175 0 0 0-.008.068c0 .034.002.067-.004.1a.175.175 0 0 0-.008.069c0 .034.002.067-.005.1a.176.176 0 0 0-.007.069c0 .034.002.067-.005.1a.176.176 0 0 0-.007.069c0 .034.002.067-.005.1a.182.182 0 0 0-.007.07c0 .031-.01.056-.032.08-.037.042-.038.079 0 .118.032.032.045.07.053.112.042.237.084.475.124.712.018.105-.01.136-.116.138H8.45a.173.173 0 0 0-.07.007c-.037.007-.074.005-.112.005a.173.173 0 0 0-.07.007c-.036.007-.074.005-.112.005a.202.202 0 0 0-.08.007c-.033.007-.068.005-.102.005a.202.202 0 0 0-.08.007c-.037.007-.075.005-.112.005a.172.172 0 0 0-.07.007c-.033.007-.067.005-.101.005a.203.203 0 0 0-.08.008c-.038.007-.075.004-.113.005a.201.201 0 0 0-.08.006c-.032.007-.066.005-.099.005-.025 0-.05-.003-.073.004-.016.001-.035.006-.042-.013-.006-.017.008-.03.02-.041.06-.051.118-.103.177-.155.183-.158.363-.318.547-.475a.133.133 0 0 1 .08-.036c.04-.003.069-.026.07-.07 0-.034-.023-.055-.057-.06-.043-.007-.07.011-.08.054-.022.092-.106.129-.167.183-.23.203-.46.403-.69.604-.02.016-.038.033-.02.06.028.018.055.005.081 0 .036-.006.072-.004.108-.005A.203.203 0 0 0 7.2 8.74c.033-.006.068-.004.102-.005a.203.203 0 0 0 .08-.007c.037-.007.074-.004.112-.005.024.002.047 0 .07-.007.037-.007.075-.004.112-.005.024.002.047 0 .07-.007.037-.007.075-.004.112-.005a.202.202 0 0 0 .08-.007c.034-.006.068-.005.102-.005a.202.202 0 0 0 .08-.007c.037-.007.075-.005.113-.005.023.002.046 0 .069-.007.037-.007.074-.004.11-.005a.175.175 0 0 0 .067-.006.2.2 0 0 1 .146.021c.03.02.063.017.088-.01.026-.031.022-.066-.004-.094-.036-.037-.047-.082-.055-.13-.039-.232-.082-.464-.12-.696a.195.195 0 0 1 .11-.217l.601-.323c.06-.032.117-.07.192-.057.033.006.058-.016.065-.05.007-.036-.004-.065-.04-.08-.031-.013-.066-.007-.079.023-.028.067-.089.09-.145.12-.219.115-.435.236-.656.349-.03.016-.063.032-.064-.027a.212.212 0 0 0 .005-.066c0-.033-.001-.066.005-.1a.175.175 0 0 0 .007-.068c0-.033-.001-.067.005-.1a.175.175 0 0 0 .007-.068c0-.034-.001-.068.005-.101a.176.176 0 0 0 .007-.069c0-.033-.001-.067.005-.1a.204.204 0 0 0 .008-.08c0-.03-.001-.06.004-.09a.203.203 0 0 0 .007-.081v-.077c-.002-.063.027-.104.087-.125.024-.005.048-.003.072-.003h1.489c.022 0 .044-.001.066.001.025.003.044.02.066.028.028.01.053.006.071-.018a.056.056 0 0 0 .002-.072c-.018-.024-.043-.029-.07-.02-.024.007-.042.024-.067.028-.311.005-.621.001-.932.002-.228 0-.456.002-.683-.001-.024-.001-.041-.015-.06-.028-.018-.013-.04-.023-.062-.017-.052.014-.094-.007-.138-.03-.369-.19-.737-.383-1.107-.57a.327.327 0 0 1-.086-.056.06.06 0 0 1 0-.006c-.04-.015-.058-.041-.067-.084Zm.944.614.338.175c.06.031.062.048.012.097l-.855.834c-.013.012-.023.034-.043.028-.02-.005-.02-.029-.022-.045l-.256-1.299-.047-.242.873.452Z" fill="#DC9000"/><path d="M4.714 4.313a.08.08 0 0 0 .017-.004l.02-.013h-.013a.092.092 0 0 1-.012.004l-.012.013ZM3.977 5.858c.035-.158.067-.317.1-.476.031-.15.07-.3.091-.453a.051.051 0 0 0-.002-.01l-.005.006c-.037.17-.075.34-.11.51-.031.144-.058.29-.087.434l.01-.003.003-.008ZM7.232 5.599v.006c.025.024.056.04.086.055.37.188.739.38 1.108.57.043.023.086.045.138.03.022-.006.043.004.062.018.018.013.036.026.059.028.228.002.455 0 .683 0 .31 0 .621.003.932-.001.025-.004.043-.022.067-.029.027-.008.052-.004.07.02a.056.056 0 0 1-.001.073c-.019.024-.044.027-.071.018-.023-.008-.042-.025-.066-.028-.022-.002-.045-.002-.067-.002H8.743c-.024 0-.048 0-.072.003-.06.021-.088.063-.086.126v.077a.204.204 0 0 1-.007.08c-.006.03-.005.06-.005.091a.204.204 0 0 1-.007.079c-.007.033-.005.067-.005.1a.175.175 0 0 1-.008.07c-.006.033-.004.067-.004.1a.175.175 0 0 1-.008.069c-.006.033-.004.067-.004.1a.174.174 0 0 1-.008.068c-.006.033-.004.066-.004.1a.213.213 0 0 1-.005.066c0 .058.032.043.064.027.22-.113.437-.234.656-.35.056-.029.116-.053.145-.12.012-.03.047-.036.08-.022.034.015.045.043.038.079-.007.034-.032.057-.064.051-.076-.014-.133.025-.193.057-.2.108-.4.216-.601.322a.195.195 0 0 0-.11.218c.038.232.082.463.12.695.009.048.019.093.055.13.026.028.03.064.004.094-.024.028-.058.03-.088.011a.2.2 0 0 0-.146-.02.176.176 0 0 1-.066.005c-.037 0-.074-.002-.11.005a.171.171 0 0 1-.07.006c-.038.001-.075-.001-.113.005a.202.202 0 0 1-.08.008c-.034 0-.068-.002-.102.005a.202.202 0 0 1-.08.007c-.037 0-.075-.002-.112.005a.173.173 0 0 1-.07.007c-.037 0-.075-.002-.112.005a.172.172 0 0 1-.07.007c-.037 0-.075-.002-.112.005a.201.201 0 0 1-.08.007c-.034 0-.068-.002-.102.005a.201.201 0 0 1-.08.007c-.035 0-.07-.002-.106.004-.027.006-.054.018-.08.002-.02-.028-.001-.045.017-.061.23-.201.462-.401.69-.604.062-.054.147-.092.168-.184.01-.042.037-.06.08-.053.035.005.057.026.056.06 0 .043-.028.067-.069.07a.133.133 0 0 0-.08.036c-.184.156-.364.317-.547.475l-.177.155c-.012.01-.026.023-.02.04.007.02.026.015.042.013.024-.006.049-.004.073-.003.033 0 .067.001.1-.005a.202.202 0 0 1 .08-.007c.037 0 .075.002.112-.005a.203.203 0 0 1 .08-.007c.034 0 .068.001.102-.005a.171.171 0 0 1 .07-.007c.037 0 .074.002.112-.005a.202.202 0 0 1 .08-.007c.034 0 .068.001.102-.005a.202.202 0 0 1 .08-.007c.037 0 .075.002.112-.005a.173.173 0 0 1 .07-.007c.037 0 .075.002.112-.005a.173.173 0 0 1 .069-.007h.054c.107-.002.135-.034.117-.138-.041-.238-.082-.475-.125-.712a.202.202 0 0 0-.052-.112c-.038-.04-.037-.076 0-.118a.113.113 0 0 0 .031-.081.183.183 0 0 1 .008-.069c.006-.033.004-.067.004-.1a.175.175 0 0 1 .008-.069c.006-.033.004-.067.005-.1a.175.175 0 0 1 .007-.069c.006-.033.004-.067.005-.1a.175.175 0 0 1 .007-.069c.006-.033.004-.067.005-.1a.174.174 0 0 1 .007-.069c.006-.033.004-.066.005-.1a.172.172 0 0 1 .006-.066.133.133 0 0 0 .004-.03c0-.024.006-.053-.019-.065-.03-.015-.048.012-.066.03-.27.262-.543.522-.807.79a.151.151 0 0 0-.046.09c-.009.064-.058.092-.12.064a.197.197 0 0 0-.128-.01c-.267.053-.534.107-.8.162-.06.012-.117.022-.163.07-.04.044-.106.022-.12-.032-.007-.027-.001-.052.02-.071a.07.07 0 0 1 .08-.012c.042.02.083.022.129.013l.854-.171c.107-.022.14-.07.118-.177-.092-.453-.178-.908-.272-1.36-.011-.056-.013-.113-.036-.165a.052.052 0 0 0-.008-.007v.001c.041.264.104.524.15.787.045.256.104.509.156.763.016.075-.018.126-.092.14l-.898.18a.1.1 0 0 1-.08-.011c-.05-.032-.103-.018-.128.026-.026.045-.014.087.02.117.045.038.103.026.137-.025a.076.076 0 0 1 .056-.036c.301-.06.602-.12.903-.182.032-.007.056-.007.088.013.066.042.154 0 .15-.072-.002-.042.016-.062.04-.086l.786-.768c.023-.021.045-.067.07-.056.032.015.006.06.008.093 0 .021.005.043-.008.064l-.004.105c0 .021.005.043-.008.064l-.004.105c0 .021.005.043-.008.064l-.004.105c0 .021.005.043-.008.064l-.004.105c.001.021.005.044-.008.064l-.004.105c.001.021.005.044-.009.064.008.03 0 .05-.027.069-.045.031-.052.11-.006.137.056.033.05.084.06.131.042.24.081.48.123.719.01.053-.01.083-.063.086-.032.002-.064.001-.096.002-.02.013-.042.008-.064.008l-.117.004c-.02.013-.043.008-.065.008l-.117.004c-.024.013-.05.009-.076.008l-.106.004c-.024.014-.05.009-.076.008l-.118.004c-.02.013-.042.008-.064.008l-.105.004c-.024.014-.05.007-.076.008l-.118.004c-.024.014-.05.01-.076.008-.035.004-.07.01-.106.004-.024.014-.05.01-.076.008-.011.003-.023.006-.034-.003.025-.038.064-.06.097-.089l.666-.58c.015-.014.027-.022.055-.018a.08.08 0 0 0 .088-.065c.01-.044-.015-.09-.054-.099-.055-.012-.102.01-.113.068-.008.045-.034.07-.064.096-.08.07-.164.137-.244.207-.08.07-.155.142-.235.21-.108.094-.218.184-.326.277-.024.02-.027.047-.005.074h.083l.118-.004c.024-.013.05-.009.076-.008l.105-.004c.025-.014.05-.009.077-.008l.117-.004c.02-.013.043-.008.064-.008l.118-.004c.02-.013.042-.009.064-.008l.117-.004c.025-.014.05-.01.077-.008l.105-.004c.024-.014.05-.01.076-.008l.118-.004c.02-.013.042-.009.064-.008l.117-.004c.02-.013.043-.009.065-.008.051-.008.1-.011.146.024.042.032.082.011.107-.024.027-.038.025-.081-.016-.111a.103.103 0 0 1-.041-.07l-.135-.777c-.006-.036.042-.135.073-.15l.714-.382c.028-.015.052-.028.09-.014.044.017.092-.015.103-.058.013-.052-.01-.094-.06-.107-.049-.013-.096.01-.106.059-.006.026-.021.035-.04.045l-.193.102c-.186.1-.371.198-.555.3-.038.021-.042.011-.035-.024 0-.021-.005-.044.008-.064l.004-.105c0-.021-.005-.044.008-.064l.004-.105c0-.021-.005-.044.008-.064l.004-.105c-.002-.022-.005-.044.008-.064l.004-.105c-.001-.026-.006-.052.008-.076l.004-.093c0-.026-.005-.052.008-.076.003-.068-.021-.146.06-.19.016-.015.035-.008.052-.008h1.556c.017 0 .036-.008.05.01a.08.08 0 0 0 .09.03.073.073 0 0 0 .057-.067.07.07 0 0 0-.04-.073c-.042-.02-.077-.008-.107.025-.012.016-.03.009-.044.009H8.707c-.015 0-.032.005-.045-.009-.031-.033-.068-.063-.114-.043-.03.012-.05.006-.073-.006l-.352-.182-.889-.46h-.002Z" fill="#DC9000"/><path d="m8.504 3.054 1.565 1.04.034.025c.04 0 .04-.026.038-.054l-.028-.431c-.01-.148-.022-.296-.033-.443l-.046-.665c-.01-.137-.018-.275-.027-.413-.005-.081-.004-.163-.025-.242l-.487.109-1.078.232-.805.175c-.014.003-.029.008-.042 0a.227.227 0 0 0-.026.021l.842.563.118.083Z" fill="#E1E353"/><path d="M7.57 2.388a.032.032 0 0 1-.009-.008c-.01.006-.021.01-.024.023l.007.005a.234.234 0 0 1 .027-.02Z" fill="#E1E353"/><path d="m11.24 3.111-.842-2.103-.003-.018-.083-.001h-.052c-.05.026-.104.007-.156.012l-.05.001c-.042.025-.087.007-.131.011l-.062.001c-.047.024-.096.007-.144.011l-.05.001c-.046.024-.096.007-.144.011l-.062.001c-.046.024-.096.007-.144.012h-.074l-.007.004a.26.26 0 0 1-.016.008l-.005.004c-.003.022.022.03.034.043l.72.743a.082.082 0 0 1 .01.013c.004 0 .01.002.014.004.037.062.026.132.03.198.017.23.034.46.048.69.012.207.027.413.041.619.014.204.025.408.043.612.004.047.023.1-.028.138a.052.052 0 0 1-.022 0c.002.012.003.022-.004.03.057.008.107.037.16.056l.537.206c.037.014.073.03.098.065.018.026.045.024.071.012.027-.012.032-.035.026-.061-.006-.027-.026-.047-.051-.043-.102.02-.184-.038-.271-.07-.146-.052-.29-.109-.435-.166-.067-.027-.07-.05-.01-.1l.432-.359.563-.467c.012-.01.024-.021.04-.025h.005c.003-.034-.015-.063-.026-.093Z" fill="#DA7300"/><path d="M9.22 1.062a.254.254 0 0 0 .016-.008l.007-.003h-.021l-.002.001a.04.04 0 0 0-.005.014l.005-.004ZM11.266 3.204h-.006c-.016.004-.028.015-.04.025l-.563.467-.432.36c-.06.049-.056.072.01.099.145.057.29.114.436.166.087.032.168.09.27.07.026-.004.046.016.051.043.006.026.001.049-.025.061-.026.012-.053.014-.071-.012-.025-.035-.061-.05-.099-.065a80.54 80.54 0 0 0-.537-.206c-.053-.02-.103-.048-.16-.056a.032.032 0 0 1-.008.006l.756.288a.04.04 0 0 1 .028.028c.018.056.06.048.1.033.04-.015.043-.053.033-.086-.013-.042-.05-.06-.091-.045-.03.01-.054.002-.081-.009a87.84 87.84 0 0 0-.62-.237c-.03-.011-.043-.02-.011-.044.011-.009.02-.02.031-.028l1.028-.853v-.005ZM9.983 1.871c.021.08.02.161.025.242.01.138.017.276.026.413.015.222.03.443.047.665l.033.443c.01.143.018.287.027.431.002.028.002.054-.037.054l.002.008.021-.001c.051-.038.032-.091.028-.138-.018-.204-.03-.408-.043-.612-.013-.206-.028-.412-.04-.619-.014-.23-.032-.46-.048-.69-.005-.066.006-.136-.03-.198a.08.08 0 0 0-.015-.004c0 .002.002.004.004.006Z" fill="#DA7300"/><path d="M15.216 4.25c.01.02.037.044-.013.047-.206.055-.411.111-.617.165l-.84.22h-.032c.14-.15.274-.296.409-.443.015-.017.032-.012.05-.014.05-.006.079-.04.075-.09-.003-.051-.035-.075-.083-.078a.078.078 0 0 0-.083.083.084.084 0 0 1-.025.069l-.406.439c-.016.017-.033.023-.057.026-.057.006-.087.049-.07.103.01.028 0 .047-.01.067l-.444.822c-.02.037-.04.06-.081.019l-.96-1.004c-.004-.004-.006-.01-.012-.022l.238.016c.155.01.31.023.464.034.032.002.062.003.088.029.029.028.064.024.091-.006.025-.027.028-.058.005-.088-.023-.032-.056-.04-.089-.016a.078.078 0 0 1-.055.017c-.237-.018-.474-.034-.711-.055a.155.155 0 0 1-.14-.11l-.276-.807c-.007-.034-.032-.039-.06-.038l.005.009c-.001.03.006.059.015.088.08.24.165.48.247.72.036.103.025.187-.063.263-.17.146-.336.295-.5.447-.028.024-.066.031-.096.048-.131.072-.272.043-.409.045-.228.004-.456.001-.684.001-.104 0-.126-.025-.108-.128l.086-.487c.004-.024.022-.062-.01-.067-.027-.005-.026.038-.03.062-.03.16-.057.32-.086.48a.184.184 0 0 1-.047.103c-.029.03-.034.066-.007.098.027.034.061.025.092.004a.177.177 0 0 1 .104-.026h.956c.035 0 .066.007.096.028.04.028.09.02.101-.022.028-.1.114-.148.182-.21.133-.124.27-.242.406-.362.02-.018.036-.039.065-.042a.324.324 0 0 1 .065.011c.05.031.089.076.127.12.12.136.25.26.374.393.144.155.295.303.436.46.012.013.026.024.027.042.01.003.017.014.012.017a.032.032 0 0 1-.028.002.076.076 0 0 1-.013.004c-.114 0-.224-.028-.335-.046l-.925-.15c-.039-.007-.074-.015-.104-.044-.027-.026-.063-.033-.092-.002-.028.03-.018.065.01.091.029.028.042.063.052.1.086.319.17.638.257.956.01.038.001.07-.017.103-.023.042-.01.085.027.112.037.027.073.02.105-.007.042-.035.042-.097-.008-.129s-.064-.077-.078-.129l-.232-.868-.014-.053c-.02-.087-.003-.106.087-.09.42.07.84.136 1.26.206.04.007.078.017.108.049.023.024.052.03.082.012.03-.017.043-.044.036-.077-.008-.034.003-.063.018-.092.143-.268.287-.536.433-.802.033-.059.073-.06.12-.011.215.223.429.448.649.667.021.02.043.041.061.066.046.063.036.098-.038.12l-.301.091c-.056.017-.111.036-.168.052-.047.013-.092.024-.141.005-.037-.014-.068.004-.083.04-.014.036.001.064.03.085.034.024.068.014.09-.017.028-.042.07-.059.114-.072.156-.048.312-.097.469-.144.075-.022.117.007.12.086a.33.33 0 0 1-.004.084c-.008.025-.007.051-.006.078 0 .045.004.09-.004.134a.24.24 0 0 0-.008.092c0 .042.003.084-.005.126a.236.236 0 0 0-.007.092c0 .045.003.09-.005.136a.205.205 0 0 0-.007.082c0 .045.003.09-.005.136-.01.03-.009.06-.007.091-.001.041.002.083-.005.123-.007.022-.008.045-.016.067-.008.018-.025.03-.033.05-.012.032-.014.064.014.088.025.023.057.02.084.003.032-.02.042-.058.023-.085-.048-.07-.025-.142-.023-.215.01-.028.006-.057.005-.086.001-.041-.002-.083.005-.123.01-.03.01-.061.007-.092.001-.042-.002-.084.005-.126.011-.034.009-.068.007-.103.001-.042-.002-.084.005-.126.01-.03.01-.06.008-.091 0-.042-.003-.084.004-.125a.244.244 0 0 0 .008-.089v-.078c.001-.109.065-.186.174-.203.378-.06.757-.118 1.135-.18a.17.17 0 0 1 .122.024c.05.03.105.014.129-.032.023-.046.007-.094-.048-.118a.196.196 0 0 1-.097-.102c-.073-.15-.15-.3-.224-.449-.022-.044-.049-.087-.046-.141.002-.027-.015-.046-.043-.05-.023-.003-.04.007-.05.027-.011.023-.007.046.013.06.053.037.073.095.1.148.074.147.149.295.222.443.042.086.018.134-.076.15-.389.063-.777.123-1.166.183-.025.005-.054.012-.072-.015-.015-.024-.002-.046.01-.068.17-.315.343-.629.514-.943.045-.084.093-.165.135-.25a.132.132 0 0 1 .112-.078c.218-.03.435-.066.653-.094.054-.007.075-.029.082-.082.023-.186.044-.372.068-.557.01-.077.006-.08-.072-.093l-1.378-.233c-.025-.004-.051-.005-.077-.009.052.119.124.227.187.34.128.23.26.457.39.685Zm-.22.48c-.147.272-.296.543-.444.814-.028.052-.076.062-.114.023l-.748-.771-.017-.025 1.515-.394-.191.354Z" fill="#DC8F00"/><path d="m14.716 3.234 1.378.233c.078.013.081.016.071.093l-.068.556c-.006.054-.028.076-.081.083-.218.028-.435.065-.653.093a.132.132 0 0 0-.112.079c-.042.085-.09.166-.135.25-.171.314-.344.628-.514.943-.012.021-.025.044-.01.068.018.027.046.02.072.015.389-.06.777-.12 1.166-.184.094-.015.118-.063.076-.15l-.222-.442c-.027-.053-.047-.111-.1-.148-.02-.014-.025-.037-.013-.06.01-.02.027-.03.05-.027.028.004.044.023.043.05-.003.054.024.096.046.141l.224.448c.022.045.049.08.097.102.055.025.071.073.048.119-.024.046-.08.062-.13.032a.17.17 0 0 0-.12-.023l-1.136.179a.194.194 0 0 0-.173.203v.078a.24.24 0 0 1-.009.089c-.007.041-.004.083-.005.125a.237.237 0 0 1-.007.091c-.007.042-.004.084-.005.126.002.035.004.07-.007.103-.007.042-.004.084-.005.126a.238.238 0 0 1-.007.091c-.007.041-.004.083-.005.124.001.029.004.058-.005.086-.002.073-.026.146.023.215.019.027.008.064-.023.085-.027.018-.059.02-.084-.003-.028-.024-.027-.056-.014-.088.007-.02.025-.032.033-.05.008-.022.01-.045.016-.067.007-.04.004-.082.005-.123a.239.239 0 0 1 .007-.091c.008-.045.004-.091.005-.136a.204.204 0 0 1 .007-.082c.008-.045.004-.091.005-.136a.24.24 0 0 1 .007-.092c.008-.042.004-.084.005-.126a.234.234 0 0 1 .007-.092c.008-.044.004-.09.005-.134-.001-.027-.003-.053.006-.078a.33.33 0 0 0 .004-.084c-.004-.079-.045-.108-.12-.086l-.469.143c-.045.014-.086.03-.115.073-.021.031-.055.04-.09.016-.028-.02-.044-.048-.03-.083.015-.037.046-.055.084-.04.049.018.094.007.141-.006.056-.016.112-.035.168-.052l.3-.09c.075-.023.085-.058.039-.121-.018-.025-.04-.045-.062-.067-.22-.218-.433-.443-.648-.666-.047-.05-.087-.048-.12.011-.147.266-.29.534-.433.802-.016.029-.026.058-.018.092.007.033-.007.06-.036.076-.03.018-.06.013-.082-.011-.03-.032-.067-.042-.108-.049-.42-.07-.84-.136-1.26-.207-.09-.015-.107.004-.087.091l.013.053c.079.289.156.579.233.868.013.052.028.097.078.13.05.031.05.093.008.128-.033.027-.069.033-.105.007-.037-.027-.05-.07-.027-.112.018-.034.027-.065.017-.103-.088-.318-.17-.637-.257-.956a.204.204 0 0 0-.053-.1c-.027-.026-.037-.06-.009-.09.028-.032.064-.025.092.001.03.029.065.037.103.043l.926.151c.111.018.221.046.335.046a.077.077 0 0 0 .013-.004.048.048 0 0 1-.015-.008c-.099.002-.194-.026-.29-.04a45.433 45.433 0 0 1-.947-.156c-.042-.007-.09-.002-.12-.05-.023-.034-.093-.029-.113.002-.026.039-.032.08.012.113.031.022.04.053.05.087.027.111.057.222.086.332l.176.643c.007.022.01.041-.01.065a.106.106 0 0 0 .028.158c.043.026.115.005.141-.041a.1.1 0 0 0-.05-.144c-.027-.012-.033-.026-.04-.05-.081-.307-.164-.612-.246-.917-.041-.153-.037-.155.122-.123.202.04.403.077.606.104.187.025.37.063.557.088.05.007.104.006.14.062.018.03.065.024.098.002.032-.022.053-.052.035-.091-.012-.026-.005-.044.007-.066l.413-.762c.066-.12.063-.116.164-.02.191.18.359.384.553.562a.95.95 0 0 1 .13.142c.03.04.027.06-.025.076-.17.05-.34.103-.509.155-.035.011-.066.016-.102-.002-.05-.024-.096-.002-.116.05-.02.05.011.082.048.107.035.024.092.01.112-.034.014-.03.035-.04.061-.048.149-.046.297-.093.447-.135.166-.048.173-.04.158.135.001.026.005.052-.008.076l-.004.141c0 .03.005.06-.008.089l-.004.129c0 .03.005.06-.008.088l-.004.141c0 .026.005.052-.008.076l-.005.141c.001.03.006.06-.008.089 0 .043-.002.086-.004.129 0 .019.01.04-.01.056l-.015.017c-.044.051-.046.105 0 .14.037.03.08.02.113-.007.037-.029.032-.088-.007-.132-.01-.01-.018-.02-.016-.036.005-.045.01-.09.013-.136 0-.03-.005-.06.008-.088l.005-.13c-.001-.029-.006-.06.008-.088l.004-.129c0-.033-.007-.067.008-.1l.004-.129c-.001-.03-.006-.06.008-.088l.004-.13c-.001-.029-.006-.06.008-.087v-.09a.187.187 0 0 1 .151-.172l1.142-.18c.034-.004.074-.017.103.015.039.042.083.033.126.013.038-.018.053-.057.05-.095-.003-.047-.03-.083-.08-.093-.03-.005-.047-.022-.06-.05l-.275-.548c-.01-.02-.018-.035-.01-.061.013-.039-.01-.07-.05-.08-.036-.01-.07 0-.081.04-.01.035-.01.07.034.087.014.006.028.01.036.028l.287.58c.02.042-.003.084-.05.091l-1.212.192c-.015.003-.035.01-.046-.005-.012-.016-.002-.032.008-.049.225-.41.45-.821.673-1.234.016-.029.034-.035.059-.038.236-.034.473-.069.71-.101.04-.006.057-.022.062-.064.023-.214.047-.428.076-.642.004-.033-.002-.036-.03-.04l-.412-.072c-.253-.043-.504-.088-.757-.128-.119-.018-.235-.05-.356-.051l.006.012c.025.004.051.005.077.009Z" fill="#DC8F00"/><path d="M12.916 5.713c-.001-.018-.016-.03-.027-.042-.14-.157-.292-.305-.436-.46-.123-.132-.255-.257-.374-.393-.039-.044-.077-.089-.128-.12a.323.323 0 0 0-.064-.01c-.029.002-.046.023-.065.04-.136.12-.273.24-.406.362-.068.063-.154.11-.182.211-.011.043-.06.05-.1.022a.158.158 0 0 0-.097-.028h-.957a.177.177 0 0 0-.103.026c-.031.021-.066.03-.093-.004-.026-.032-.021-.069.008-.098a.184.184 0 0 0 .047-.102c.029-.16.056-.321.086-.481.004-.024.002-.067.03-.062.032.005.014.043.01.067-.03.162-.058.325-.086.487-.018.103.004.128.108.128.228 0 .457.003.684 0 .137-.003.278.026.409-.046.03-.017.068-.023.095-.048.165-.152.331-.3.5-.447.089-.076.1-.16.064-.264-.082-.24-.167-.478-.247-.719a.258.258 0 0 1-.016-.088l-.004-.009h-.003c-.006.025-.014.047-.004.075.095.268.187.537.28.805a.15.15 0 0 1-.024.136c-.06.07-.136.127-.208.187-.044.037-.08.082-.127.117a2.07 2.07 0 0 0-.188.165c-.038.037-.074.078-.136.073a.054.054 0 0 0-.047.023c-.017.023-.04.024-.064.024h-1c-.056 0-.073-.023-.063-.08l.1-.558c.005-.025.014-.055-.025-.062-.034-.006-.039.02-.043.044-.027.152-.052.305-.083.456-.011.055.002.122-.051.16-.041.03-.045.096-.018.134.025.033.084.033.124-.003a.086.086 0 0 1 .065-.024h1.005c.019 0 .037-.003.051.02.019.03.052.036.086.028.037-.01.064-.036.064-.07 0-.04.021-.06.045-.08.15-.134.298-.27.45-.4.044-.037.077-.092.14-.105.018.003.039-.01.055.008.063.057.115.122.172.183.146.154.302.3.442.458.112.125.242.232.346.364h.003Z" fill="#DC8F00"/><path d="M3.575 6.834 4.07 7.91c.19-.108.372-.23.558-.348L6.357 6.47c.008-.005.018-.007.027-.01l.013-.013c-.006-.017-.017-.017-.033-.015l-.754.094-.418.054c-.033.004-.036-.009-.028-.037l.325-1.189c.007-.023.015-.046.012-.07-.018.024-.046.033-.072.043-.428.164-.854.33-1.28.496-.046.018-.091.035-.137.05-.013.005-.029.019-.042.006a.796.796 0 0 0-.005.015c.073.02.13.07.194.108.307.179.613.361.919.543l.05.033c-.049.023-.096.019-.14.025-.217.03-.434.057-.65.084l-.616.075c-.044.005-.088.01-.131.017-.012.002-.02.003-.025-.003a.11.11 0 0 1-.023.023c.016.004.024.019.032.036Z" fill="#E1E353"/><path d="M3.97 5.878a.036.036 0 0 1-.006-.01c-.008.006-.01.013-.01.022l.011.003.006-.015ZM3.566 6.775a.025.025 0 0 1-.003-.013l-.035.034c.006 0 .01 0 .015.002a.108.108 0 0 0 .023-.023Z" fill="#E1E353"/><path d="m4.013 5.873.136-.05c.427-.167.853-.333 1.28-.497.027-.01.055-.02.073-.043v-.006H5.5c-.028.012-.055.025-.083.036l-1.084.419c-.12.046-.235.1-.36.134a.238.238 0 0 1-.003.012c.013.013.03 0 .042-.005Z" fill="#E1E353"/><path d="M3.97 5.878a.376.376 0 0 0 .005-.012c-.004 0-.007.002-.011.003a.034.034 0 0 0 .007.01Z" fill="#E1E353"/><path d="M6.875 3.834c-.01.022-.023.04-.036.059.009.004.015.01.02.019.002-.007.007-.009.024.006l.425.362.527.445c.112.094.222.19.333.285l.034-.012.05-.362c.002-.02-.009-.043.011-.06l.05-.35c.001-.02-.009-.044.01-.06l.038-.266c.001-.021-.008-.044.011-.061l.013-.108c.002-.02-.008-.044.011-.06l.025-.182c.002-.02-.008-.043.012-.06l.013-.109c.001-.02-.009-.043.01-.06.01-.06.018-.121.026-.182a.028.028 0 0 1 .01-.018c-.3-.202-.601-.4-.9-.6-.02-.013-.048-.02-.054-.047a.172.172 0 0 1-.016.013l-.007.005-.296.655-.344.748Z" fill="#E0B500"/><path d="M7.521 2.426a.172.172 0 0 0 .017-.013.048.048 0 0 1-.001-.01l-.014.01-.008.018.006-.005ZM6.838 3.893l-.004.006.021.036c.002-.006.001-.017.003-.023a.045.045 0 0 0-.02-.02Z" fill="#E0B500"/><path d="M7.592 2.46c.299.2.6.398.899.6a.027.027 0 0 1 .013-.006l-.118-.083-.842-.563-.003.003-.003.002c.006.028.034.034.054.047Z" fill="#E0B500"/><path d="m7.542 2.41.002-.002-.007-.005.001.01a.08.08 0 0 0 .004-.002Z" fill="#E0B500"/><path d="M13.597.33a.026.026 0 0 1 .006-.009.017.017 0 0 1-.002-.007l-.011.004c-.206.011-.41-.008-.615-.018-.117-.006-.233-.003-.35-.012-.124-.008-.249-.01-.373-.015-.286-.01-.571-.019-.857-.035-.086-.005-.173.003-.259-.006l.135.141.503.52.015.015 1.08 1.106.022.028c.003 0 .005 0 .007.002h.004l.374-.926.32-.789Z" fill="#E1E353"/><path d="M11.136.232c.086.009.173.001.26.006.285.016.57.025.855.035.125.004.25.007.374.015.117.009.233.006.35.012.205.01.41.03.615.018l.011-.004.003-.008L12.56.268C12.4.263 12.239.26 12.078.252 11.76.237 11.44.22 11.121.217l.015.015ZM13.603.321l.006-.006-.002-.002-.005.001.001.007Z" fill="#E1E353"/><path d="m13.602.314.005-.001a.027.027 0 0 0-.003-.007.017.017 0 0 0-.002.008Z" fill="#E1E353"/><path d="M10.065 4.109c-.52-.347-1.043-.69-1.562-1.04a.057.057 0 0 0-.002-.002c-.01.064-.016.128-.032.19a.163.163 0 0 0-.008.065c0 .036-.008.07-.016.104a.17.17 0 0 0-.008.066c-.008.058-.013.117-.028.174a.161.161 0 0 0-.008.066c0 .036-.008.07-.017.105-.008.022-.008.044-.008.067-.014.086-.02.172-.04.257a.168.168 0 0 0-.008.069c-.017.114-.027.228-.052.341a.16.16 0 0 0-.008.069c-.016.117-.028.235-.055.35a.043.043 0 0 1-.009.012c.005.008.01.014.019.018.014-.024.04-.033.064-.044.29-.132.58-.264.868-.397.302-.14.604-.278.906-.415a.107.107 0 0 1 .029-.01l.002.001c.001-.01.003-.02.008-.03a.111.111 0 0 1-.035-.016Z" fill="#D85300"/><path d="M10.09 4.155a.109.109 0 0 0-.029.009c-.302.137-.604.276-.906.415l-.868.398c-.024.01-.05.019-.064.043l.004.003.276-.13.885-.404c.235-.108.47-.218.704-.327v-.007h-.002ZM10.103 4.12c-.011-.009-.022-.018-.034-.025L8.503 3.054l-.002.013.002.002c.518.35 1.041.693 1.562 1.04a.114.114 0 0 0 .035.017l.003-.007Z" fill="#D85300"/><path d="M10.105 4.127a.06.06 0 0 1-.005-.001.07.07 0 0 0-.007.03h.008c.008-.008.007-.018.004-.03ZM10.1 4.156h-.008v.006a.032.032 0 0 0 .008-.006Z" fill="#D85300"/><path d="M10.1 4.126h.005l-.002-.007-.003.007ZM8.498 3.065l-.007-.005a.028.028 0 0 0-.01.018c-.007.06-.016.121-.025.182-.001.02.007.043-.01.06l-.014.108c-.001.021.007.043-.011.061l-.025.181c-.002.02.007.043-.011.06l-.013.109c-.002.02.006.043-.012.06l-.037.266c-.001.02.007.043-.011.06l-.05.35c0 .021.007.043-.01.06l-.05.362c0 .002 0 .004.002.005a.043.043 0 0 0 .008-.012c.028-.115.04-.233.056-.35a.16.16 0 0 1 .008-.069c.025-.113.035-.228.052-.342 0-.023 0-.046.008-.068.02-.085.026-.171.04-.257 0-.023 0-.045.008-.067.008-.035.017-.07.016-.105a.162.162 0 0 1 .009-.066c.015-.057.02-.116.028-.174 0-.022 0-.045.007-.066.009-.034.017-.068.017-.104 0-.022 0-.044.007-.065.016-.062.022-.127.033-.19l-.003-.002ZM8.491 3.06l.008.005.003.002.002-.013a.027.027 0 0 0-.013.006Z" fill="#D85300"/><path d="M3.598 7.994c.155-.035.314-.043.468-.083-.04-.04-.057-.096-.08-.147l-.421-.913c-.008-.017-.02-.032-.031-.047l-.004.002-1.183.59c-.025.013-.053.021-.069.047l-.005.013.074.4c.05.275.1.55.153.824.004.022 0 .05.02.066.1-.197.202-.394.306-.59a.129.129 0 0 1 .103-.072L3.4 8.01c.026-.004.052-.013.074.01v.003c.035-.035.083-.02.124-.028Z" fill="#DB7A00"/><path d="M3.474 8.02c-.021-.024-.048-.015-.073-.01l-.472.074a.129.129 0 0 0-.103.073c-.103.195-.205.392-.305.59a.05.05 0 0 0 .01.006c.105-.2.21-.4.314-.602.017-.033.038-.045.072-.05.121-.019.241-.043.362-.058.063-.007.125-.04.191-.016l.005-.005V8.02ZM2.269 7.427v.002-.002ZM2.278 7.443c.016-.026.044-.034.07-.047.394-.196.787-.394 1.182-.59l.004-.002-.005-.008-.477.236-.783.395.005.029.004-.013ZM3.986 7.764c.023.05.04.106.08.147l.006-.001-.496-1.076c-.008-.017-.016-.032-.032-.036l-.01.006c.01.015.023.03.031.047l.421.913Z" fill="#DB7A00"/><path d="M3.543 6.798a.042.042 0 0 0-.015-.002l.005.008.01-.006Z" fill="#DB7A00"/><path d="m4.683 8.067.657-.62c.168-.159.334-.319.503-.477l.516-.479a.116.116 0 0 0 .014-.016c-.173.114-.35.222-.525.334l-.971.614-.72.457c-.026.017-.05.04-.087.035-.006.022-.028.022-.045.025-.182.03-.365.063-.548.086.044.115.058.237.088.355.026.108.05.215.073.324.01.05.03.095.058.138.19.286.372.579.563.865v.001c.019-.04.001-.082.008-.123v-.193l-.002-.207a.352.352 0 0 1-.012-.083c-.009-.046.002-.094-.007-.14a.154.154 0 0 1 .003-.04c0-.063.006-.126-.005-.188-.01-.074-.004-.148-.005-.221 0-.028.012-.05.03-.07.097-.102.2-.197.305-.29.015-.013.034-.02.052-.028a.148.148 0 0 1 .005-.002c.006-.027.034-.04.052-.057Z" fill="#DD9D00"/><path d="M4.626 8.126c-.018.008-.037.015-.052.029a4.718 4.718 0 0 0-.304.29.098.098 0 0 0-.03.069c0 .073-.006.147.005.22.01.063.004.126.004.19a.154.154 0 0 0-.002.04c.009.045-.002.093.006.138-.001-.048.004-.097.002-.145l.01-.02c-.015-.068-.008-.138-.007-.208l-.006-.221c0-.02.004-.034.019-.048.077-.073.153-.147.23-.218.041-.037.075-.083.128-.105 0-.004 0-.009.002-.013l-.005.002ZM4.258 9.708c-.19-.286-.372-.579-.562-.865a.388.388 0 0 1-.058-.138 8.413 8.413 0 0 0-.074-.324c-.029-.118-.043-.24-.088-.355l-.006.001c.041.185.08.37.124.554.025.1.04.204.103.295.112.16.212.328.321.49.079.118.147.242.236.352a.086.086 0 0 0 .005-.009v-.001ZM6.385 6.458c-.01.004-.02.006-.027.011L4.629 7.563c-.185.116-.366.24-.557.347l-.002.005c.036.006.061-.018.087-.035l.72-.457.97-.614c.176-.112.353-.22.526-.334l.012-.017Z" fill="#DD9D00"/><path d="m4.07 7.915-.004-.004c-.154.04-.314.048-.468.083-.04.009-.09-.007-.123.028l.001.004c.184-.023.366-.056.549-.086.017-.003.039-.003.045-.025ZM3.474 8.022a.095.095 0 0 0-.004.005h.006l-.002-.005Z" fill="#DD9D00"/><path d="m4.071 7.91-.005.001.003.003h.001l.001-.004Z" fill="#DD9D00"/><path d="M6.98 5.523c-.341-.179-.681-.36-1.02-.541-.381-.204-.763-.403-1.142-.61-.005-.003-.01-.006-.021-.006.15.188.3.373.448.56l.245.304c.012.015.024.029.015.049h-.001a.274.274 0 0 0 .004.005v.001c.093.1.172.21.258.315.14.17.275.342.413.514l.172.215c.026.033.05.07.101.06v-.001a.555.555 0 0 1 .082-.103c.16-.159.306-.329.464-.488.038-.038.068-.084.11-.12.015-.012.03-.03.052-.018-.036-.077-.114-.1-.18-.136Z" fill="#DA6B00"/><path d="M7.16 5.66c-.021-.014-.037.005-.053.018-.041.035-.072.08-.11.119-.157.16-.304.33-.463.487a.553.553 0 0 0-.082.104l.006-.001.094-.1c.166-.177.33-.355.498-.53.033-.035.057-.084.11-.095v-.003Z" fill="#DA6B00"/><path d="M7.083 5.561c-.09-.043-.177-.095-.266-.142-.453-.24-.907-.48-1.36-.722-.142-.075-.283-.153-.425-.229l-.263-.136c.005.03.01.046.026.062.029.029.052.062.077.094l.168.208.17.212c.058.071.117.14.172.213.04.052.088.097.118.156l.003.002h.001c.01-.02-.002-.034-.014-.049l-.245-.305-.448-.56c.01.001.016.004.02.007.38.207.762.406 1.142.61.34.181.68.362 1.02.541.067.035.145.06.18.136l.001.001c-.002-.05-.031-.077-.077-.099ZM7.16 5.66v.001-.001ZM5.508 5.284v-.001l-.004-.003a.171.171 0 0 0 .004.004ZM5.504 5.28l-.001-.001.001.001Z" fill="#DA6B00"/><path d="m11.643 3.66.005.013.995.041.814.03c-.007-.083-.054-.152-.083-.226-.1-.248-.203-.493-.305-.739-.012-.028-.015-.066-.06-.065l-.82.23-.85.24c-.008.003-.016.002-.024.002l-.033.02a4.163 4.163 0 0 1 .288.427c.035-.02.055 0 .073.027Z" fill="#D85300"/><path d="M11.289 3.211a.015.015 0 0 0-.006-.004l-.006.003c.006.015.02.024.029.037.09.127.165.266.263.388l.002-.001a4.185 4.185 0 0 0-.282-.423Z" fill="#D85300"/><path d="M11.632 3.673h.017l-.005-.013c-.018-.027-.039-.048-.073-.026v.001c.029 0 .054.004.061.038Z" fill="#D85300"/><path d="m11.571 3.634-.002.001h.003l-.001-.001Z" fill="#D85300"/><path d="M6.676 3.912c.051-.01.102-.024.155-.022l.005.002c.024-.087.072-.163.108-.244.135-.304.277-.605.415-.908l.128-.28a.139.139 0 0 1 .01-.017c-.67.451-1.34.904-2.009 1.357-.238.161-.476.324-.717.482.065-.023.133-.032.2-.044l1.705-.326Z" fill="#E1E353"/><path d="M5.488 3.8c.67-.453 1.338-.906 2.008-1.357a.148.148 0 0 1 .026-.03c-.032.02-.065.039-.097.06L5.413 3.834c-.226.153-.456.3-.676.462a.412.412 0 0 1 .034-.013c.24-.159.478-.322.717-.483ZM4.774 4.295l1.175-.226.885-.17.003-.007-.006-.002c-.053-.002-.104.012-.155.022l-1.704.326c-.067.012-.136.021-.2.045l-.021.013.023-.001Z" fill="#E1E353"/><path d="m4.75 4.296.021-.013a.43.43 0 0 0-.034.013h.013ZM7.359 2.74c-.138.303-.28.604-.415.908-.036.081-.083.157-.107.244h.002c.013-.018.027-.036.037-.058.113-.25.229-.499.343-.748.1-.218.198-.437.296-.655l-.018.012a.14.14 0 0 0-.01.018c-.042.093-.086.185-.128.279Z" fill="#E1E353"/><path d="m7.497 2.443.018-.012.008-.018a.148.148 0 0 0-.026.03ZM6.836 3.892l-.002.007a.282.282 0 0 1 .004-.006l-.002-.001Z" fill="#E1E353"/><path d="M9.972 1.864c-.08-.055-.143-.13-.207-.2a5.504 5.504 0 0 0-.24-.246c-.102-.097-.191-.206-.291-.305-.011-.01-.033-.023-.03-.04-.106.069-.199.155-.297.234-.25.201-.498.403-.746.604-.19.155-.38.312-.573.464.77-.17 1.54-.332 2.31-.5.025-.005.049-.014.074-.011Z" fill="#DC9000"/><path d="m8.16 1.911.746-.604c.099-.079.191-.165.298-.234.001-.007.006-.013.016-.021-.035 0-.053.027-.076.045-.105.083-.21.169-.314.254L7.56 2.38l.027-.006c.193-.152.383-.309.573-.464ZM7.611 2.387l.806-.175 1.078-.232.487-.109-.01-.007c-.025-.003-.05.006-.074.01-.77.17-1.541.331-2.31.5l-.014.012-.004.002c.013.007.028.002.041 0Z" fill="#DC9000"/><path d="m7.574 2.386.014-.011-.026.006a.032.032 0 0 0 .009.007l.003-.002ZM9.234 1.113c.1.1.19.208.291.305.083.08.162.163.24.247.064.07.127.144.207.199h.006a.082.082 0 0 0-.01-.012l-.72-.743c-.011-.013-.036-.021-.033-.043l-.01.007c-.004.017.018.03.029.04ZM9.204 1.073l.01-.007a.04.04 0 0 1 .006-.014c-.01.008-.015.014-.016.02ZM9.983 1.872a.231.231 0 0 1-.004-.007l-.007-.001.011.008Z" fill="#DC9000"/><path d="m13.04 2.71-.001-.001a.128.128 0 0 1-.003-.005.1.1 0 0 0-.009 0 .071.071 0 0 1 .013.006ZM13.46 3.68c.008.02.025.047.007.065.124.013.248.028.373.04.183.02.367.037.55.055.077.016.088-.03.1-.092.034-.17.076-.337.114-.505a.173.173 0 0 0 .004-.027.771.771 0 0 0-.007-.003c-.287-.095-.576-.183-.864-.275-.22-.07-.438-.14-.658-.207a.118.118 0 0 1-.023-.01c.01.012.018.026.024.041l.38.918Z" fill="#D90"/><path d="m13.035 2.704.003.004v.001a.063.063 0 0 1 .018.013.118.118 0 0 0 .024.01c.22.066.438.137.657.206.288.092.577.18.864.275l.007.003.001-.015-.763-.243-.803-.255h-.008Z" fill="#D90"/><path d="M13.01 2.714c.045 0 .048.037.06.065.102.246.206.491.305.739.03.074.076.143.083.226h.009c.018-.017.001-.043-.007-.064l-.38-.918a.134.134 0 0 0-.024-.04.073.073 0 0 1-.017-.013.057.057 0 0 0-.012-.004.023.023 0 0 0-.016.009Z" fill="#D90"/><path d="m13.038 2.71.017.012a.064.064 0 0 0-.017-.013Z" fill="#D90"/><path d="m11.317 3.173.016-.004c.056-.054.125-.091.187-.137.14-.104.283-.203.425-.303.014-.01.024-.021.027-.038l-.002-.002-.534-.57-.537-.585-.408-.443c-.03-.032-.056-.067-.084-.101H10.4c.015.015.022.036.03.056l.82 2.056c.013.032.04.064.018.102l.009.001c.003-.021.023-.025.04-.032Z" fill="#E1E353"/><path d="M11.279 3.205a.046.046 0 0 0-.01-.001c0 .002-.002.003-.003.005l.006.002h.006v-.006Z" fill="#E1E353"/><path d="M11.252 3.102c-.274-.685-.548-1.37-.82-2.056-.008-.02-.015-.04-.031-.056h-.005c0 .006 0 .012.002.018l.842 2.104c.012.029.03.058.027.092h.003c.022-.038-.006-.07-.018-.102ZM11.268 3.204h-.002v.004l.002-.004ZM11.316 3.186a.441.441 0 0 1 .017-.017l-.015.004c-.017.007-.036.011-.04.032h.001l.004.002a3.61 3.61 0 0 0 .033-.021Z" fill="#E1E353"/><path d="m11.282 3.207-.003-.002h-.001v.005l.004-.003ZM8.164 5.015a.095.095 0 0 1-.044-.025c-.28-.241-.564-.478-.845-.719a32.408 32.408 0 0 0-.382-.323c-.008-.006-.016-.013-.025-.014l.001.002c.08.37.149.744.223 1.116.03.15.06.299.088.449.007.039.034.064.051.095 0-.027.026-.037.045-.048.275-.16.552-.315.827-.474.018-.01.037-.026.06-.018-.006-.014-.007-.028.001-.041Z" fill="#E1E353"/><path d="M8.104 5.073c-.275.16-.552.316-.827.475-.02.011-.045.02-.046.048l.002.004c.004-.013.014-.019.025-.025l.43-.25c.159-.09.318-.177.477-.266l-.001-.003c-.023-.008-.042.007-.06.017ZM7.092 5.052c-.074-.372-.142-.745-.223-1.116v-.002l-.014.001c.104.527.208 1.053.31 1.58.008.043.027.07.066.084v-.003c-.017-.031-.044-.056-.051-.095-.027-.15-.058-.3-.088-.45Z" fill="#E1E353"/><path d="M7.231 5.596V5.6h.002l-.002-.003ZM8.168 5.01l-.333-.285c-.175-.149-.352-.296-.528-.445l-.424-.362c-.017-.015-.023-.013-.025-.006l.01.022c.01.001.017.008.025.014.129.107.256.215.382.323.281.241.566.478.846.719a.095.095 0 0 0 .044.025.052.052 0 0 1 .003-.005Z" fill="#E1E353"/><path d="M6.855 3.936a.026.026 0 0 1 .013-.002.17.17 0 0 0-.01-.022c-.002.006 0 .017-.003.024Z" fill="#E1E353"/><path d="M9.46 1.026a.301.301 0 0 1 .062-.005c.048 0 .096.006.143-.007a.246.246 0 0 1 .052-.005c.048 0 .096.006.143-.007a.306.306 0 0 1 .062-.005c.044 0 .088.006.132-.007a.244.244 0 0 1 .051-.005c.051-.001.102.006.153-.007a.25.25 0 0 1 .051-.005c.022.002.044-.001.065.004.023 0 .046.004.069.001h.06c.039-.024.081-.007.121-.012h.085c.039-.024.08-.007.121-.012h.06c.043-.026.09-.006.134-.012h.073c.038-.024.08-.007.12-.012h.073c.039-.025.081-.007.121-.012h.085c.039-.025.081-.008.121-.012h.06c.027-.021.056-.011.084-.012-.206-.2-.396-.415-.604-.615-.013-.013-.033-.024-.037-.044-.093.022-.177.07-.264.108-.463.203-.925.407-1.389.608l-.192.085.04-.003c.048 0 .097.006.145-.007Z" fill="#DC9000"/><path d="m9.276 1.036.191-.085c.464-.201.927-.405 1.39-.608.087-.038.17-.086.264-.108a.043.043 0 0 1 0-.018c-.015.005-.03.008-.045.015-.515.225-1.03.45-1.544.677-.104.046-.212.083-.31.142a.156.156 0 0 1 .054-.015Z" fill="#DC9000"/><path d="M9.46 1.038h.063c.046-.024.096-.006.144-.012h.05c.046-.025.096-.006.143-.012h.063c.042-.025.088-.006.131-.012h.05c.05-.026.105-.005.156-.012l.051-.002a.119.119 0 0 1 .063-.011c-.02-.005-.043-.002-.064-.004a.249.249 0 0 0-.051.005c-.051.013-.103.006-.154.007a.244.244 0 0 0-.051.005c-.043.013-.088.006-.132.007a.306.306 0 0 0-.062.005c-.047.013-.095.006-.143.007a.249.249 0 0 0-.051.005c-.047.013-.095.006-.143.007a.301.301 0 0 0-.063.005c-.048.013-.096.006-.145.006l-.04.004-.032.015.074-.002c.046-.023.096-.005.144-.01Z" fill="#DC9000"/><path d="M9.276 1.036a.153.153 0 0 0-.054.015h.021l.033-.015ZM11.158.28c.207.199.398.414.604.614h.013l-.503-.52-.136-.142a.414.414 0 0 0-.015.003c.004.02.024.031.037.044Z" fill="#DC9000"/><path d="M11.12.235c.006 0 .011-.002.016-.003l-.014-.015a.043.043 0 0 0-.001.018ZM6.35 6.35c-.067-.08-.132-.163-.197-.245l-.609-.758c-.013-.016-.022-.034-.032-.052.007.024-.002.047-.009.07-.1.364-.197.73-.299 1.094-.005.02-.009.039-.015.058-.01.033 0 .044.035.04.09-.013.18-.022.27-.035.268-.036.536-.067.804-.101.033-.004.072-.02.101.014a.022.022 0 0 1 0 .013c.007.004.01.01.01.018.024-.009.042.007.06.019.123.083.243.172.366.256a.16.16 0 0 1 .053.064c.011.024.03.039.058.032.025-.007.044-.024.043-.052-.002-.027-.02-.048-.045-.05-.057-.003-.096-.039-.138-.068l-.3-.213c-.023-.016-.054-.028-.054-.063-.05.03-.077-.012-.102-.041Z" fill="#DC9000"/><path d="M6.453 6.39c0 .036.03.049.053.064.101.07.2.142.3.213.043.03.082.065.139.068.025.002.043.023.044.05.001.028-.017.045-.042.052-.028.007-.047-.008-.059-.032a.16.16 0 0 0-.052-.064c-.123-.084-.243-.173-.366-.256-.018-.012-.036-.028-.06-.019v.003c.006 0 .014-.002.018 0l.394.28c.022.014.043.028.05.055.01.044.044.057.081.049.032-.008.056-.031.053-.07-.004-.048-.035-.067-.078-.064-.023.002-.036-.008-.052-.02-.12-.083-.24-.167-.358-.253-.022-.016-.057-.023-.06-.06l-.005.005ZM5.502 5.278l-.001-.002v.001l.001.001ZM5.502 5.283c.003.024-.006.047-.012.07l-.325 1.189c-.008.028-.005.041.028.037l.418-.054.753-.094c.016-.002.028-.002.034.015l.003.002a.023.023 0 0 0 0-.013c-.03-.035-.069-.018-.102-.014-.268.034-.536.065-.804.101-.09.013-.18.022-.27.034-.035.005-.045-.006-.035-.039.006-.019.01-.039.015-.058.102-.364.198-.73.3-1.094.006-.023.015-.046.008-.07a.232.232 0 0 0-.01-.015v.003Z" fill="#DC9000"/><path d="M5.502 5.277H5.5v.006l.003-.003-.002-.003ZM6.351 6.33l-.172-.216c-.137-.172-.273-.344-.412-.514-.086-.105-.165-.216-.258-.315a.061.061 0 0 1 .004.01c.01.018.019.036.032.052l.609.758c.065.082.13.165.197.245.025.03.052.072.102.04v-.002c-.051.012-.075-.026-.102-.059Z" fill="#DC9000"/><path d="m6.452 6.391.007-.004-.007.001v.003ZM5.504 5.28 5.5 5.275v.001l.003.002ZM5.504 5.28l.009.015a.061.061 0 0 0-.004-.01l-.005-.005Z" fill="#DC9000"/><path d="M5.503 5.28v-.001L5.5 5.277l.002.003Z" fill="#DC9000"/><path d="M12.954 2.046c.256.065.513.123.768.194h.002v-.562c-.023-.025-.007-.056-.011-.084v-.06c-.023-.022-.01-.049-.012-.073v-.06c-.024-.026-.009-.057-.013-.085v-.048c-.023-.026-.008-.057-.012-.085v-.048c-.023-.025-.008-.056-.012-.084V.99c-.022-.022-.009-.049-.012-.073V.869c-.024-.03-.007-.064-.012-.096V.725c-.024-.026-.008-.057-.012-.085V.592c-.024-.026-.008-.057-.012-.085V.46c-.024-.026-.008-.056-.012-.084 0-.013-.003-.027.009-.036V.335a.075.075 0 0 1-.006-.007c-.005.052-.032.099-.052.146l-.599 1.476c-.012.031-.019.066-.047.09a.05.05 0 0 1-.008.003v.006c.016-.012.035-.008.053-.003Z" fill="#E0BD00"/><path d="M13.723 2.24c-.255-.071-.512-.13-.768-.194-.018-.005-.037-.009-.054.003v.001l.249.06.575.145v-.014l-.002-.001ZM13.607.328a.063.063 0 0 0 .007.007l.001-.012a.01.01 0 0 0-.006-.008l-.002.013Z" fill="#E0BD00"/><path d="M13.604.321a.028.028 0 0 0-.006.008l-.32.789-.376.925a.05.05 0 0 0 .008-.003c.028-.023.035-.059.047-.09.198-.492.399-.984.6-1.476.019-.047.045-.094.051-.146l-.004-.006V.321Z" fill="#E0BD00"/><path d="m13.604.321.004.007.001-.013-.005.006Z" fill="#E0BD00"/><path d="M3.661 4.72c.005-.027-.013-.059.012-.084v-.024c.004-.024-.012-.052.012-.073v-.023c.005-.029-.012-.06.012-.085v-.024c.004-.024-.011-.052.012-.073-.002-.028.019-.053.012-.081l-.008-.016-.026-.015-.392-.105c-.166-.046-.331-.094-.497-.139-.047-.013-.075-.035-.091-.082-.047-.14-.112-.275-.154-.417l-.014-.006c-.298-.122-.602-.23-.903-.348-.049-.02-.098-.038-.146-.06h-.003c.001.012.016.017.023.025l.536.557a.236.236 0 0 1 .022.028l.012.006c.304.272.668.456 1 .686.168.115.343.22.512.334.022.015.044.031.07.04l-.001-.02Z" fill="#DA7400"/><path d="M3.713 4.237c0-.003-.002-.006-.004-.01h-.002l-.02-.005.026.015ZM3.592 4.701c-.169-.114-.343-.219-.51-.334-.334-.23-.698-.414-1.002-.686l-.012-.006a.546.546 0 0 0 .011.015c.045.048.087.1.143.136.4.261.8.523 1.204.78.077.05.146.116.235.146v-.01c-.025-.01-.047-.026-.069-.041ZM1.487 3.065h.003c.048.022.097.04.146.06.3.117.605.226.904.348l.013.006-.005-.016c-.008-.005-.016-.012-.025-.015L1.49 3.053a.023.023 0 0 0-.003.012Z" fill="#DA7400"/><path d="M6.399 6.453a.043.043 0 0 1-.005.009l-.007.004c.002.025-.02.037-.035.05-.143.133-.283.27-.426.402-.338.313-.668.634-1.006.947-.089.082-.175.167-.265.249.426-.182.853-.36 1.28-.54a.146.146 0 0 0 .087-.091c.118-.318.233-.638.351-.956.008-.02.013-.043.03-.058a.05.05 0 0 1 .005-.002.023.023 0 0 1-.009-.014Z" fill="#DB7900"/><path d="M6.404 6.469c-.019.015-.023.037-.031.058-.118.318-.233.638-.351.956a.146.146 0 0 1-.088.091c-.426.18-.853.358-1.279.54l-.026.023.192-.078c.376-.159.75-.32 1.127-.475a.141.141 0 0 0 .088-.094c.123-.34.25-.68.374-1.02l-.003-.003-.003.002ZM6.385 6.458l.001.008.007-.004a.042.042 0 0 0 .006-.01l-.001-.006-.013.012Z" fill="#DB7900"/><path d="M5.925 6.918c.143-.133.283-.27.426-.402.016-.014.037-.025.035-.05l-.014.01a.116.116 0 0 1-.014.015c-.172.16-.345.319-.516.48-.168.157-.335.317-.503.476l-.657.62c-.018.017-.045.03-.052.057l.024-.01c.09-.082.176-.167.265-.249.338-.313.668-.634 1.006-.947ZM4.63 8.124a.052.052 0 0 0-.001.013l.026-.023-.024.01ZM6.372 6.475l.014-.009c0-.002 0-.005-.002-.008l-.012.017ZM6.4 6.448a.025.025 0 0 1-.002.005c.002.005.004.01.01.014l.002-.001c-.001-.007-.003-.014-.01-.018Z" fill="#DB7900"/><path d="m6.407 6.467.003.002v-.003l-.003.001ZM6.398 6.453l.002-.005-.003-.002a.07.07 0 0 0 .001.007Z" fill="#DB7900"/><path d="M5.037 6.54c-.342-.206-.687-.406-1.029-.612-.015-.009-.032-.016-.046-.028-.13.286-.256.574-.387.86.5-.056 1-.125 1.503-.186-.009-.022-.027-.026-.041-.035Z" fill="#D85300"/><path d="M3.962 5.9a.063.063 0 0 1-.008-.01l-.392.872.013-.002c.13-.286.257-.574.387-.86Z" fill="#D85300"/><path d="M3.591 6.778c.044-.008.088-.012.132-.017l.615-.075c.217-.027.434-.053.65-.084.044-.006.092-.002.14-.025-.02-.014-.034-.024-.05-.033-.306-.182-.611-.364-.919-.543-.063-.038-.12-.088-.194-.108v.001l-.002.006c.013.012.03.019.045.028.342.206.687.406 1.03.611.013.009.031.013.04.034-.504.062-1.002.131-1.503.187v.002a.11.11 0 0 1-.009.013c.005.006.013.005.025.003Z" fill="#D85300"/><path d="m3.963 5.9.003-.005v-.002l-.012-.003a.072.072 0 0 0 .01.01ZM3.574 6.762V6.76l-.011.002c0 .006.001.01.003.013a.128.128 0 0 0 .008-.013Z" fill="#D85300"/><path d="M14.22 1.582c-.098.034-.201.045-.3.072-.06.016-.124.016-.18.046v.003c.114.04.227.086.342.12.095.027.157.065.187.17.06.216.141.426.212.638.005.015.018.03.016.046.022.002.034-.018.046-.031.132-.151.264-.303.4-.45.034-.037.035-.068.012-.112-.09-.173-.183-.345-.273-.517a.248.248 0 0 1-.027-.068c-.117.016-.23.05-.347.073a.438.438 0 0 1-.088.01Z" fill="#DFAF00"/><path d="M14.682 1.567c.09.172.183.344.273.517.023.044.022.075-.012.112-.136.147-.268.299-.4.45-.012.013-.024.033-.046.031-.001.005-.003.01-.007.015.036.017.045-.018.059-.034.14-.157.277-.317.419-.472.03-.034.027-.054.008-.09-.106-.198-.208-.398-.312-.598l-.009.001a.249.249 0 0 0 .027.068ZM13.74 1.703V1.7l-.003.002h.003Z" fill="#DFAF00"/><path d="m2.593 9.321-.545-.69c-.068.337-.138.673-.208 1.01-.01.046.004.063.05.06a.438.438 0 0 1 .11.005.172.172 0 0 0 .07.006c.08.002.16-.005.24.005a.18.18 0 0 0 .073.007c.08.002.158-.004.237.004.023.006.045.012.069.01.076.004.154-.005.218.005-.085-.103-.176-.222-.268-.34-.016-.02-.021-.043-.03-.066-.007 0-.012-.01-.016-.016Z" fill="#E1E353"/><path d="M2.61 9.337c.007.023.013.046.028.066.092.118.183.237.269.34-.064-.01-.142 0-.219-.005-.023.002-.046-.004-.068-.01-.08-.008-.158-.002-.237-.004a.18.18 0 0 1-.074-.007c-.08-.01-.16-.003-.24-.005A.17.17 0 0 1 2 9.706a.438.438 0 0 0-.109-.004c-.047.002-.06-.015-.05-.061.07-.337.14-.673.208-1.01a10.115 10.115 0 0 0-.009-.01l-.004.003-.22 1.058c-.007.032.007.033.03.034l.158.005c.021 0 .043-.008.063.008l.251.004c.022 0 .044-.008.064.008l.251.004c.022 0 .044-.007.064.008h.234c-.042-.053-.08-.099-.114-.147-.065-.091-.153-.167-.196-.274l-.01.005Z" fill="#E1E353"/><path d="m12.901 2.046-.002-.002-.006.002-.005-.002-.563.408-.3.214c-.015.01-.03.023-.05.025.002.003.002.006.002.01-.002.028-.025.04-.044.053-.177.125-.353.253-.53.38a.505.505 0 0 1-.044.027c.518-.147 1.036-.291 1.553-.44.031-.008.062-.018.095-.02l.008.001c.004-.006.01-.006.017-.004-.03-.05-.03-.108-.044-.163-.033-.138-.06-.279-.09-.418-.005-.022-.013-.043 0-.065l.003-.002v-.004Z" fill="#E1C300"/><path d="M12.897 2.117c.03.14.058.28.091.418.013.055.015.113.043.163a.067.067 0 0 1 .012.005c-.01-.04-.02-.08-.028-.12l-.114-.533-.003.002c-.013.022-.005.043 0 .065ZM12.888 2.044l.005.002.006-.001a.015.015 0 0 0-.008-.003.04.04 0 0 1-.003.002ZM11.315 3.186c.008 0 .017.001.024-.001l.85-.24.821-.231a.03.03 0 0 1 .005-.012h-.009c-.033.001-.063.011-.094.02-.517.148-1.036.291-1.553.44l-.044.024Z" fill="#E1C300"/><path d="M13.035 2.704a.174.174 0 0 1-.004-.006c-.007-.002-.012-.002-.016.004l.012.003.008-.001Z" fill="#E1C300"/><path d="M13.031 2.698a.564.564 0 0 0 .004.006h.009a.073.073 0 0 0-.013-.006ZM13.01 2.714c.005-.007.011-.009.018-.01a.073.073 0 0 0-.013-.002.029.029 0 0 0-.004.012ZM11.972 2.691c-.003.017-.013.028-.027.038-.142.1-.285.2-.425.303-.062.046-.13.083-.187.137l.026-.008a.52.52 0 0 0 .044-.027c.177-.127.352-.255.53-.38.02-.014.042-.025.044-.053l-.001-.01h-.004ZM11.315 3.186l.044-.025-.026.008a.434.434 0 0 0-.018.017Z" fill="#E1C300"/><path d="m14.58 1.017-.96-.676v.012l.376.757.21.427c.005.01.007.021.01.032l.005-.001c.117-.014.23-.05.346-.071.029-.006.058-.022.087-.006v-.003a.215.215 0 0 1-.002-.02v-.35a.254.254 0 0 0-.019-.072l-.002-.003c-.021.004-.035-.015-.05-.026Z" fill="#E1E353"/><path d="M14.633 1.046c.01.023.015.048.019.072v.35c0 .007 0 .013.002.02v.003a.06.06 0 0 1 .01.007.04.04 0 0 0 .004-.01c-.022-.099-.005-.2-.009-.3-.001-.031-.01-.064.009-.093-.02-.014 0-.046-.025-.057a.042.042 0 0 1-.012.005l.002.003ZM13.62.341l.96.676c.016.01.03.03.05.026l-.013-.021c-.104-.065-.2-.14-.3-.21-.235-.162-.468-.326-.702-.49a.03.03 0 0 1 .006.017V.34Z" fill="#E1E353"/><path d="M14.631 1.043a.04.04 0 0 0 .012-.005l-.026-.016.014.02ZM13.62.353a.45.45 0 0 0 0-.012l-.006-.006v.004l.006.014Z" fill="#E1E353"/><path d="M13.614.335a.068.068 0 0 0 .006.006h.001V.34a.03.03 0 0 0-.005-.016l-.002.012ZM14.568 1.497c-.116.022-.23.057-.347.071l-.004.001.003.013a.44.44 0 0 0 .09-.01c.115-.023.229-.057.346-.073a.118.118 0 0 1-.001-.008c-.029-.016-.059 0-.087.006Z" fill="#E1E353"/><path d="m14.656 1.5.01-.001a.07.07 0 0 0-.012-.008l.002.01Z" fill="#E1E353"/><path d="M2.485 8.69a23.96 23.96 0 0 1-.071-.373l-.143-.759a.513.513 0 0 1-.01-.062c-.007.037-.01.075-.018.112-.066.336-.127.674-.193 1.01v.003c.02.005.027.024.038.038.172.216.342.433.513.65-.037-.158-.06-.318-.093-.476a.134.134 0 0 1 .01-.08c-.033-.006-.029-.04-.033-.063Z" fill="#E1C300"/><path d="M2.517 8.752a.134.134 0 0 0-.008.08c.032.16.055.32.092.477l.019.023c-.024-.123-.053-.246-.07-.37-.01-.069-.048-.136-.02-.209h-.013ZM2.05 8.619c.066-.337.126-.675.193-1.011.007-.037.01-.075.019-.112a.196.196 0 0 1 .006-.068c-.043.104-.047.217-.07.325-.04.184-.074.369-.106.554-.017.105-.047.207-.053.313l.01.001.001-.002ZM2.5 8.68c-.053-.274-.103-.549-.154-.823l-.073-.401a.33.33 0 0 0-.011.04c.001.02.005.041.009.062l.143.759.07.373c.005.023 0 .057.033.062v-.001l.003-.005c-.02-.017-.016-.044-.02-.066Z" fill="#E1C300"/><path d="m2.52 8.746-.002.005v.001a.06.06 0 0 0 .013.001.052.052 0 0 1-.01-.007ZM2.262 7.496a.33.33 0 0 1 .012-.04 28.12 28.12 0 0 0-.005-.029.195.195 0 0 0-.007.069ZM2.05 8.621l-.002.01.544.69c.005.006.01.016.017.016a.27.27 0 0 0-.004-.01l-.004-.018c-.17-.217-.34-.434-.513-.65-.01-.014-.019-.034-.038-.038Z" fill="#E1C300"/><path d="M2.606 9.326a.254.254 0 0 1 .004.011l.01-.005-.018-.023c0 .006.002.011.004.017ZM2.05 8.621a.042.042 0 0 0-.01 0l.008.011.003-.01Z" fill="#E1C300"/><path d="M14.23 1.94c-.012-.038-.033-.064-.071-.074-.118-.03-.227-.083-.344-.116-.026-.008-.057-.012-.074-.037v.002c.005.16.002.32.002.48 0 .017 0 .035-.01.05.223.124.443.256.665.382.027.016.054.031.082.045-.017-.04-.029-.08-.042-.12-.067-.205-.14-.408-.208-.612Z" fill="#D85300"/><path d="M14.399 2.627c-.223-.126-.442-.258-.666-.382a.048.048 0 0 1-.008.01c.076.042.154.082.228.127.177.108.357.21.538.31a.403.403 0 0 1-.01-.02c-.028-.014-.055-.03-.082-.045ZM13.742 1.715v-.002a.068.068 0 0 1-.006-.011h-.01l-.001.539.008.004c.01-.015.01-.033.01-.05.001-.16.004-.32 0-.48Z" fill="#D85300"/><path d="M13.725 2.24v.015a.048.048 0 0 0 .008-.01l-.008-.004ZM14.482 2.631c-.071-.212-.152-.422-.213-.638-.03-.105-.092-.143-.186-.17-.116-.034-.228-.08-.342-.12l.001.01c.017.025.047.029.074.037.116.033.226.086.343.116.039.01.06.036.072.074.068.204.14.407.208.611.013.04.024.082.042.12l.008.005.008.001c.003-.016-.01-.031-.015-.046Z" fill="#D85300"/><path d="m14.489 2.676-.009-.004a.403.403 0 0 0 .01.02.033.033 0 0 0 .007-.015l-.008-.001ZM13.735 1.702a.062.062 0 0 0 .007.011l-.001-.01-.004-.001h-.002Z" fill="#D85300"/><path d="M4.517 4.506c.05-.052.094-.11.147-.16.012-.012.024-.023.038-.033-.136-.004-.27-.016-.406-.025l-.47-.032a.404.404 0 0 1-.094-.014h-.004a.036.036 0 0 1 .005.012l.002.016c.093.118.167.25.253.373.052.075.101.154.15.231.005.007.018.013.013.024a.052.052 0 0 1 .011.013c.004-.026.021-.046.039-.065.107-.112.21-.228.316-.34Z" fill="#E1E353"/><path d="m3.728 4.241.004.001c.03.01.063.012.095.014.157.01.313.02.47.032.135.009.27.021.405.025a.12.12 0 0 1 .025-.013l-1.018-.072a.034.034 0 0 1 .019.013ZM4.162 4.911a.052.052 0 0 0-.011-.013.022.022 0 0 1-.005.005l.015.022.001-.014Z" fill="#E1E353"/><path d="M4.714 4.313h-.012c-.014.01-.026.021-.038.033-.053.05-.096.108-.147.16-.107.112-.209.228-.316.34-.018.019-.035.039-.039.065a.048.048 0 0 1 .004.007.601.601 0 0 1 .061-.078l.487-.527ZM4.702 4.313h.012l.013-.013a.121.121 0 0 0-.025.013ZM4.162 4.911a.074.074 0 0 0 0 .014l.003-.006a.047.047 0 0 0-.003-.008ZM3.734 4.27l-.001-.016a.035.035 0 0 0-.006-.013.096.096 0 0 1-.014-.004l.007.016.014.017Z" fill="#E1E353"/><path d="M3.728 4.241a.034.034 0 0 0-.019-.013l.005.01.014.003ZM14.613 3.283l-.114.505c-.01.044-.017.058-.054.064.116.035.208.115.31.173.146.083.291.168.431.262a.08.08 0 0 0 .004-.002c.032-.023.003-.044-.006-.061a38.644 38.644 0 0 0-.223-.392l-.316-.554c-.01-.017-.025-.034-.017-.055a.169.169 0 0 1-.01-.004c.006.021 0 .043-.005.064Z" fill="#E1E353"/><path d="M14.628 3.223a.043.043 0 0 1 .005-.01 5.639 5.639 0 0 0-.025-.012.057.057 0 0 1 .01.018.141.141 0 0 0 .01.004ZM14.646 3.278l.315.554c.075.13.15.26.223.392.01.017.038.038.006.062h-.004l.017.012c.05-.004.023-.029.012-.048l-.389-.685c-.063-.113-.136-.22-.188-.34a.096.096 0 0 1-.01-.002c-.008.02.008.038.018.055Z" fill="#E1E353"/><path d="m14.628 3.223.01.002-.005-.012a.043.043 0 0 0-.005.01ZM14.49 3.748c-.013.061-.024.108-.1.092.019.003.037.007.055.012.037-.006.044-.02.054-.064l.114-.505c.005-.021.01-.043.005-.063l-.01-.004-.004.027c-.039.168-.08.336-.114.505Z" fill="#E1E353"/><path d="m14.607 3.216.01.003a.06.06 0 0 0-.008-.018l-.002.015Z" fill="#E1E353"/><path d="M4.28 9.188c.009.068.004.136.004.204-.003.064 0 .128 0 .192-.001.03 0 .06-.002.09-.001.009 0 .02-.004.028v.03a.03.03 0 0 0 .018.005c.288.003.576-.001.858.002a424.927 424.927 0 0 1-.888-.604.64.64 0 0 1 0 .01.2.2 0 0 0 .013.043Z" fill="#DB7A00"/><path d="m4.285 9.15.87.59c-.282-.004-.57 0-.858-.003a.03.03 0 0 1-.018-.005v.02l.906.001.005-.008-.565-.383c-.119-.08-.234-.166-.358-.237v.01l.018.015Z" fill="#DB7A00"/><path d="m4.277 9.587.001.115c.003-.009.003-.019.004-.028.003-.03.001-.06.001-.09.001-.064-.001-.128.002-.192 0-.068.004-.136-.005-.204a.193.193 0 0 1-.014-.043l-.001.04-.002-.007.002.008.001.207c.025.063.008.13.01.194Z" fill="#DB7A00"/><path d="M1.902 3.513c-.133-.134-.268-.264-.392-.405-.01-.013-.039-.023-.027-.045-.226-.088-.454-.17-.678-.263l.042.217.015.013c.39.213.785.416 1.175.628-.05-.044-.088-.099-.135-.145Z" fill="#E1E353"/><path d="M1.483 3.063a.048.048 0 0 1 .007-.01l-.189-.074-.498-.19.002.01c.224.094.452.176.678.264ZM.862 3.03l-.015-.013.004.023.202.107.808.434c.072.038.146.073.218.109a.34.34 0 0 1-.042-.032c-.39-.212-.785-.415-1.175-.628Z" fill="#E1E353"/><path d="M1.51 3.09c-.008-.008-.022-.013-.023-.025l-.005-.002c-.011.022.017.032.027.044.124.142.26.272.393.406.046.046.085.101.135.145l.03.017a.248.248 0 0 0-.021-.028L1.51 3.09ZM1.487 3.065c0-.004 0-.007.003-.012a.048.048 0 0 0-.008.01l.005.002Z" fill="#E1E353"/><path d="M2.037 3.658a.335.335 0 0 0 .042.032l-.01-.015-.032-.017Z" fill="#E1E353"/><path d="M20.54 6.65c-.002-.054-.03-.105-.098-.12-.066-.015-.125-.01-.172.044-.01.012-.012.025-.03.011-.107-.084-.141-.085-.244 0 .003-.068-.043-.05-.079-.052-.035-.002-.018.028-.026.042.013.02.006.043.006.064v.624c0 .021.004.043.005.065.095-.002.095-.002.095-.1v-.476c0-.03.004-.06.017-.087.02-.04.047-.06.097-.042.057.02.057.067.057.112.002.184.002.37 0 .554 0 .048.028.037.055.038.027.001.05.003.049-.039a4.203 4.203 0 0 1-.002-.246c.001-.113-.006-.227.006-.34.005-.043.025-.078.07-.085.044-.007.078.01.089.057.016.024.01.05.01.076l.003.578c.022 0 .044-.002.066 0 .02 0 .03-.006.03-.027-.002-.217.001-.434-.005-.65Z" fill="#351505"/><path d="m15.976 6.763-.216-.005c-.022.026-.004.057-.012.084.039.014.082-.01.119.015 0 .078.005.157 0 .235-.002.05-.007.105-.051.137-.075.055-.162.002-.165-.101-.004-.143-.002-.286-.003-.428 0-.077 0-.153.003-.23.003-.06.043-.103.092-.108.062-.005.092.023.116.09.01.026.01.05.011.075.003.042.034.024.055.027.021.003.044.004.048-.028.02-.135-.06-.244-.197-.255-.14-.012-.226.075-.23.208-.005.221-.011.443.002.663.008.137.05.201.195.198a.173.173 0 0 0 .125-.06l.013-.017c.015.01.009.026.009.04.01.044.046.023.069.022.026-.002.016-.028.016-.044l.002-.518Z" fill="#351506"/><path d="M2.718 3.88a.12.12 0 0 0 .087.082c.25.069.5.14.75.208.036.01.071.021.106.036-.08-.05-.16-.102-.238-.154-.266-.174-.53-.351-.795-.528-.021-.014-.043-.028-.066-.04a.264.264 0 0 1 .02.042c.046.118.093.235.136.354Z" fill="#E1E353"/><path d="M2.628 3.524c.265.177.529.354.795.528.079.052.157.105.238.154l.046.02c-.006-.005-.01-.011-.017-.015-.291-.193-.582-.387-.874-.578-.088-.057-.173-.123-.268-.17l.015.02c.023.013.044.027.065.041Z" fill="#E1E353"/><path d="M2.798 3.978c.166.045.331.093.497.139.13.036.261.07.392.105a2.782 2.782 0 0 1-.026-.016.834.834 0 0 0-.106-.036c-.25-.067-.5-.14-.75-.208a.12.12 0 0 1-.087-.082c-.043-.119-.09-.236-.135-.354a.257.257 0 0 0-.02-.042l-.01-.005c.042.142.107.276.154.417.016.047.044.07.09.082Z" fill="#E1E353"/><path d="M2.553 3.48c.003 0 .007.002.01.004a.131.131 0 0 0-.015-.02l.005.015ZM3.687 4.222l.02.005a.658.658 0 0 0-.046-.021l.026.016Z" fill="#E1E353"/><path d="M18.601 6.523c-.043.005-.073.03-.11.066.002-.068-.04-.057-.074-.055-.046.003-.022.04-.024.06-.004.046-.003.092-.004.138.013.02.007.043.007.064l.003.798c.01 0 .021-.002.03 0 .058.01.071-.015.068-.068-.005-.076-.001-.153-.001-.236.099.085.252.054.279-.072.04-.194.034-.39.004-.584-.013-.087-.089-.122-.178-.111Zm.09.613c-.003.071-.035.107-.089.11-.054.001-.095-.03-.1-.098a2.334 2.334 0 0 1 0-.44c.007-.064.052-.096.106-.093.05.002.081.039.084.106.002.07 0 .14 0 .21 0 .069.002.137 0 .205ZM17.285 6.631c-.02-.06-.059-.1-.122-.108-.06-.007-.115.006-.156.056-.019-.06-.003-.123-.008-.184v-.066c0-.099 0-.099-.1-.087v1.032c0 .052.016.063.067.054.03-.005.02-.036.036-.047.12.106.247.063.286-.094l.013-.052v-.446l-.016-.058Zm-.094.532c-.012.048-.035.08-.089.08-.058.002-.087-.035-.093-.083-.018-.15-.017-.3 0-.45.006-.053.035-.094.097-.095.053 0 .086.03.091.098.006.07.002.14.002.21-.004.08.011.16-.008.24ZM19.79 6.534c-.044-.018-.08.007-.092.055-.008.028-.009.058-.015.086-.032.156-.065.312-.086.47v.037h.001c.007-.003.002.004 0 .002v.008c-.022-.023-.027-.045-.023-.07-.028-.162-.059-.324-.085-.486-.017-.104-.014-.105-.116-.102l-.013.003c.04.185.083.368.118.554.018.091.05.18.05.276 0 .09-.032.13-.12.141-.022.004-.027.014-.023.032.004.02-.017.049.016.062.054.02.14-.009.17-.059a.4.4 0 0 0 .05-.12 48.803 48.803 0 0 0 .18-.837c.003-.017.015-.04-.013-.052Z" fill="#351505"/><path d="M19.278 6.73c-.002-.081-.01-.17-.109-.197-.111-.03-.23-.012-.251.143l.004.072c.055.002.109.011.1-.077-.003-.03.025-.059.07-.059.04 0 .059.013.073.051.015.042.007.083.013.124.007.054-.008.073-.068.077-.136.007-.191.054-.216.187v.12c.006.152.153.22.258.132.017-.014.017-.003.027.009.024.029.06.013.09.013.017 0 .013-.018.013-.029-.001-.188 0-.377-.004-.565Zm-.1.32c-.002.047.002.093-.015.137-.016.04-.044.061-.088.06-.043 0-.066-.027-.076-.065a.296.296 0 0 1 0-.149c.015-.064.099-.108.162-.092.016.005.017.014.017.026v.084ZM21.05 6.673c-.013-.063-.042-.122-.11-.139-.175-.043-.262.027-.271.217-.006.114-.003.229-.004.343.013.02.005.043.008.065.008.057.02.117.07.152.126.087.293.001.31-.151.007-.059-.015-.06-.06-.06-.038 0-.033.022-.037.045-.011.066-.053.113-.097.11-.045-.002-.082-.052-.087-.12-.003-.048 0-.096-.004-.144-.003-.037.014-.043.046-.042.068.002.137 0 .206 0 .025 0 .042-.004.042-.036-.002-.08.005-.16-.012-.24Zm-.088.17c0 .02-.012.023-.028.022h-.067c-.103 0-.104 0-.098-.103.002-.031.002-.063.013-.094.016-.044.049-.06.089-.06.04 0 .07.024.08.062.017.056.012.115.011.173ZM23.78 7.256c-.014.07.017.072.058.072.056 0 .035-.038.035-.062.002-.213 0-.426 0-.639 0-.092 0-.092-.093-.095-.015.134-.002.269-.007.404-.002.055.009.112-.007.167a.134.134 0 0 1-.027.1c-.027.035-.061.054-.104.04-.043-.014-.052-.053-.052-.092 0-.187-.002-.374 0-.56 0-.044-.008-.06-.055-.06-.048 0-.05.02-.05.057l-.002.543c.012.024.006.05.008.076.01.072.054.122.115.13.07.01.128-.013.181-.08Z" fill="#351606"/><path d="M17.75 7.214c-.006-.056 0-.113 0-.17-.002-.126-.001-.253-.002-.38-.032-.106-.08-.145-.177-.142-.09.002-.155.028-.18.142.004.028-.006.057.004.084.057.004.105.007.1-.078-.002-.044.043-.062.089-.058.04.003.05.026.057.063.008.04.005.079.01.118.004.047-.004.068-.062.07-.138.004-.205.063-.221.176 0 .021.003.043-.009.064v.004c.013.024.007.05.008.076.036.154.12.193.255.12.007-.003.02-.021.027 0 .02.053.062.022.09.02.031-.001.007-.034.009-.053 0-.007.005-.015.008-.022a.081.081 0 0 1-.005-.034Zm-.113-.033c-.014.044-.042.067-.089.067-.05-.001-.071-.034-.08-.076a.323.323 0 0 1 0-.132c.016-.07.095-.115.164-.099.022.005.018.018.019.03v.08c0 .043 0 .088-.014.13ZM16.792 6.666c-.03-.105-.106-.152-.217-.144-.102.008-.171.1-.172.191-.002.15-.006.301.002.452.005.087.06.153.14.17.134.028.213-.03.258-.188v-.434l-.01-.047Zm-.089.243v.195a.391.391 0 0 1-.01.071c-.011.052-.045.075-.096.073-.05-.003-.08-.035-.085-.08a2.254 2.254 0 0 1-.001-.475c.004-.045.032-.077.083-.08.056-.003.088.024.1.076.02.08.004.16.01.22ZM22.938 6.531c-.124-.03-.25.006-.266.194v.397c.003.072.018.141.076.187.108.083.288.016.313-.118.03-.165.016-.333.008-.499a.166.166 0 0 0-.13-.16Zm.029.63c-.01.052-.034.086-.09.087-.057 0-.085-.032-.095-.083-.018-.09-.007-.18-.009-.271 0-.066-.006-.133.008-.199.01-.052.038-.082.094-.082.057 0 .083.034.092.085.014.078.002.156.007.235-.005.076.007.152-.007.228ZM24.709 7.327c.163.043.26-.028.282-.205v-.397l-.015-.064c-.016-.091-.1-.143-.207-.14a.186.186 0 0 0-.177.174 4.95 4.95 0 0 0 0 .475c.005.082.05.14.117.157Zm-.011-.634c.004-.046.032-.076.083-.08.052-.003.084.02.098.07.023.081.004.164.012.245-.007.08.007.158-.009.236-.01.051-.036.084-.092.084-.056-.001-.088-.035-.093-.085a2.503 2.503 0 0 1 0-.47Z" fill="#351505"/><path d="M25.117 6.615v.648c0 .021.003.043.005.065.095-.002.095-.002.095-.1v-.471a.21.21 0 0 1 .023-.092c.018-.04.05-.056.093-.05.04.006.062.03.073.068.01.03.008.06.008.089 0 .17.002.342-.001.513-.001.051.029.04.058.042.032.002.044-.005.044-.043-.003-.185.001-.37-.001-.556 0-.075-.005-.156-.088-.192-.075-.033-.145-.013-.204.043-.027-.054-.061-.063-.112-.028.014.02.007.043.007.064Z" fill="#361606"/><path d="M21.575 6.664c-.043-.15-.145-.187-.274-.096-.025.018-.024 0-.029-.013-.015-.044-.051-.018-.077-.02-.029-.002-.017.026-.018.041l-.003.168c.015.061.005.123.006.184.003.133.004.266.005.4.096-.002.096-.002.096-.1v-.433c0-.038 0-.076.012-.113.02-.06.074-.081.132-.056.056.025.05.077.05.12.003.161.001.321.001.482 0 .098 0 .098.095.1.01-.221.003-.443.004-.664ZM22.476 6.751l-.001-.003v.003Z" fill="#351505"/><path d="M22.393 6.846c-.042-.03-.077-.066-.08-.12-.005-.047.012-.112.067-.115.051-.003.08.022.09.085.005.007.006.015.005.024.01.048.021.047.101.038-.002-.028-.004-.056-.009-.083-.025-.142-.149-.195-.278-.124-.099.053-.093.257-.023.329.04.04.087.072.133.105.072.052.09.106.073.194-.01.056-.047.074-.087.074a.073.073 0 0 1-.075-.078c-.017-.024-.007-.051-.01-.077l-.02-.003c-.077-.002-.078-.002-.08.076.005.079.038.14.117.165.078.025.19-.01.229-.069.048-.07.053-.22-.007-.299-.04-.051-.095-.084-.146-.122ZM22.577 6.758Z" fill="#351505"/><path d="M3.734 4.281c-.002.019-.008.036-.013.054-.01.022-.007.047-.009.07 0 .01-.002.018-.004.027-.01.026-.006.054-.008.08 0 .01-.002.019-.004.028-.008.023-.006.047-.008.07 0 .01-.002.019-.004.028-.01.026-.006.054-.008.08a.06.06 0 0 1-.007.026h.002c.136.044.273.086.41.125.019.006.037.011.055.02-.104-.142-.193-.294-.292-.439-.038-.055-.08-.108-.11-.169Z" fill="#D85300"/><path d="M4.08 4.87c-.137-.04-.273-.082-.409-.125l-.003-.001a.032.032 0 0 1-.007.008c.159.06.324.1.485.151l-.01-.014a.348.348 0 0 0-.056-.02ZM3.683 4.638a.157.157 0 0 0 .005-.027c.001-.024 0-.048.008-.071a.155.155 0 0 0 .004-.027c.002-.027-.002-.055.008-.08a.161.161 0 0 0 .004-.028c.002-.023 0-.048.008-.07.005-.018.012-.035.014-.054a.437.437 0 0 1-.013-.028c.007.028-.014.053-.012.081-.003.024.009.051-.012.073v.024c-.004.028.01.059-.012.085v.023c-.003.025.009.052-.012.073v.024c-.003.028.01.059-.012.085v.02l.008.003a.06.06 0 0 0 .007-.025c.002-.027-.002-.055.007-.081Z" fill="#D85300"/><path d="M3.669 4.744a.131.131 0 0 1-.008-.002.78.78 0 0 0 0 .01.033.033 0 0 0 .008-.008ZM4.138 4.874c-.05-.077-.098-.156-.15-.231-.086-.124-.16-.255-.254-.373v.011c.029.06.07.114.109.17.1.144.189.296.292.438a.147.147 0 0 1 .013.006l.002.003c.006-.01-.007-.017-.012-.024Z" fill="#D85300"/><path d="m4.148 4.895-.012-.006.01.014a.022.022 0 0 0 .005-.005l-.003-.003ZM3.734 4.281a.1.1 0 0 0 0-.011l-.013-.017.013.028Z" fill="#D85300"/><path d="M23.951 6.626c.084-.006.084-.006.084.073 0 .166.002.333 0 .5 0 .118.077.171.189.13.034-.012.018-.035.02-.053.002-.019-.007-.03-.03-.025-.061.014-.078-.022-.078-.073v-.513c0-.03.006-.046.039-.042.014.002.028 0 .042 0 .042.004.03-.026.032-.048.001-.023.003-.041-.032-.043-.081-.004-.081-.006-.081-.088 0-.016-.002-.032 0-.048.005-.04-.002-.06-.053-.06-.05 0-.05.023-.048.059.002.018 0 .036 0 .054 0 .086 0 .086-.086.083a.13.13 0 0 0 .002.094Z" fill="#371707"/><path d="M21.943 6.627c.016-.031.011-.063.003-.095-.107.004-.107.004-.107-.097 0-.097 0-.097-.096-.097-.011.063.014.13-.013.191-.01.002-.02.004-.029.004-.03 0-.056-.005-.056.043 0 .048.021.051.057.048.009-.001.019.003.028.005.014.003.011.014.011.024l-.001.566a.18.18 0 0 0 .026.077c.024.038.113.059.166.03.035-.018.015-.053.008-.081a.07.07 0 0 1-.066 0c-.033-.012-.035-.039-.035-.069V6.72c0-.102 0-.102.104-.092Z" fill="#351505"/><path d="M23.196 6.246c.001.022.003.044.003.067v.959c-.001.045.01.057.056.057.043 0 .048-.018.048-.054V6.243a.174.174 0 0 0-.107.003ZM17.929 6.246c0 .022.003.044.003.067l-.001.965c0 .038.009.05.05.051.048.002.054-.017.054-.06V6.245a.163.163 0 0 0-.106.002Z" fill="#381909"/><path d="M16.244 6.241h-.098V7.28l.002.047h.094l.003-.732v-.354Z" fill="#351505"/><path d="M.799 2.794c-.083-.076-.146-.17-.217-.255-.07-.085-.14-.172-.214-.267.06.16.122.307.185.455a.1.1 0 0 0 .027.04c.091.073.167.163.254.24-.023-.058-.027-.12-.042-.179A.039.039 0 0 1 .8 2.794Z" fill="#DC9101"/><path d="M.58 2.767a.1.1 0 0 1-.027-.04 10.785 10.785 0 0 1-.185-.455c.074.095.143.182.213.267.072.086.134.18.217.255a.04.04 0 0 1 .004-.004l-.45-.557c-.009.014-.008.022-.006.029l.195.474a.195.195 0 0 0 .074.084.713.713 0 0 1 .11.1c.04.042.078.086.126.12a.257.257 0 0 1-.017-.034C.746 2.93.67 2.84.579 2.766Z" fill="#DC9101"/><path d="m.804 2.8-.006-.006a.039.039 0 0 0-.007.034c.015.06.02.122.043.178a.84.84 0 0 0 .012.01L.804 2.8ZM.834 3.006c.005.012.01.023.017.034l-.005-.023a.58.58 0 0 1-.012-.01ZM.805 2.8l-.002-.01a.046.046 0 0 0-.004.004l.006.006ZM8.201 5.005a.056.056 0 0 1-.027.01H8.17a.05.05 0 0 1-.004.042l.005.002c.033.06.05.127.073.192l.177.507c.012.035.005.066-.003.1-.009.034 0 .064.03.084.028.018.056.01.08-.006.043-.028.043-.087-.003-.116a.15.15 0 0 1-.066-.082c-.076-.22-.155-.44-.23-.661-.006-.017-.014-.034-.009-.053-.012 0-.019-.006-.019-.019Z" fill="#DC9101"/><path d="M8.22 5.023v.001c-.005.02.003.036.01.053.074.22.153.44.23.661a.15.15 0 0 0 .065.082c.045.029.046.088.003.116-.024.016-.052.024-.08.006-.03-.02-.039-.05-.03-.084.008-.034.015-.065.003-.1-.058-.17-.119-.338-.177-.507-.023-.065-.04-.131-.073-.192a.048.048 0 0 0-.005-.002l-.001.002c.071.234.166.46.237.694.01.036.017.062.002.098-.02.048.004.094.05.11a.094.094 0 0 0 .117-.05c.02-.042-.001-.092-.05-.112-.018-.008-.032-.014-.038-.033l-.256-.743h-.006ZM8.202 4.998l-.034.012.002.005h.004a.056.056 0 0 0 .027-.01v-.007Z" fill="#DC9101"/><path d="m8.204 5.002-.003.003c0 .013.007.019.02.018l.002-.003a.044.044 0 0 1-.019-.018Z" fill="#DC9101"/><path d="m8.223 5.02-.002.003a.05.05 0 0 0 .006 0l-.004-.003ZM8.202 4.998v.007a.053.053 0 0 0 .002-.003l-.002-.004ZM8.17 5.015h-.005c-.008.013-.007.027 0 .041l.001.001a.05.05 0 0 0 .004-.042Z" fill="#DC9101"/><path d="M8.164 5.056v.002l.002-.001h-.002ZM8.168 5.01a.039.039 0 0 0-.003.004h.004a.06.06 0 0 0-.001-.004Z" fill="#DC9101"/><path d="M24.457 6.924c0-.116-.005-.233.002-.348.004-.055-.026-.04-.053-.043-.038-.006-.047.011-.047.047.002.233.002.466 0 .699 0 .034.005.05.046.05.04 0 .058-.01.058-.05v-.355h-.006Z" fill="#391A0A"/><path d="M24.36 6.363c-.001.025.007.034.033.036.049.003.078-.005.07-.063-.003-.03.002-.06.003-.09a.174.174 0 0 0-.108-.003l.002.12Z" fill="#3D1E0F"/><path d="M4.264 9.132ZM4.264 9.132l.003-.007c-.008-.056.008-.113-.012-.168.011.057 0 .117.009.175ZM4.264 9.132a.05.05 0 0 1-.005-.007.145.145 0 0 1-.006-.023c0 .026.003.05.01.076a.077.077 0 0 1 0-.046Z" fill="#E4A637"/><path d="M4.253 9.102a.145.145 0 0 0 .006.023.055.055 0 0 0 .005.007c-.008-.058.003-.118-.009-.175.002.048-.003.097-.002.145ZM4.266 9.145v-.01l-.002-.003.002.013Z" fill="#E4A637"/><path d="M4.266 9.135v-.01a.075.075 0 0 0-.002.007l.002.003ZM4.266 9.145a.248.248 0 0 1-.002-.013.077.077 0 0 0-.001.046l.002.008.001-.04Z" fill="#E4A637"/><path d="M4.264 9.716a.067.067 0 0 0 .01.013.22.22 0 0 1-.002-.018.025.025 0 0 1-.008.005Z" fill="#E3A533"/><path d="M4.274 9.729a.067.067 0 0 1-.01-.013.04.04 0 0 1-.01.002c-.002.019.007.03.025.034a.17.17 0 0 1-.005-.024ZM4.273 9.588v-.002h-.006c-.006.04.011.084-.007.123a.369.369 0 0 0 .004.007.025.025 0 0 0 .008-.005c-.003-.04.005-.082.001-.123Z" fill="#E3A533"/><path d="M4.26 9.71a.093.093 0 0 1-.006.01.044.044 0 0 0 .01-.003.257.257 0 0 1-.005-.008ZM4.271 9.711l.002.018a.038.038 0 0 0 .005.003v-.03a.024.024 0 0 1-.007.01Z" fill="#E3A533"/><path d="M4.273 9.728a.182.182 0 0 0 .005.024v-.02a.031.031 0 0 1-.005-.004ZM4.273 9.586v.002c.004.04-.004.082 0 .123a.024.024 0 0 0 .006-.01l-.002-.114h-.004Z" fill="#E3A533"/><path d="M19.597 7.146c-.015 0-.01-.02-.022-.024.008.017.008.037.018.055-.004-.011-.005-.022.004-.031ZM19.596 7.181v.002l.001.001v-.002h-.001ZM19.593 7.178l.002.003a.06.06 0 0 1-.002-.004Z" fill="#351505"/><path d="M19.598 7.192v-.008l-.001-.002c-.002-.001-.003-.002-.003-.004v-.001c-.01-.018-.01-.038-.018-.055-.005.025 0 .047.022.07Z" fill="#351505"/><path d="m19.593 7.177.003.004h.001v-.035c-.01.01-.008.02-.004.03Z" fill="#351505"/><path d="M10.26.99c-.05.016-.104-.005-.155.011.051-.005.105.014.155-.011Z" fill="#E2922D"/><path d="M10.26.99c-.051.007-.105-.014-.155.011.05-.016.104.005.155-.011Z" fill="#E2922D"/><path d="M9.317 1.05c.048-.005.098.012.144-.012-.047.016-.097-.004-.144.012Z" fill="#E2942D"/><path d="M9.317 1.05c.047-.016.097.004.144-.012-.048.006-.097-.012-.144.012Z" fill="#E2942D"/><path d="M9.86 1.014c-.046.016-.096-.004-.143.011.048-.004.097.013.143-.01Z" fill="#E2932D"/><path d="M9.86 1.014c-.047.006-.097-.013-.143.011.047-.015.097.005.143-.01Z" fill="#E2932D"/><path d="M9.523 1.037c.048-.004.098.013.144-.01-.047.015-.097-.005-.144.01Z" fill="#E2942D"/><path d="M9.523 1.037c.047-.015.097.005.144-.01-.048.005-.097-.013-.144.01Z" fill="#E2942D"/><path d="m10.395.985.004.003a.02.02 0 0 1 .013 0l.002.002h.008a.301.301 0 0 0-.027-.005Z" fill="#E3AC30"/><path d="M10.395.985a.233.233 0 0 0-.083.004l.083.001A.022.022 0 0 1 10.4.988a.102.102 0 0 0-.004-.003Z" fill="#E3AC30"/><path d="m10.413.99-.002-.002a.02.02 0 0 0-.013 0L10.4.99H10.414Z" fill="#E3AC30"/><path d="M10.396.99h.006L10.4.988a.028.028 0 0 0-.005.002ZM10.394.985c.01 0 .018.003.028.005.008-.001.015-.003.02-.012-.022.003-.045 0-.068-.001.005 0 .01.002.015.004l.005.004Z" fill="#E3AC30"/><path d="M10.395.985 10.39.982a.08.08 0 0 0-.015-.005c-.022-.001-.043 0-.063.012a.232.232 0 0 1 .083-.004Z" fill="#E3AC30"/><path d="M9.923 1.013c.044-.004.09.014.131-.01-.043.015-.088-.005-.131.01Z" fill="#E2962D"/><path d="M9.923 1.013c.043-.015.088.005.131-.01-.043.005-.09-.014-.131.01Z" fill="#E2962D"/><path d="M8.262 4.576c-.02.017-.01.04-.01.06.012-.018-.003-.042.01-.06Z" fill="#E2992D"/><path d="M8.263 4.576c-.013.018.002.042-.011.06.018-.017.01-.04.011-.06ZM8.372 3.839c-.02.017-.01.04-.012.06.014-.018-.002-.042.012-.06Z" fill="#E2992D"/><path d="M8.372 3.839c-.014.018.002.042-.012.06.018-.017.01-.04.012-.06ZM8.457 3.26c-.02.017-.01.04-.012.06.014-.018-.002-.042.012-.06Z" fill="#E2992D"/><path d="M8.457 3.26c-.014.018.002.042-.012.06.018-.017.01-.04.012-.06ZM8.323 4.165c-.02.017-.01.04-.011.06.013-.018-.003-.041.01-.06Z" fill="#E2992D"/><path d="M8.324 4.165c-.014.019.002.042-.011.06.017-.017.01-.04.01-.06ZM8.396 3.67c-.02.017-.01.04-.011.06.013-.018-.003-.041.011-.06Z" fill="#E2992D"/><path d="M8.396 3.67c-.014.019.002.042-.011.06.018-.017.01-.04.011-.06ZM8.432 3.428c-.02.018-.01.04-.011.061.013-.018-.002-.042.011-.06Z" fill="#E2992D"/><path d="M8.432 3.428c-.014.019.002.043-.011.061.018-.018.01-.04.011-.06Z" fill="#E2992D"/><path d="M12.836 2.002c-.337-.339-.664-.69-1.004-1.026-.016-.015-.028-.033-.042-.05l.036.387c.014.136.03.27.046.405.02.18.04.361.058.542l.04.418.003.006.002.005c.103-.088.218-.16.328-.24l.525-.375c.017-.012.033-.028.056-.031-.02-.01-.033-.027-.048-.041Z" fill="#D85300"/><path d="M11.832.976c.34.337.666.687 1.004 1.026.015.014.028.032.047.04a.05.05 0 0 1 .008 0c-.008-.01-.015-.02-.023-.028L11.788.908l.002.018c.013.017.026.035.042.05ZM11.969 2.678v.011l.003.002.002-.002-.001-.005-.004-.006ZM12.828 2.074c-.176.124-.35.25-.525.376-.11.079-.225.15-.328.239v.002c.02-.002.035-.014.05-.025l.3-.215.563-.407-.005-.002c-.022.004-.038.02-.055.032Z" fill="#D85300"/><path d="m12.884 2.042.004.002a.083.083 0 0 0 .003-.002h-.007ZM11.972 2.691h.004l-.001-.002-.003.002Z" fill="#D85300"/><path d="M11.774.908 11.767.9a.056.056 0 0 1-.017.007h.024Z" fill="#E3A830"/><path d="M11.774.908h.014l-.013-.015a.052.052 0 0 1-.008.007l.007.008ZM11.767.9l-.002-.002-.003-.004c-.028 0-.058-.01-.083.011l.071.002A.058.058 0 0 0 11.767.9Z" fill="#E3A830"/><path d="m11.762.894.003.004.002.002a.052.052 0 0 0 .008-.007.078.078 0 0 1-.013.001Z" fill="#E3A830"/><path d="M4.273 9.582c-.003-.063.008-.127-.006-.19v.194c.002-.003.004-.004.006-.004Z" fill="#E1872B"/><path d="M4.273 9.582c.001 0 .003.002.004.005-.003-.065.015-.13-.01-.194.014.062.003.126.006.189Z" fill="#E1872B"/><path d="M4.273 9.587v-.005c-.002 0-.004.001-.006.004h.005Z" fill="#E1872B"/><path d="M4.272 9.582v.003h.004c-.001-.002-.002-.003-.004-.003Z" fill="#E1872B"/><path d="M11.69.913a.3.3 0 0 1-.074.01c-.04 0-.08-.006-.12.007-.028.005-.056.005-.083.005-.041 0-.082-.006-.122.007a.365.365 0 0 1-.073.005c-.04 0-.081-.005-.121.007a.365.365 0 0 1-.073.005c-.044 0-.088-.006-.132.007a.306.306 0 0 1-.062.005c-.04 0-.082-.005-.121.007-.028.006-.056.005-.083.005-.04 0-.082-.005-.122.007a.252.252 0 0 1-.062.004h-.005c-.004.004-.01.004-.016.002.07.061.128.133.19.2l.334.364c.163.18.328.358.493.537l.339.367c.061.067.128.129.182.201-.023-.062-.022-.129-.028-.193-.04-.408-.089-.814-.127-1.222-.009-.088-.02-.176-.028-.264-.002-.024-.008-.048.005-.07 0-.002-.001-.002-.002-.003-.03.013-.06.016-.088 0ZM11.782.916l.008-.008a.22.22 0 0 1-.01.005l.002.003Z" fill="#E1C300"/><path d="M11.777 2.464c-.112-.123-.226-.245-.339-.367-.165-.179-.33-.357-.493-.537-.11-.122-.222-.243-.334-.364-.062-.068-.12-.139-.19-.2a.087.087 0 0 1-.014-.006c.028.034.055.069.085.101l.407.443.538.584c.177.191.356.381.534.571a.262.262 0 0 1-.011-.024c-.055-.072-.121-.134-.183-.201ZM10.438.993l.005.001c.02.001.041 0 .062-.004.04-.012.08-.007.121-.007.028 0 .056 0 .083-.005.04-.012.08-.007.122-.007.02 0 .04-.001.061-.005.044-.013.088-.007.133-.007a.36.36 0 0 0 .072-.005c.04-.013.081-.007.122-.007.024 0 .048 0 .072-.005.04-.013.081-.007.122-.007.028 0 .055 0 .083-.005.04-.013.08-.007.121-.008a.302.302 0 0 0 .074-.009.116.116 0 0 1-.012-.008h-.06c-.04.024-.082.007-.122.012h-.085c-.038.025-.08.007-.12.012h-.073c-.039.025-.081.007-.121.012h-.073c-.043.026-.09.007-.133.012h-.061c-.038.025-.08.008-.121.012h-.085c-.038.025-.08.008-.121.013h-.06a.03.03 0 0 1-.007.015Z" fill="#E1C300"/><path d="M10.437.993a.357.357 0 0 0-.014-.003h-.009l.007.006c.007.002.012.002.016-.003Z" fill="#E1C300"/><path d="M10.421.996 10.414.99a.11.11 0 0 0-.007 0l.014.006ZM10.422.99l.015.003a.03.03 0 0 0 .006-.015c-.006.009-.013.01-.021.012ZM11.776.986c.008.088.02.176.028.264.038.407.087.814.127 1.222.006.064.005.131.028.193a.633.633 0 0 1 .01.013c-.013-.14-.025-.279-.04-.418-.018-.18-.038-.361-.058-.542l-.045-.405-.036-.387-.008-.01V.915h-.001c-.013.023-.008.047-.005.071Z" fill="#E1C300"/><path d="m11.782.916.008.01-.001-.018-.008.007.001.001ZM11.959 2.665a.267.267 0 0 0 .01.024v-.01l-.01-.014ZM11.69.913c.03.016.059.013.089 0l-.005-.005-.025-.001c-.019.005-.04.002-.059.006Z" fill="#E1C300"/><path d="m11.774.908.005.005a.139.139 0 0 0 .01-.005h-.015ZM11.75.907 11.68.905a.108.108 0 0 0 .012.008c.02-.004.04-.001.06-.006Z" fill="#E1C300"/><path d="M11.025.942c-.045.006-.09-.014-.133.011.043-.015.09.005.133-.011Z" fill="#E3AC30"/><path d="M11.025.942c-.043.016-.09-.004-.133.011.044-.005.09.014.133-.011Z" fill="#E3AC30"/><path d="M11.618.906c-.04.004-.083-.013-.12.011.038-.016.081.005.12-.011Z" fill="#E3AD30"/><path d="M11.618.906c-.039.016-.082-.005-.12.011.04-.004.082.013.12-.011Z" fill="#E3AD30"/><path d="M11.412.918c-.04.005-.083-.013-.121.011.04-.016.082.005.121-.011Z" fill="#E4AD30"/><path d="M11.412.918c-.04.016-.082-.005-.121.011.04-.004.083.013.121-.011Z" fill="#E4AD30"/><path d="M10.831.954c-.04.005-.083-.012-.121.012.04-.016.082.005.121-.012Z" fill="#E3AD30"/><path d="M10.831.954c-.04.017-.082-.004-.121.012.04-.005.083.012.121-.012Z" fill="#E3AD30"/><path d="M10.625.966c-.04.005-.083-.012-.121.012.04-.016.082.005.12-.012Z" fill="#E4AD30"/><path d="M10.625.966c-.04.017-.082-.004-.121.012.04-.005.082.012.12-.012ZM11.218.93c-.04.005-.083-.012-.121.011.039-.016.082.005.12-.011Z" fill="#E4AD30"/><path d="M11.218.93c-.04.016-.082-.005-.121.011.04-.004.082.013.12-.011Z" fill="#E4AD30"/><path d="M13.905 1.64c.1-.027.202-.045.303-.069-.014-.016-.02-.036-.03-.054-.18-.364-.358-.73-.542-1.093L13.619.39c0 .024 0 .048.008.072.003.015.005.03.005.046 0 .029-.002.057.007.085a.24.24 0 0 1 .005.047c0 .029-.002.058.007.086a.244.244 0 0 1 .005.048c0 .032-.003.064.007.095a.242.242 0 0 1 .005.048c0 .026-.001.051.008.076a.287.287 0 0 1 .005.057c0 .029-.003.058.007.085a.242.242 0 0 1 .005.048c0 .029-.003.058.007.086a.25.25 0 0 1 .005.048c0 .028-.003.057.007.085.004.02.005.038.005.058 0 .025-.002.05.007.076.004.019.005.038.005.058 0 .03-.002.06.008.09l.002.008c.046-.045.11-.035.166-.05Z" fill="#DC9000"/><path d="m13.734 1.699-.001-.002.006-.006-.002-.009c-.01-.029-.009-.059-.008-.089 0-.02-.001-.04-.005-.058-.009-.025-.008-.05-.007-.076a.281.281 0 0 0-.005-.058c-.01-.028-.008-.057-.007-.085a.235.235 0 0 0-.006-.048c-.01-.028-.007-.057-.006-.085a.243.243 0 0 0-.006-.049c-.01-.027-.007-.056-.006-.085a.28.28 0 0 0-.006-.057c-.008-.025-.007-.05-.007-.076a.242.242 0 0 0-.005-.048c-.01-.031-.007-.063-.007-.095a.244.244 0 0 0-.005-.048c-.01-.028-.007-.057-.007-.086a.24.24 0 0 0-.005-.047c-.01-.028-.007-.056-.007-.085a.235.235 0 0 0-.005-.046c-.008-.024-.008-.048-.008-.072a.088.088 0 0 1-.006-.05c-.012.01-.009.023-.01.035.023.026.008.057.012.085v.048c.024.026.008.057.012.085V.64c.023.026.008.056.013.084v.049c.023.03.007.064.012.096v.049c.022.021.008.048.012.072v.06c.023.026.008.057.012.085v.048c.023.026.008.057.012.085v.048c.023.026.008.056.012.085v.06c.022.021.008.048.012.072v.06c.023.026.008.057.012.085v.024c.003-.004.006-.005.01-.003ZM14.208 1.57c-.1.025-.203.043-.303.07-.055.016-.12.006-.166.05l.002.01c.056-.03.12-.03.179-.046.1-.027.202-.039.3-.072a.072.072 0 0 1-.012-.011Z" fill="#DC9000"/><path d="m13.733 1.697.001.002.004.003.003-.002-.002-.01a.105.105 0 0 0-.006.007ZM13.62.389c.004.012.01.024.016.035.184.363.362.728.542 1.093.01.018.016.038.03.054l.008-.002c-.003-.011-.005-.022-.01-.032l-.21-.427-.376-.757V.39Z" fill="#DC9000"/><path d="M13.62.389V.353a.922.922 0 0 0-.006-.014.087.087 0 0 0 .006.05ZM14.22 1.582l-.004-.013-.008.002a.074.074 0 0 0 .012.011ZM13.735 1.699c-.004-.002-.007 0-.01.004h.01v-.004Z" fill="#DC9000"/><path d="m13.734 1.699.001.002h.002a.012.012 0 0 0-.003-.002Z" fill="#DC9000"/><path d="M13.64.773c.005.032-.012.067.012.096-.016-.03.004-.065-.012-.096Z" fill="#E4B030"/><path d="M13.64.773c.017.03-.003.066.012.096-.004-.032.012-.066-.011-.096Z" fill="#E4B030"/><path d="M13.664 1.05c.005.029-.011.06.012.085-.015-.027.004-.058-.012-.085Z" fill="#E4AE30"/><path d="M13.665 1.05c.016.027-.004.058.012.085-.005-.028.01-.059-.012-.085Z" fill="#E4AE30"/><path d="M13.604.374c.004.029-.011.06.012.085C13.6.432 13.62.4 13.604.374Z" fill="#E4B230"/><path d="M13.604.374c.015.027-.004.058.011.085-.004-.028.011-.059-.011-.085Z" fill="#E4B230"/><path d="M13.617.507c.004.028-.012.06.011.085-.015-.027.004-.058-.011-.085Z" fill="#E3B22A"/><path d="M13.616.507c.016.027-.003.058.012.085-.004-.028.011-.06-.012-.085Z" fill="#E3B22A"/><path d="M13.628.64c.004.028-.011.059.012.084-.016-.026.004-.057-.012-.084Z" fill="#E4AE30"/><path d="M13.628.64c.016.027-.004.058.012.084-.005-.028.01-.058-.012-.084ZM13.713 1.594c.004.028-.011.059.012.084-.016-.026.004-.058-.012-.084Z" fill="#E4AE30"/><path d="M13.713 1.594c.016.026-.004.058.012.084-.005-.028.01-.059-.012-.084ZM13.689 1.316c.004.028-.011.059.012.084-.016-.026.003-.057-.012-.084Z" fill="#E4AE30"/><path d="M13.688 1.316c.016.027-.003.058.012.084-.004-.028.011-.058-.011-.084ZM13.677 1.183c.004.028-.011.06.012.085-.016-.027.004-.058-.012-.085Z" fill="#E4AE30"/><path d="M13.677 1.183c.016.027-.004.058.012.085-.005-.028.01-.06-.012-.085Z" fill="#E4AE30"/><path d="M13.701 1.46c.004.025-.01.052.012.073-.015-.022.003-.05-.012-.072Z" fill="#E3AB30"/><path d="M13.701 1.46c.015.023-.003.05.012.073-.004-.024.01-.05-.012-.072Z" fill="#E3AB30"/><path d="M13.652.918c.004.024-.01.05.012.072-.015-.022.004-.05-.012-.072Z" fill="#E4B030"/><path d="M13.652.918c.016.022-.003.05.012.072-.003-.024.01-.051-.012-.072Z" fill="#E4B030"/><path d="M3.66 4.72c.017-.026-.003-.057.013-.084-.025.025-.007.057-.012.085Z" fill="#E2932D"/><path d="M3.661 4.72c.022-.025.009-.056.012-.084-.016.027.004.058-.012.085ZM3.685 4.516c.016-.027-.004-.059.012-.085-.024.025-.007.056-.012.085Z" fill="#E2932D"/><path d="M3.686 4.516c.022-.026.007-.057.012-.085-.016.026.003.058-.012.085Z" fill="#E2932D"/><path d="M3.698 4.407c.015-.023-.004-.05.012-.073-.024.021-.008.049-.012.073Z" fill="#E2902C"/><path d="M3.697 4.407c.02-.022.01-.049.012-.073-.015.022.004.05-.012.073Z" fill="#E2902C"/><path d="M3.673 4.612c.016-.022-.003-.05.012-.073-.023.021-.008.049-.012.073Z" fill="#E2972E"/><path d="M3.673 4.612c.02-.021.009-.048.012-.073-.015.023.003.05-.012.073Z" fill="#E2972E"/></g><defs><clipPath id="a"><path fill="#fff" transform="translate(.345)" d="M0 0h25.2v12H0z"/></clipPath></defs></svg>