<svg width="13" height="12" viewBox="0 0 13 12" fill="none" xmlns="http://www.w3.org/2000/svg"><g clip-path="url(#a)"><path d="M6.207 12a6 6 0 1 0 0-12 6 6 0 0 0 0 12Z" fill="url(#b)"/><path d="M8.975 4.015h-2.19V5.53H5.62V4.015s-1.237-.093-1.237.758c0 .83 1.237.758 1.237.758v.918s-2.426.233-2.426-1.692c0-1.831 2.408-1.67 2.408-1.67V1.632H6.76v1.46h2.215v.923Z" fill="#fff"/><path d="M3.438 7.969h2.19V6.453h1.164v1.516s1.237.093 1.237-.758c0-.83-1.237-.758-1.237-.758v-.918s2.426-.233 2.426 1.691c0 1.832-2.408 1.671-2.408 1.671v1.455H5.653v-1.46H3.438v-.923Z" fill="#fff"/></g><defs><linearGradient id="b" x1="10.344" y1="1.854" x2="2.008" y2="10.208" gradientUnits="userSpaceOnUse"><stop stop-color="#7FD400"/><stop offset=".501" stop-color="#009738"/><stop offset="1" stop-color="#004F27"/></linearGradient><clipPath id="a"><path fill="#fff" transform="translate(.207)" d="M0 0h12v12H0z"/></clipPath></defs></svg>