<svg width="66" height="12" viewBox="0 0 66 12" fill="none" xmlns="http://www.w3.org/2000/svg"><g clip-path="url(#a)"><path d="M2.762.098 3.3 1.185a.175.175 0 0 0 .132.095l1.2.175a.175.175 0 0 1 .096.298l-.868.846a.175.175 0 0 0-.05.155l.205 1.195a.175.175 0 0 1-.254.184l-1.073-.565a.175.175 0 0 0-.163 0l-1.073.565a.175.175 0 0 1-.254-.184l.205-1.195a.175.175 0 0 0-.05-.155l-.867-.846a.175.175 0 0 1 .096-.299l1.2-.174a.174.174 0 0 0 .131-.095L2.45.098a.175.175 0 0 1 .313 0ZM11.513.097l-.537 1.087a.174.174 0 0 1-.131.096l-1.2.174a.175.175 0 0 0-.096.299l.868.846a.176.176 0 0 1 .05.154l-.205 1.195a.175.175 0 0 0 .254.184l1.073-.564a.175.175 0 0 1 .163 0l1.074.564a.174.174 0 0 0 .253-.184l-.205-1.195a.175.175 0 0 1 .05-.154l.867-.847a.175.175 0 0 0-.097-.298l-1.2-.174a.174.174 0 0 1-.131-.096L11.826.097a.174.174 0 0 0-.313 0M12.601 5.422A11.56 11.56 0 0 0 7.16 9.384a11.558 11.558 0 0 0-5.442-3.962c-.235-.082-.41.186-.2.306a11.066 11.066 0 0 1 4.755 5.216c.134.248.257.503.37.763a.538.538 0 0 0 .517.292.54.54 0 0 0 .518-.292c.113-.26.236-.514.37-.763A11.066 11.066 0 0 1 12.8 5.728c.21-.12.036-.388-.2-.306Z" fill="#FF7200"/><path d="m23.225 2.076-2.57 6.236h-.693l-2.485-6.236h1.143l1.916 4.864h.024l1.997-4.864h.668ZM37.509 5.572c0-1.192-.649-1.637-1.811-1.637-1.138 0-1.711.473-1.816.598-.005.163.23.422.399.413a1.83 1.83 0 0 1 1.242-.492c.564 0 .903.283.903 1.034v.417a3.478 3.478 0 0 0-.573-.046c-1.502 0-2.286.547-2.286 1.414 0 .849.584 1.145 1.338 1.145.753 0 1.23-.3 1.474-.568v.577h1.13V5.572Zm-2.125 2.281c-.48 0-.714-.301-.714-.728 0-.487.394-.807 1.213-.807.167-.001.333.016.496.052v1.024a1.325 1.325 0 0 1-.995.46ZM51.633 5.572c0-1.192-.649-1.637-1.811-1.637-1.137 0-1.711.473-1.816.598-.005.163.23.422.399.413a1.83 1.83 0 0 1 1.242-.492c.564 0 .903.283.903 1.034v.417a3.478 3.478 0 0 0-.573-.046c-1.502 0-2.286.547-2.286 1.414 0 .849.584 1.145 1.338 1.145.753 0 1.23-.3 1.474-.568v.577h1.13V5.572Zm-2.125 2.281c-.48 0-.714-.301-.714-.728 0-.487.394-.807 1.213-.807.167-.001.333.016.496.052v1.024a1.327 1.327 0 0 1-.995.46ZM27.143 7.422c-.391.329-.89.5-1.401.482-.913 0-1.497-.51-1.497-1.646h3.218c0-1.22-.464-2.323-2.066-2.323-1.457 0-2.26.872-2.26 2.282 0 1.511.993 2.202 2.445 2.202.77 0 1.254-.166 1.562-.335v-.662Zm-1.786-3.014c.669 0 .943.594.943 1.368h-2.04c.05-.9.448-1.368 1.097-1.368ZM61.467 7.422c-.392.329-.891.5-1.402.482-.913 0-1.497-.51-1.497-1.646h3.218c0-1.22-.464-2.323-2.066-2.323-1.457 0-2.26.872-2.26 2.282 0 1.511.993 2.202 2.445 2.202.77 0 1.254-.166 1.562-.335v-.662ZM59.68 4.408c.669 0 .943.594.943 1.368h-2.04c.05-.9.449-1.368 1.097-1.368ZM30.899 3.935c-1.632 0-2.64.867-2.64 2.42 0 1.521.814 2.064 1.837 2.064.502.019.993-.156 1.372-.487l.05.028v.542c0 1.35-.58 1.73-1.442 1.73-.831 0-1.245-.39-1.336-.485v.736c.422.19.882.282 1.345.268 1.317 0 2.515-.51 2.515-2.518V4.251c-.154-.098-.678-.316-1.701-.316Zm.618 3.473a1.288 1.288 0 0 1-1.012.427c-.624 0-1.134-.418-1.134-1.605 0-1.242.58-1.822 1.432-1.822.247-.016.493.035.713.149l.001 2.851ZM54.008 1.249H52.91v7.183h1.096V1.249ZM56.382 1.249h-1.097v7.183h1.097V1.249ZM65.345 3.973h-.826V2.484h-1.137v1.489h-.825v.514h.825v3.871h1.137V4.487h.826v-.514ZM47.273 4l-1.736 4.312h-.663l-1.208-3.097h-.045l-1.247 3.097h-.659L40.044 4h1.152l1.078 3.019h.045L43.496 4h.749l1.157 3.019h.04L46.6 4h.673Z" fill="#444"/></g><defs><clipPath id="a"><path fill="#fff" transform="translate(.432)" d="M0 0h64.913v12H0z"/></clipPath></defs></svg>