<svg width="70" height="12" viewBox="0 0 70 12" fill="none" xmlns="http://www.w3.org/2000/svg"><path d="M11.864.467c.6 1.566-8.566 10.833-9.633 9.766-.4-.366.733-2.466 3.233-6 1.3-1.766 2.234-3.4 2.134-3.566-.367-.6-1.334-.334-2.934.8-.933.666-1.833 1.066-2.133.966-.367-.133-.467 0-.367.6.1.8.567.934 1.734.434.466-.167.166.4-.9 1.933C1.064 8.1.33 9.833.598 10.933c.166.734.333.8 1.633.667.9-.1 2.067-.6 3.067-1.267C8.698 8 13.43 2.433 13.43.767c0-.6-.2-.767-.866-.767-.6 0-.834.133-.7.467ZM40.831.967c-1.8.6-3.4 1.833-3.4 2.566 0 .667.933 1.2 1.667.967.533-.167.633-.333.333-.667-.3-.366-.2-.566.4-.966.967-.634 3.7-1.6 3.533-1.267-.066.133-1.5 2.3-3.166 4.833-1.7 2.534-3.1 4.767-3.1 4.934 0 .2.333.3.733.233.5-.067 1.2-.867 2.2-2.533 1.067-1.767 1.567-2.367 1.833-2.1.567.566 1.934.433 3.734-.434 3.5-1.6 4.566-4.433 2.166-5.6-1.533-.766-4.633-.766-6.933.034Zm5.867.9c.4.266.733.8.733 1.133 0 1.3-3.6 3.4-5 2.933-.2-.066.2-1 .967-2.166.866-1.334 1.2-2.1.933-2.234-.233-.066.067-.166.6-.166.567-.034 1.367.2 1.767.5ZM67.098 2.5c-.433.467-1.167.833-1.633.833-.467 0-1.067.134-1.334.3-.633.4-.1 1.1.667.867.9-.3.8.167-.567 2.667-1.3 2.366-3.266 4.166-3.833 3.6-.267-.267.033-1.034 1-2.6.733-1.234 1.266-2.4 1.166-2.534-.3-.533-1.366-.333-2.3.434l-.933.733.167-.733c.166-.534.067-.734-.367-.734-.333 0-1 .767-1.7 1.9-1.066 1.867-2.366 3.2-3.466 3.634-.867.333-.634-.634.633-2.834 1.267-2.133 1.4-2.7.733-2.7-.7 0-1.967 1.034-1.767 1.5.067.234-.2 1-.666 1.7-1.467 2.434-.867 3.634 1.566 3.267 1.267-.2 1.767-.567 3.767-2.7 1.267-1.367 2.334-2.4 2.433-2.333.067.1-.266.866-.733 1.733-.933 1.767-1.033 2.5-.433 3.1.567.567 1.4.5 2.333-.233.8-.667.833-.667 1.367 0 .3.333.733.633.967.633.666 0 2.6-1.267 2.833-1.833.333-.934-.167-.934-1.267-.034-.8.667-1.166.8-1.433.534-.267-.267.033-1.167 1.166-3.267 1.434-2.7 1.6-2.9 2.767-3.1.667-.1 1.3-.3 1.4-.4.367-.333-.233-.9-.966-.9-.534 0-.6-.1-.3-.4.233-.233.4-.533.4-.667 0-.533-.9-.233-1.667.567ZM56.164 3.067c-.533.533-.5 1.266.033 1.266.567 0 1.234-.666 1.234-1.233 0-.533-.734-.567-1.267-.033ZM31.198 5.633c-1.7.8-2.7 2.134-2.1 2.867.234.267 1 .667 1.734.867 1.1.266 1.233.433.933.833-.633.733-2.333.567-3.033-.267l-.634-.7-.966.9c-1.467 1.4-1.6.5-.334-2.066.634-1.234 1.2-2.334 1.234-2.5.066-.134-.1-.234-.4-.234-.267 0-1.1.8-1.834 1.734-.7.966-1.766 2.2-2.333 2.733-.9.867-1.033.9-1.033.333 0-.333.466-1.4 1-2.3 1.133-1.9 1.2-2.166.5-2.166-.267 0-.967.833-1.534 1.833-1.5 2.667-3.633 4.267-3.633 2.733 0-.233.533-1.2 1.167-2.133.633-.967 1.166-1.967 1.166-2.267 0-.733-1.4-.633-2.433.167l-.833.667.166-.7c.167-.534.067-.667-.4-.6-.333.066-1.3 1.266-2.133 2.633-1.567 2.5-2.667 3.333-3.833 2.9-.767-.3-.334-1.067 1-1.767C13.998 8.4 14.065 8 12.865 8l-.933-.033.8-.634c.466-.433 1.033-.6 1.5-.466.466.1.933-.034 1.2-.367 1.133-1.367-1.734-1.5-3.467-.133-.567.433-.867 1-.867 1.633 0 .5-.233 1.1-.5 1.333-.733.6-.633 1.9.2 2.334.4.233 1.334.3 2.267.166 1.4-.2 1.733-.4 3.2-2.2.9-1.1 2-2.233 2.467-2.533l.833-.533-.9 1.533c-1.6 2.7-.933 4.5 1.233 3.533.667-.333.967-.333 1.267-.033.633.633 1.167.467 2.433-.633l1.167-1.034v.834c0 1.2 1.133 1.5 2.3.633l.9-.667.433.667c.334.567.667.633 1.734.5 1.433-.2 2.9-1 3.2-1.767.266-.7-.467-1.433-1.934-1.8-1.566-.433-1.633-.8-.3-1.5 1.167-.6 1.9-.633 2.067-.133.2.633 1.667-.3 1.533-.967-.166-.8-1.833-.866-3.5-.1ZM48.431 6.067c-1.533 1.033-2.666 2.8-2.666 4.133 0 2.333 2.2 2.1 4.533-.467 1.233-1.366 2.033-3.3 1.567-3.766-.734-.734-2.267-.667-3.434.1Zm2.167.6c.267.466-1 2.466-2.067 3.333-2.1 1.667-2.4 0-.4-2.167 1.367-1.5 2.067-1.8 2.467-1.166Z" fill="#000"/></svg>