<svg width="37" height="12" viewBox="0 0 37 12" fill="none" xmlns="http://www.w3.org/2000/svg"><path d="M16.011 11.827h-2.913L14.92.21h2.914L16.01 11.827ZM26.572.495A6.992 6.992 0 0 0 23.96 0c-2.878 0-4.904 1.582-4.916 3.843-.024 1.669 1.45 2.595 2.553 3.152 1.128.568 1.51.939 1.51 1.446-.01.778-.91 1.137-1.749 1.137-1.163 0-1.786-.185-2.734-.618l-.383-.186-.408 2.608c.683.32 1.942.606 3.25.618 3.057 0 5.047-1.557 5.07-3.967.012-1.322-.766-2.336-2.445-3.164-1.02-.531-1.643-.89-1.643-1.433.012-.495.528-1.001 1.678-1.001a4.824 4.824 0 0 1 2.17.445l.264.123.396-2.508ZM30.446 7.711c.24-.667 1.164-3.25 1.164-3.25-.013.025.239-.68.383-1.112l.204 1.001s.551 2.78.671 3.361h-2.422Zm3.597-7.5h-2.254c-.695 0-1.223.21-1.523.963L25.94 11.826h3.057l.611-1.742h3.741c.084.408.348 1.742.348 1.742h2.697L34.043.21ZM10.663.21 7.81 8.132l-.312-1.607C6.97 4.671 5.316 2.657 3.47 1.655l2.613 10.16h3.081L13.744.21h-3.08Z" fill="#00579F"/><path d="M5.16.21H.473L.425.445c3.657.964 6.078 3.288 7.073 6.081L6.48 1.187C6.311.445 5.796.235 5.16.21Z" fill="#FAA61A"/></svg>