<svg width="49" height="12" viewBox="0 0 49 12" fill="none" xmlns="http://www.w3.org/2000/svg"><path fill-rule="evenodd" clip-rule="evenodd" d="M10.719 4.951c.21-.11.57-.253.95-.253.871 0 1.343.589 1.343 1.684 0 1.28-.633 1.904-1.653 1.904a3.33 3.33 0 0 1-1.372-.336V3.17L10.72 3v1.951Zm-.007 2.745c.225.096.471.11.647.11.52 0 .914-.315.914-1.424 0-.87-.323-1.15-.794-1.15-.282 0-.486.075-.767.226v2.238ZM3.22 4.786h.05l.956 3.417h.76L6.124 3.35h-.823l-.717 3.622h-.05l-.977-3.622h-.626l-.915 3.622h-.049L1.18 3.349H.393l1.14 4.854h.759l.928-3.416ZM9.242 7.97v-.52c-.387.226-.739.356-1.118.356-.725 0-1.07-.363-1.07-1.185h2.293v-.253c0-1.116-.541-1.67-1.42-1.67-1.055 0-1.597.753-1.597 1.793 0 1.082.485 1.794 1.667 1.794a2.53 2.53 0 0 0 1.245-.315Zm-.563-1.807h-1.61c.077-.685.407-1.006.836-1.006.38 0 .74.287.774 1.006Zm7.568 1.013h-.035L14.636 3.35h-.85v4.854h.632V4.766h.064l1.435 3.437h.45l1.435-3.519h.063v3.52h.76V3.348h-.873l-1.505 3.827Zm3.152-.685c0-1.198.675-1.793 1.603-1.793.929 0 1.604.595 1.604 1.793 0 1.171-.64 1.794-1.604 1.794-.963 0-1.603-.623-1.603-1.794Zm2.468 0c0-.924-.387-1.314-.865-1.314-.464 0-.865.39-.865 1.314 0 .939.366 1.315.865 1.315.5 0 .865-.376.865-1.315Zm3.2-1.793c-.809 0-1.477.321-1.794.506v3h.732V5.491c.218-.123.577-.247.858-.247.359 0 .633.096.633.637v2.321h.731V5.725c0-.706-.316-1.027-1.16-1.027Zm4.727 2.752v.52a2.529 2.529 0 0 1-1.244.315c-1.182 0-1.667-.712-1.667-1.794 0-1.04.542-1.793 1.597-1.793.879 0 1.42.554 1.42 1.67v.253h-2.292c0 .822.344 1.185 1.069 1.185.38 0 .731-.13 1.117-.356Zm-2.173-1.287h1.61c-.034-.72-.393-1.006-.773-1.006-.429 0-.76.321-.837 1.006Zm5.767-1.349h-.753l-.802 2.52h-.042l-.9-2.52h-.774l1.35 3.423c-.168.507-.463.877-.942.877v.56c.809 0 1.238-.492 1.59-1.437l1.273-3.423ZM42.553 0c.968 0 1.885.22 2.701.609.129.06.257.124.385.196l-.568.494-.852-.858-1.44 1.25-.854-.908-2.68 2.351 1.718 1.844-.676.578 1.693 1.846-.671.577 2.419 2.62 1.435-1.286 1.242 1.378a6.596 6.596 0 0 1-.813.525 6.247 6.247 0 0 1-3.039.784c-3.395 0-6.164-2.696-6.164-6 0-3.305 2.769-6 6.164-6ZM41.43 5.621l1.466-1.285 1.32 1.427-1.466 1.285-1.32-1.427Zm2.508 1.18-1.466 1.285 1.32 1.428 1.466-1.285-1.32-1.427ZM40.38 3.185 41.847 1.9l1.32 1.427L41.7 4.61l-1.32-1.427Zm3.79-1.654-1.1.963.99 1.07 1.1-.963-.99-1.07Zm.853 5.376 1.1-.964.99 1.07-1.1.964-.99-1.07Zm2.066 1.198-1.099.964.99 1.07 1.1-.964-.99-1.07Zm-.655-3.99.732-.643.66.714-.732.642-.66-.713Zm-.204-2.762-.733.642.66.713.733-.642-.66-.713Zm1.14 4.881.733-.642.66.713-.733.643-.66-.714Zm-2.187-2.552-1.099.964.99 1.07 1.1-.964-.99-1.07Z" fill="#0068A3"/></svg>